M48
;Layer_Color=9474304
;FILE_FORMAT=2:5
INCH,LZ
;TYPE=PLATED
T01F00S00C0.00787
T02F00S00C0.04000
;TYPE=NON_PLATED
T03F00S00C0.06500
%
T01
X0011375Y0008277
X0020033Y0006484
X0024967Y0010095
X002714Y0010092
X0029921Y000502
X0032977Y0013041
X0032655Y0015233
X0032491Y0017698
X0026378Y0018012
X0020563Y0015882
X0018154Y0015854
X0009449Y0017323
X0010788Y002869
X0011568Y0040106
X0019645Y0039528
Y0037362
Y0035197
Y0033031
X0026772Y0032283
X0030418Y0029283
X003596Y0027233
X0037589Y0025622
X004874Y0026654
X0051326Y0027006
X0052618Y0023996
X0057913Y0025669
Y0028425
X0062744Y003173
X0062444Y0037353
X0062595Y0039682
X0064884Y0043617
X0066687Y0042419
X0071964Y0042683
X0072415Y0045028
X0075181Y004163
X0078553Y0040077
X0081499Y0039907
X008359Y0043354
X0081834Y0045369
X0080886Y0048051
X0078509Y0050569
X0073425Y0052559
X0087232Y0052915
X0092226Y0052968
X0093751Y0048248
X009815Y0049409
X0100642Y0045908
X009998Y0041401
Y0032464
X010498
X0104958Y0028053
X0107871Y0026302
X0110231Y0026075
X011036Y0028271
X0110216Y0033995
X0110196Y0036181
X0110162Y0039269
X0110196Y0043858
X0108928Y0046372
X0116142Y0047244
X0118884Y0045085
X0120644Y0039605
X0120618Y0035364
X0120467Y0031379
X0121499Y002685
X0125974Y0027119
X0128117Y0029719
X0130333Y0030045
X0134751Y0030226
X0136257Y0027621
X0138116Y0029295
X0139504Y0034997
X0139341Y0038446
X0139279Y0040787
X0133003Y0039524
X0130488Y0041201
X0129732Y0043443
X012711Y0041433
X0126168Y0039473
X01254Y0037165
X0125714Y0035005
X0130716Y0035
X0132979
X0134555Y0047589
X0131307Y0047831
X0127369
X0123433Y0047831
X0124204Y0054337
X0121364Y005435
X0117521
X0114119Y0053913
X011176Y005385
X012Y006314
X0131676Y0061079
X0136304Y0056979
X0138637Y0056725
X0137659Y0054785
X0140225Y00584
X0139898Y0062876
X0149813Y0061994
X0148046Y0059037
X0146873Y0057216
X0147055Y0054721
X0149536Y0054836
X0150971Y005687
X0145086Y0055705
X0143115Y0047746
X0145527Y0043022
X014801Y004465
X0151247Y0046022
X0152804Y0047588
X0148004Y0039832
X0146735Y0035776
X0146727Y003359
X0149165Y0029561
X0149195Y0027152
X0150697Y0024343
X0147613Y0022664
X0142631Y0021718
X0138633Y0021625
X0134063Y002179
X0129732
X0129921Y0014961
X0130207Y0012648
X0130073Y0005152
X0120073
X0117619Y0011375
X0112308Y0015418
X0110126Y0015241
X0109743Y0017559
X0107717Y0016478
X0105401Y0016496
X0102891Y0019104
X0100448Y0020045
X0094503Y0023198
X0087854Y002035
X0085507Y0020338
X0084108Y0018662
X008216Y0017622
X0081092Y0019685
X0080215Y0023092
X0079893Y0029409
X0082069Y002939
X0079224Y0031887
X0079312Y0034128
X0076342Y0030175
X0075648Y0020886
X0071967Y0023033
X0070491Y0016265
X007022Y001384
X0070479Y0011316
X0078351Y0013841
X0086064Y0014693
X008794Y0013573
X0089546Y002975
X0085831Y00356
X0088539Y0040773
X0094408Y0034983
X0116833Y0024302
X013689Y0015118
X0145158
X0149023Y0015381
X0151779
X0155394Y0015315
X0154213Y0010197
X0144638Y0026328
X0129195Y0054493
X0070079Y0063386
X0059882Y0063425
X0059905Y0056231
X0048052Y0055887
X0043756Y0056554
X005028Y0062999
X0050614Y0047593
X0048031Y0047598
X0049606Y0039921
X0052464Y0042484
X0051467Y0031997
X0049409Y0030413
X0047205Y0012791
X0044252
X0041299
X0055079Y0014698
X0059961Y0005217
X003372Y0050945
X0030866Y005685
X0019448Y0054193
X0020079Y0062598
X0011811Y0060137
X0163429Y0059365
X0162532Y0055016
X0159724Y0015315
X0160404Y0010556
T02
X0015Y0
Y0005
X0025
X0025Y0
X0035
X0034941Y0005
X0044941
X0045Y0
X0055
X0054941Y0005
X0064941
X0065Y0
X0075
X0074941Y0005
X0084941
X0085Y0
X0095
X0094941Y0005
X0104941
X0105Y0
X0115
X0114941Y0005
X0124941
X0125Y0
X0135
X0134941Y0005
X0144941
X0145Y0
X0155
X0154941Y0005
Y0065
X0155Y007
X0145
X0144941Y0065
X0134941
X0135Y007
X0125
X0124941Y0065
X0114941
X0115Y007
X0105
X0104941Y0065
X0094941
X0095Y007
X0085
X0084941Y0065
X0074941
X0075Y007
X0065
X0064941Y0065
X0054941
X0055Y007
X0045
X0044941Y0065
X0034941
X0035Y007
X0025
X0025Y0065
X0015
Y007
T03
X0005Y0005
Y0065
X0165
Y0005
M30
