G04*
G04 #@! TF.GenerationSoftware,Altium Limited,Altium Designer,24.2.2 (26)*
G04*
G04 Layer_Physical_Order=1*
G04 Layer_Color=255*
%FSLAX44Y44*%
%MOMM*%
G71*
G04*
G04 #@! TF.SameCoordinates,84A61C28-107D-4167-A594-B99BE37EB826*
G04*
G04*
G04 #@! TF.FilePolarity,Positive*
G04*
G01*
G75*
%ADD10C,0.1500*%
%ADD11C,0.2500*%
%ADD12C,0.1000*%
G04:AMPARAMS|DCode=13|XSize=1.9mm|YSize=1.4mm|CornerRadius=0.259mm|HoleSize=0mm|Usage=FLASHONLY|Rotation=90.000|XOffset=0mm|YOffset=0mm|HoleType=Round|Shape=RoundedRectangle|*
%AMROUNDEDRECTD13*
21,1,1.9000,0.8820,0,0,90.0*
21,1,1.3820,1.4000,0,0,90.0*
1,1,0.5180,0.4410,0.6910*
1,1,0.5180,0.4410,-0.6910*
1,1,0.5180,-0.4410,-0.6910*
1,1,0.5180,-0.4410,0.6910*
%
%ADD13ROUNDEDRECTD13*%
G04:AMPARAMS|DCode=14|XSize=1.825mm|YSize=1.6mm|CornerRadius=0.296mm|HoleSize=0mm|Usage=FLASHONLY|Rotation=90.000|XOffset=0mm|YOffset=0mm|HoleType=Round|Shape=RoundedRectangle|*
%AMROUNDEDRECTD14*
21,1,1.8250,1.0080,0,0,90.0*
21,1,1.2330,1.6000,0,0,90.0*
1,1,0.5920,0.5040,0.6165*
1,1,0.5920,0.5040,-0.6165*
1,1,0.5920,-0.5040,-0.6165*
1,1,0.5920,-0.5040,0.6165*
%
%ADD14ROUNDEDRECTD14*%
G04:AMPARAMS|DCode=15|XSize=0.37mm|YSize=1.11mm|CornerRadius=0.0907mm|HoleSize=0mm|Usage=FLASHONLY|Rotation=90.000|XOffset=0mm|YOffset=0mm|HoleType=Round|Shape=RoundedRectangle|*
%AMROUNDEDRECTD15*
21,1,0.3700,0.9287,0,0,90.0*
21,1,0.1887,1.1100,0,0,90.0*
1,1,0.1813,0.4643,0.0944*
1,1,0.1813,0.4643,-0.0944*
1,1,0.1813,-0.4643,-0.0944*
1,1,0.1813,-0.4643,0.0944*
%
%ADD15ROUNDEDRECTD15*%
G04:AMPARAMS|DCode=16|XSize=1.78mm|YSize=1.2mm|CornerRadius=0.222mm|HoleSize=0mm|Usage=FLASHONLY|Rotation=90.000|XOffset=0mm|YOffset=0mm|HoleType=Round|Shape=RoundedRectangle|*
%AMROUNDEDRECTD16*
21,1,1.7800,0.7560,0,0,90.0*
21,1,1.3360,1.2000,0,0,90.0*
1,1,0.4440,0.3780,0.6680*
1,1,0.4440,0.3780,-0.6680*
1,1,0.4440,-0.3780,-0.6680*
1,1,0.4440,-0.3780,0.6680*
%
%ADD16ROUNDEDRECTD16*%
%ADD17R,0.8000X0.2499*%
%ADD18R,0.2499X0.8000*%
G04:AMPARAMS|DCode=19|XSize=0.64mm|YSize=0.26mm|CornerRadius=0.0702mm|HoleSize=0mm|Usage=FLASHONLY|Rotation=90.000|XOffset=0mm|YOffset=0mm|HoleType=Round|Shape=RoundedRectangle|*
%AMROUNDEDRECTD19*
21,1,0.6400,0.1196,0,0,90.0*
21,1,0.4996,0.2600,0,0,90.0*
1,1,0.1404,0.0598,0.2498*
1,1,0.1404,0.0598,-0.2498*
1,1,0.1404,-0.0598,-0.2498*
1,1,0.1404,-0.0598,0.2498*
%
%ADD19ROUNDEDRECTD19*%
G04:AMPARAMS|DCode=20|XSize=0.6599mm|YSize=0.5001mm|CornerRadius=0.125mm|HoleSize=0mm|Usage=FLASHONLY|Rotation=180.000|XOffset=0mm|YOffset=0mm|HoleType=Round|Shape=RoundedRectangle|*
%AMROUNDEDRECTD20*
21,1,0.6599,0.2501,0,0,180.0*
21,1,0.4098,0.5001,0,0,180.0*
1,1,0.2501,-0.2049,0.1250*
1,1,0.2501,0.2049,0.1250*
1,1,0.2501,0.2049,-0.1250*
1,1,0.2501,-0.2049,-0.1250*
%
%ADD20ROUNDEDRECTD20*%
G04:AMPARAMS|DCode=21|XSize=0.91mm|YSize=1.01mm|CornerRadius=0.1502mm|HoleSize=0mm|Usage=FLASHONLY|Rotation=90.000|XOffset=0mm|YOffset=0mm|HoleType=Round|Shape=RoundedRectangle|*
%AMROUNDEDRECTD21*
21,1,0.9100,0.7097,0,0,90.0*
21,1,0.6097,1.0100,0,0,90.0*
1,1,0.3003,0.3549,0.3049*
1,1,0.3003,0.3549,-0.3049*
1,1,0.3003,-0.3549,-0.3049*
1,1,0.3003,-0.3549,0.3049*
%
%ADD21ROUNDEDRECTD21*%
G04:AMPARAMS|DCode=22|XSize=0.91mm|YSize=0.61mm|CornerRadius=0.1495mm|HoleSize=0mm|Usage=FLASHONLY|Rotation=90.000|XOffset=0mm|YOffset=0mm|HoleType=Round|Shape=RoundedRectangle|*
%AMROUNDEDRECTD22*
21,1,0.9100,0.3111,0,0,90.0*
21,1,0.6111,0.6100,0,0,90.0*
1,1,0.2989,0.1556,0.3056*
1,1,0.2989,0.1556,-0.3056*
1,1,0.2989,-0.1556,-0.3056*
1,1,0.2989,-0.1556,0.3056*
%
%ADD22ROUNDEDRECTD22*%
G04:AMPARAMS|DCode=23|XSize=0.91mm|YSize=1.22mm|CornerRadius=0.2275mm|HoleSize=0mm|Usage=FLASHONLY|Rotation=180.000|XOffset=0mm|YOffset=0mm|HoleType=Round|Shape=RoundedRectangle|*
%AMROUNDEDRECTD23*
21,1,0.9100,0.7650,0,0,180.0*
21,1,0.4550,1.2200,0,0,180.0*
1,1,0.4550,-0.2275,0.3825*
1,1,0.4550,0.2275,0.3825*
1,1,0.4550,0.2275,-0.3825*
1,1,0.4550,-0.2275,-0.3825*
%
%ADD23ROUNDEDRECTD23*%
G04:AMPARAMS|DCode=24|XSize=0.54mm|YSize=0.54mm|CornerRadius=0.1404mm|HoleSize=0mm|Usage=FLASHONLY|Rotation=270.000|XOffset=0mm|YOffset=0mm|HoleType=Round|Shape=RoundedRectangle|*
%AMROUNDEDRECTD24*
21,1,0.5400,0.2592,0,0,270.0*
21,1,0.2592,0.5400,0,0,270.0*
1,1,0.2808,-0.1296,-0.1296*
1,1,0.2808,-0.1296,0.1296*
1,1,0.2808,0.1296,0.1296*
1,1,0.2808,0.1296,-0.1296*
%
%ADD24ROUNDEDRECTD24*%
G04:AMPARAMS|DCode=25|XSize=0.55mm|YSize=0.58mm|CornerRadius=0.1403mm|HoleSize=0mm|Usage=FLASHONLY|Rotation=0.000|XOffset=0mm|YOffset=0mm|HoleType=Round|Shape=RoundedRectangle|*
%AMROUNDEDRECTD25*
21,1,0.5500,0.2995,0,0,0.0*
21,1,0.2695,0.5800,0,0,0.0*
1,1,0.2805,0.1348,-0.1498*
1,1,0.2805,-0.1348,-0.1498*
1,1,0.2805,-0.1348,0.1498*
1,1,0.2805,0.1348,0.1498*
%
%ADD25ROUNDEDRECTD25*%
G04:AMPARAMS|DCode=26|XSize=0.25mm|YSize=0.7mm|CornerRadius=0.0313mm|HoleSize=0mm|Usage=FLASHONLY|Rotation=90.000|XOffset=0mm|YOffset=0mm|HoleType=Round|Shape=RoundedRectangle|*
%AMROUNDEDRECTD26*
21,1,0.2500,0.6375,0,0,90.0*
21,1,0.1875,0.7000,0,0,90.0*
1,1,0.0625,0.3188,0.0938*
1,1,0.0625,0.3188,-0.0938*
1,1,0.0625,-0.3188,-0.0938*
1,1,0.0625,-0.3188,0.0938*
%
%ADD26ROUNDEDRECTD26*%
G04:AMPARAMS|DCode=27|XSize=0.7mm|YSize=0.7mm|CornerRadius=0.063mm|HoleSize=0mm|Usage=FLASHONLY|Rotation=0.000|XOffset=0mm|YOffset=0mm|HoleType=Round|Shape=RoundedRectangle|*
%AMROUNDEDRECTD27*
21,1,0.7000,0.5740,0,0,0.0*
21,1,0.5740,0.7000,0,0,0.0*
1,1,0.1260,0.2870,-0.2870*
1,1,0.1260,-0.2870,-0.2870*
1,1,0.1260,-0.2870,0.2870*
1,1,0.1260,0.2870,0.2870*
%
%ADD27ROUNDEDRECTD27*%
G04:AMPARAMS|DCode=28|XSize=1.1501mm|YSize=0.7mm|CornerRadius=0.063mm|HoleSize=0mm|Usage=FLASHONLY|Rotation=270.000|XOffset=0mm|YOffset=0mm|HoleType=Round|Shape=RoundedRectangle|*
%AMROUNDEDRECTD28*
21,1,1.1501,0.5740,0,0,270.0*
21,1,1.0241,0.7000,0,0,270.0*
1,1,0.1260,-0.2870,-0.5121*
1,1,0.1260,-0.2870,0.5121*
1,1,0.1260,0.2870,0.5121*
1,1,0.1260,0.2870,-0.5121*
%
%ADD28ROUNDEDRECTD28*%
G04:AMPARAMS|DCode=29|XSize=1.1501mm|YSize=0.7mm|CornerRadius=0.063mm|HoleSize=0mm|Usage=FLASHONLY|Rotation=0.000|XOffset=0mm|YOffset=0mm|HoleType=Round|Shape=RoundedRectangle|*
%AMROUNDEDRECTD29*
21,1,1.1501,0.5740,0,0,0.0*
21,1,1.0241,0.7000,0,0,0.0*
1,1,0.1260,0.5121,-0.2870*
1,1,0.1260,-0.5121,-0.2870*
1,1,0.1260,-0.5121,0.2870*
1,1,0.1260,0.5121,0.2870*
%
%ADD29ROUNDEDRECTD29*%
%ADD30R,1.8000X0.7000*%
G04:AMPARAMS|DCode=31|XSize=0.33mm|YSize=0.28mm|CornerRadius=0.07mm|HoleSize=0mm|Usage=FLASHONLY|Rotation=180.000|XOffset=0mm|YOffset=0mm|HoleType=Round|Shape=RoundedRectangle|*
%AMROUNDEDRECTD31*
21,1,0.3300,0.1400,0,0,180.0*
21,1,0.1900,0.2800,0,0,180.0*
1,1,0.1400,-0.0950,0.0700*
1,1,0.1400,0.0950,0.0700*
1,1,0.1400,0.0950,-0.0700*
1,1,0.1400,-0.0950,-0.0700*
%
%ADD31ROUNDEDRECTD31*%
G04:AMPARAMS|DCode=32|XSize=0.33mm|YSize=0.28mm|CornerRadius=0.07mm|HoleSize=0mm|Usage=FLASHONLY|Rotation=90.000|XOffset=0mm|YOffset=0mm|HoleType=Round|Shape=RoundedRectangle|*
%AMROUNDEDRECTD32*
21,1,0.3300,0.1400,0,0,90.0*
21,1,0.1900,0.2800,0,0,90.0*
1,1,0.1400,0.0700,0.0950*
1,1,0.1400,0.0700,-0.0950*
1,1,0.1400,-0.0700,-0.0950*
1,1,0.1400,-0.0700,0.0950*
%
%ADD32ROUNDEDRECTD32*%
G04:AMPARAMS|DCode=33|XSize=0.72mm|YSize=0.87mm|CornerRadius=0.18mm|HoleSize=0mm|Usage=FLASHONLY|Rotation=0.000|XOffset=0mm|YOffset=0mm|HoleType=Round|Shape=RoundedRectangle|*
%AMROUNDEDRECTD33*
21,1,0.7200,0.5100,0,0,0.0*
21,1,0.3600,0.8700,0,0,0.0*
1,1,0.3600,0.1800,-0.2550*
1,1,0.3600,-0.1800,-0.2550*
1,1,0.3600,-0.1800,0.2550*
1,1,0.3600,0.1800,0.2550*
%
%ADD33ROUNDEDRECTD33*%
G04:AMPARAMS|DCode=34|XSize=0.75mm|YSize=0.87mm|CornerRadius=0.1913mm|HoleSize=0mm|Usage=FLASHONLY|Rotation=0.000|XOffset=0mm|YOffset=0mm|HoleType=Round|Shape=RoundedRectangle|*
%AMROUNDEDRECTD34*
21,1,0.7500,0.4875,0,0,0.0*
21,1,0.3675,0.8700,0,0,0.0*
1,1,0.3825,0.1838,-0.2438*
1,1,0.3825,-0.1838,-0.2438*
1,1,0.3825,-0.1838,0.2438*
1,1,0.3825,0.1838,0.2438*
%
%ADD34ROUNDEDRECTD34*%
%ADD35R,0.6100X0.3500*%
G04:AMPARAMS|DCode=36|XSize=0.35mm|YSize=1.3mm|CornerRadius=0.0875mm|HoleSize=0mm|Usage=FLASHONLY|Rotation=90.000|XOffset=0mm|YOffset=0mm|HoleType=Round|Shape=RoundedRectangle|*
%AMROUNDEDRECTD36*
21,1,0.3500,1.1250,0,0,90.0*
21,1,0.1750,1.3000,0,0,90.0*
1,1,0.1750,0.5625,0.0875*
1,1,0.1750,0.5625,-0.0875*
1,1,0.1750,-0.5625,-0.0875*
1,1,0.1750,-0.5625,0.0875*
%
%ADD36ROUNDEDRECTD36*%
G04:AMPARAMS|DCode=37|XSize=2.3mm|YSize=0.35mm|CornerRadius=0.0875mm|HoleSize=0mm|Usage=FLASHONLY|Rotation=90.000|XOffset=0mm|YOffset=0mm|HoleType=Round|Shape=RoundedRectangle|*
%AMROUNDEDRECTD37*
21,1,2.3000,0.1750,0,0,90.0*
21,1,2.1250,0.3500,0,0,90.0*
1,1,0.1750,0.0875,1.0625*
1,1,0.1750,0.0875,-1.0625*
1,1,0.1750,-0.0875,-1.0625*
1,1,0.1750,-0.0875,1.0625*
%
%ADD37ROUNDEDRECTD37*%
G04:AMPARAMS|DCode=38|XSize=1.02mm|YSize=0.48mm|CornerRadius=0.0528mm|HoleSize=0mm|Usage=FLASHONLY|Rotation=270.000|XOffset=0mm|YOffset=0mm|HoleType=Round|Shape=RoundedRectangle|*
%AMROUNDEDRECTD38*
21,1,1.0200,0.3744,0,0,270.0*
21,1,0.9144,0.4800,0,0,270.0*
1,1,0.1056,-0.1872,-0.4572*
1,1,0.1056,-0.1872,0.4572*
1,1,0.1056,0.1872,0.4572*
1,1,0.1056,0.1872,-0.4572*
%
%ADD38ROUNDEDRECTD38*%
%ADD39C,0.2000*%
G04:AMPARAMS|DCode=40|XSize=1.11mm|YSize=1.47mm|CornerRadius=0.2498mm|HoleSize=0mm|Usage=FLASHONLY|Rotation=180.000|XOffset=0mm|YOffset=0mm|HoleType=Round|Shape=RoundedRectangle|*
%AMROUNDEDRECTD40*
21,1,1.1100,0.9705,0,0,180.0*
21,1,0.6105,1.4700,0,0,180.0*
1,1,0.4995,-0.3053,0.4853*
1,1,0.4995,0.3053,0.4853*
1,1,0.4995,0.3053,-0.4853*
1,1,0.4995,-0.3053,-0.4853*
%
%ADD40ROUNDEDRECTD40*%
G04:AMPARAMS|DCode=41|XSize=0.87mm|YSize=0.97mm|CornerRadius=0.2218mm|HoleSize=0mm|Usage=FLASHONLY|Rotation=90.000|XOffset=0mm|YOffset=0mm|HoleType=Round|Shape=RoundedRectangle|*
%AMROUNDEDRECTD41*
21,1,0.8700,0.5263,0,0,90.0*
21,1,0.4263,0.9700,0,0,90.0*
1,1,0.4437,0.2632,0.2132*
1,1,0.4437,0.2632,-0.2132*
1,1,0.4437,-0.2632,-0.2132*
1,1,0.4437,-0.2632,0.2132*
%
%ADD41ROUNDEDRECTD41*%
G04:AMPARAMS|DCode=42|XSize=0.63mm|YSize=0.58mm|CornerRadius=0.1508mm|HoleSize=0mm|Usage=FLASHONLY|Rotation=270.000|XOffset=0mm|YOffset=0mm|HoleType=Round|Shape=RoundedRectangle|*
%AMROUNDEDRECTD42*
21,1,0.6300,0.2784,0,0,270.0*
21,1,0.3284,0.5800,0,0,270.0*
1,1,0.3016,-0.1392,-0.1642*
1,1,0.3016,-0.1392,0.1642*
1,1,0.3016,0.1392,0.1642*
1,1,0.3016,0.1392,-0.1642*
%
%ADD42ROUNDEDRECTD42*%
G04:AMPARAMS|DCode=43|XSize=1mm|YSize=1.6mm|CornerRadius=0.245mm|HoleSize=0mm|Usage=FLASHONLY|Rotation=90.000|XOffset=0mm|YOffset=0mm|HoleType=Round|Shape=RoundedRectangle|*
%AMROUNDEDRECTD43*
21,1,1.0000,1.1100,0,0,90.0*
21,1,0.5100,1.6000,0,0,90.0*
1,1,0.4900,0.5550,0.2550*
1,1,0.4900,0.5550,-0.2550*
1,1,0.4900,-0.5550,-0.2550*
1,1,0.4900,-0.5550,0.2550*
%
%ADD43ROUNDEDRECTD43*%
%ADD44R,0.7200X0.6000*%
G04:AMPARAMS|DCode=45|XSize=0.63mm|YSize=0.58mm|CornerRadius=0.1508mm|HoleSize=0mm|Usage=FLASHONLY|Rotation=0.000|XOffset=0mm|YOffset=0mm|HoleType=Round|Shape=RoundedRectangle|*
%AMROUNDEDRECTD45*
21,1,0.6300,0.2784,0,0,0.0*
21,1,0.3284,0.5800,0,0,0.0*
1,1,0.3016,0.1642,-0.1392*
1,1,0.3016,-0.1642,-0.1392*
1,1,0.3016,-0.1642,0.1392*
1,1,0.3016,0.1642,0.1392*
%
%ADD45ROUNDEDRECTD45*%
G04:AMPARAMS|DCode=46|XSize=1.25mm|YSize=1.47mm|CornerRadius=0.2813mm|HoleSize=0mm|Usage=FLASHONLY|Rotation=180.000|XOffset=0mm|YOffset=0mm|HoleType=Round|Shape=RoundedRectangle|*
%AMROUNDEDRECTD46*
21,1,1.2500,0.9075,0,0,180.0*
21,1,0.6875,1.4700,0,0,180.0*
1,1,0.5625,-0.3438,0.4537*
1,1,0.5625,0.3438,0.4537*
1,1,0.5625,0.3438,-0.4537*
1,1,0.5625,-0.3438,-0.4537*
%
%ADD46ROUNDEDRECTD46*%
G04:AMPARAMS|DCode=47|XSize=0.55mm|YSize=0.58mm|CornerRadius=0.1403mm|HoleSize=0mm|Usage=FLASHONLY|Rotation=270.000|XOffset=0mm|YOffset=0mm|HoleType=Round|Shape=RoundedRectangle|*
%AMROUNDEDRECTD47*
21,1,0.5500,0.2995,0,0,270.0*
21,1,0.2695,0.5800,0,0,270.0*
1,1,0.2805,-0.1498,-0.1348*
1,1,0.2805,-0.1498,0.1348*
1,1,0.2805,0.1498,0.1348*
1,1,0.2805,0.1498,-0.1348*
%
%ADD47ROUNDEDRECTD47*%
G04:AMPARAMS|DCode=48|XSize=0.87mm|YSize=0.97mm|CornerRadius=0.2218mm|HoleSize=0mm|Usage=FLASHONLY|Rotation=180.000|XOffset=0mm|YOffset=0mm|HoleType=Round|Shape=RoundedRectangle|*
%AMROUNDEDRECTD48*
21,1,0.8700,0.5263,0,0,180.0*
21,1,0.4263,0.9700,0,0,180.0*
1,1,0.4437,-0.2132,0.2632*
1,1,0.4437,0.2132,0.2632*
1,1,0.4437,0.2132,-0.2632*
1,1,0.4437,-0.2132,-0.2632*
%
%ADD48ROUNDEDRECTD48*%
G04:AMPARAMS|DCode=81|XSize=1.3mm|YSize=1.5mm|CornerRadius=0.052mm|HoleSize=0mm|Usage=FLASHONLY|Rotation=90.000|XOffset=0mm|YOffset=0mm|HoleType=Round|Shape=RoundedRectangle|*
%AMROUNDEDRECTD81*
21,1,1.3000,1.3960,0,0,90.0*
21,1,1.1960,1.5000,0,0,90.0*
1,1,0.1040,0.6980,0.5980*
1,1,0.1040,0.6980,-0.5980*
1,1,0.1040,-0.6980,-0.5980*
1,1,0.1040,-0.6980,0.5980*
%
%ADD81ROUNDEDRECTD81*%
%ADD82C,1.0000*%
G04:AMPARAMS|DCode=83|XSize=1.3mm|YSize=1mm|CornerRadius=0.25mm|HoleSize=0mm|Usage=FLASHONLY|Rotation=180.000|XOffset=0mm|YOffset=0mm|HoleType=Round|Shape=RoundedRectangle|*
%AMROUNDEDRECTD83*
21,1,1.3000,0.5000,0,0,180.0*
21,1,0.8000,1.0000,0,0,180.0*
1,1,0.5000,-0.4000,0.2500*
1,1,0.5000,0.4000,0.2500*
1,1,0.5000,0.4000,-0.2500*
1,1,0.5000,-0.4000,-0.2500*
%
%ADD83ROUNDEDRECTD83*%
%ADD84C,0.1270*%
%ADD85C,0.1080*%
%ADD86C,0.3000*%
%ADD87C,0.2000*%
%ADD88C,0.4000*%
%ADD89C,0.2100*%
%ADD90C,0.5000*%
%ADD91O,1.5240X3.0480*%
%ADD92C,0.7000*%
%ADD93C,1.6510*%
%ADD94C,0.4000*%
G36*
X333047Y165100D02*
X333378Y162589D01*
X333969Y161161D01*
X333118Y159113D01*
X332904Y158916D01*
X332868Y158890D01*
X331572Y158024D01*
X330688Y156701D01*
X330378Y155140D01*
X330688Y153579D01*
X331572Y152256D01*
X332896Y151372D01*
X334456Y151062D01*
X335715Y149546D01*
Y137952D01*
X335648D01*
X334622Y137748D01*
X333872Y137422D01*
X332912Y137828D01*
X332225Y138368D01*
X332234Y138411D01*
X331923Y139972D01*
X331039Y141295D01*
X329716Y142179D01*
X328155Y142490D01*
X326595Y142179D01*
X325271Y141295D01*
X324387Y139972D01*
X324188Y138969D01*
X322774Y137995D01*
X322160Y137799D01*
X321389Y137952D01*
X321131D01*
X319556Y138016D01*
X319246Y139577D01*
X318362Y140900D01*
X317039Y141784D01*
X315478Y142095D01*
X313917Y141784D01*
X313273Y141354D01*
X311149Y140934D01*
X309825Y141818D01*
X308265Y142128D01*
X306704Y141818D01*
X305381Y140934D01*
X304497Y139611D01*
X304403Y139141D01*
X302364D01*
X302271Y139611D01*
X301387Y140934D01*
X300064Y141818D01*
X298503Y142128D01*
X296942Y141818D01*
X295619Y140934D01*
X295014Y140028D01*
X293420Y139750D01*
X292746Y139822D01*
X291423Y140706D01*
X289862Y141016D01*
X288302Y140706D01*
X286979Y139822D01*
X285431Y140548D01*
X283871Y140858D01*
X282310Y140548D01*
X280987Y139664D01*
X280103Y138341D01*
X280067Y138161D01*
X277897Y137503D01*
X276078Y139322D01*
X276101Y139549D01*
X276853Y140675D01*
X277117Y142002D01*
Y144998D01*
X276853Y146325D01*
X276101Y147451D01*
X274975Y148202D01*
X273647Y148467D01*
X270952D01*
X269625Y148202D01*
X268500Y147451D01*
X266600D01*
X265475Y148202D01*
X264147Y148467D01*
X261453D01*
X260125Y148202D01*
X259000Y147451D01*
X258248Y146325D01*
X258070Y145431D01*
X256030D01*
X255853Y146325D01*
X255101Y147451D01*
X253975Y148202D01*
X252647Y148467D01*
X249953D01*
X248625Y148202D01*
X247500Y147451D01*
X245600D01*
X244475Y148202D01*
X243148Y148467D01*
X240452D01*
X239125Y148202D01*
X237999Y147451D01*
X237248Y146325D01*
X237243Y146304D01*
X236004D01*
X234931Y146090D01*
X234022Y145483D01*
X232272Y143733D01*
X231665Y142824D01*
X231451Y141751D01*
Y137476D01*
X231371Y137422D01*
X230487Y136099D01*
X230177Y134538D01*
X230487Y132978D01*
X231371Y131655D01*
X232694Y130771D01*
X234255Y130460D01*
X235135Y130635D01*
X235527Y130713D01*
X236529Y129774D01*
X235504Y127994D01*
X225840D01*
X224317Y129598D01*
X224452Y131519D01*
X225336Y132842D01*
X225646Y134403D01*
X225336Y135964D01*
X224452Y137287D01*
X223129Y138171D01*
X221568Y138481D01*
X220007Y138171D01*
X218684Y137287D01*
X217800Y135964D01*
X217490Y134403D01*
X217765Y133019D01*
X217726Y132729D01*
X216613Y131019D01*
X205604D01*
X204531Y130805D01*
X202298Y131329D01*
X200975Y132213D01*
X199414Y132524D01*
X199320Y132601D01*
Y135661D01*
X200433Y136774D01*
X200433Y136774D01*
X201096Y137766D01*
X201329Y138937D01*
X201329Y138937D01*
Y139736D01*
X202441Y140479D01*
X203216Y141639D01*
X203489Y143008D01*
Y145792D01*
X203216Y147161D01*
X202441Y148321D01*
X201281Y149096D01*
X199912Y149369D01*
X196628D01*
X195259Y149096D01*
X194300Y148456D01*
X194130Y148710D01*
X192791Y149605D01*
X191212Y149919D01*
X190840D01*
Y144400D01*
X188300D01*
Y149919D01*
X187928D01*
X186348Y149605D01*
X185010Y148710D01*
X184973Y148655D01*
X182567D01*
X182530Y148710D01*
X181192Y149605D01*
X179612Y149919D01*
X179240D01*
Y144400D01*
X176700D01*
Y149919D01*
X176328D01*
X174749Y149605D01*
X173410Y148710D01*
X173239Y148456D01*
X172281Y149096D01*
X170912Y149369D01*
X167628D01*
X166259Y149096D01*
X165099Y148321D01*
X164324Y147161D01*
X164051Y145792D01*
Y143008D01*
X164324Y141639D01*
X165099Y140479D01*
X166211Y139736D01*
Y138913D01*
X166211Y138913D01*
X166444Y137742D01*
X167107Y136750D01*
X168220Y135637D01*
Y129250D01*
X176884D01*
X177175Y128750D01*
X176026Y126750D01*
X168220D01*
Y119250D01*
X168220D01*
X168123Y117290D01*
X167680D01*
Y111414D01*
X166502Y110627D01*
X165988Y109859D01*
X163892Y109650D01*
X162355Y111186D01*
Y124408D01*
X162151Y125437D01*
X161569Y126308D01*
X158678Y129198D01*
X157807Y129781D01*
X156779Y129985D01*
X149699D01*
X148671Y129781D01*
X147799Y129198D01*
X146800Y128200D01*
X146218Y127328D01*
X144298Y126753D01*
X143926D01*
X142554Y128232D01*
X142399Y128652D01*
X142469Y129008D01*
Y129130D01*
X136700D01*
Y130400D01*
X135430D01*
Y135919D01*
X135058D01*
X133478Y135605D01*
X132140Y134710D01*
X131969Y134456D01*
X131011Y135097D01*
X129642Y135369D01*
X126358D01*
X124989Y135097D01*
X123829Y134321D01*
X123253Y133459D01*
X120146D01*
X119551Y134351D01*
X118425Y135103D01*
X117098Y135367D01*
X114403D01*
X113075Y135103D01*
X111950Y134351D01*
X111661D01*
X109700Y134585D01*
X109054Y135016D01*
Y138184D01*
X110555Y139684D01*
X111142Y139568D01*
X112702Y139878D01*
X114025Y140762D01*
X114909Y142085D01*
X115220Y143646D01*
X114909Y145207D01*
X114025Y146530D01*
X112702Y147414D01*
X111142Y147724D01*
X109581Y147414D01*
X108258Y146530D01*
X107374Y145207D01*
X107182Y144242D01*
X104267Y141328D01*
X103660Y140418D01*
X103446Y139345D01*
Y135016D01*
X102450Y134351D01*
X101698Y133225D01*
X101433Y131897D01*
Y128903D01*
X101698Y127575D01*
X102450Y126449D01*
X101776Y124494D01*
X101554Y124161D01*
X101281Y122792D01*
Y120008D01*
X101554Y118639D01*
X102329Y117479D01*
X101999Y115294D01*
X101258Y114186D01*
X100913Y112450D01*
Y107350D01*
X101258Y105614D01*
X102242Y104142D01*
X102273Y104121D01*
X102469Y102131D01*
X97747Y97409D01*
X97139Y96499D01*
X96925Y95426D01*
Y78724D01*
X91432Y73230D01*
X91337Y73249D01*
X89776Y72938D01*
X88453Y72054D01*
X87569Y70731D01*
X87259Y69171D01*
X87498Y67967D01*
X86803Y66647D01*
X86261Y65967D01*
X84502D01*
X82964Y65661D01*
X81660Y64790D01*
X81187Y64082D01*
X79086Y64395D01*
X78969Y64981D01*
X78131Y66234D01*
X76878Y67072D01*
X75399Y67366D01*
X74620D01*
Y62251D01*
X72080D01*
Y67366D01*
X71301D01*
X69822Y67072D01*
X68568Y66234D01*
X67730Y64981D01*
X67436Y63502D01*
Y62519D01*
X65436Y61449D01*
X65268Y61562D01*
X63999Y61814D01*
X59901D01*
X58633Y61562D01*
X57558Y60844D01*
X57200Y60309D01*
X53722D01*
X53722Y60309D01*
X52551Y60076D01*
X51559Y59413D01*
X51559Y59413D01*
X49078Y56932D01*
X48896Y56660D01*
X46896Y57267D01*
Y63590D01*
X46511Y65525D01*
X45415Y67166D01*
X43774Y68262D01*
X41839Y68647D01*
X31759D01*
X29824Y68262D01*
X28183Y67166D01*
X27087Y65525D01*
X26702Y63590D01*
Y56329D01*
X25960D01*
X24594Y56057D01*
X23437Y55283D01*
X22882Y54728D01*
X20882Y55379D01*
Y57380D01*
X20554Y59027D01*
X19621Y60422D01*
X18226Y61355D01*
X16579Y61683D01*
X16368D01*
Y65310D01*
X17209D01*
X19000Y65666D01*
X20518Y66681D01*
X21533Y68199D01*
X21889Y69990D01*
Y83810D01*
X21533Y85601D01*
X20518Y87119D01*
X19516Y87789D01*
X19405Y88192D01*
Y89608D01*
X19516Y90011D01*
X20518Y90681D01*
X21533Y92199D01*
X21889Y93990D01*
Y107810D01*
X21533Y109601D01*
X20518Y111119D01*
X19000Y112134D01*
X17209Y112490D01*
X16368D01*
Y116117D01*
X16579D01*
X18226Y116445D01*
X19621Y117378D01*
X20554Y118773D01*
X20882Y120420D01*
Y120448D01*
X26702D01*
Y114210D01*
X27087Y112275D01*
X28183Y110634D01*
X29824Y109538D01*
X31759Y109153D01*
X41839D01*
X43774Y109538D01*
X45415Y110634D01*
X45513Y110781D01*
X66731D01*
X69180Y108331D01*
X69076Y107273D01*
X68302Y106115D01*
X68031Y104748D01*
Y98652D01*
X68302Y97285D01*
X69076Y96127D01*
X70234Y95353D01*
X71601Y95081D01*
X78698D01*
X80064Y95353D01*
X81222Y96127D01*
X81996Y97285D01*
X82268Y98652D01*
Y104748D01*
X81996Y106115D01*
X81222Y107273D01*
X80064Y108047D01*
X79737Y108112D01*
Y108851D01*
X79388Y110607D01*
X78393Y112095D01*
X73063Y117425D01*
X73906Y119411D01*
X74880D01*
Y129400D01*
X76150D01*
Y130670D01*
X84339D01*
Y134253D01*
X83948Y136218D01*
X82834Y137884D01*
X81168Y138998D01*
X79202Y139389D01*
X78547D01*
X77461Y141364D01*
X77767Y142902D01*
Y143130D01*
X72400D01*
Y144400D01*
X71130D01*
Y149917D01*
X71052D01*
X69514Y149611D01*
X68210Y148740D01*
X65901Y148884D01*
X65575Y149102D01*
X64247Y149367D01*
X61553D01*
X60225Y149102D01*
X59099Y148351D01*
X58347Y147225D01*
X58083Y145898D01*
Y143977D01*
X56987Y142881D01*
X56324Y141888D01*
X56091Y140718D01*
X56086Y139369D01*
X54400Y138876D01*
X53123Y140065D01*
X53200Y140449D01*
X53952Y141575D01*
X54216Y142902D01*
Y145898D01*
X53952Y147225D01*
X53200Y148351D01*
X52074Y149102D01*
X50746Y149367D01*
X48052D01*
X46724Y149102D01*
X45599Y148351D01*
X43700D01*
X42574Y149102D01*
X41247Y149367D01*
X38551D01*
X37224Y149102D01*
X36098Y148351D01*
X36011Y148219D01*
X33888Y148642D01*
X33887Y148643D01*
X32928Y150079D01*
X31492Y151038D01*
X29799Y151375D01*
X29269D01*
Y144400D01*
X26729D01*
Y151375D01*
X26199D01*
X24506Y151038D01*
X23070Y150079D01*
X22111Y148643D01*
X21774Y146950D01*
Y146384D01*
X19774Y145254D01*
X19226Y145584D01*
X19174Y145676D01*
Y146950D01*
X18879Y148433D01*
X18039Y149690D01*
X16782Y150529D01*
X15299Y150824D01*
X11699D01*
X10216Y150529D01*
X8959Y149690D01*
X8120Y148433D01*
X7825Y146950D01*
Y141850D01*
X8120Y140367D01*
X8370Y139993D01*
X7595Y137800D01*
X7372Y137755D01*
X5977Y136822D01*
X5044Y135427D01*
X3059Y135698D01*
Y155913D01*
X5059Y156741D01*
X5275Y156525D01*
X5525Y156358D01*
X5738Y156145D01*
X7090Y155241D01*
X7369Y155126D01*
X7619Y154959D01*
X9122Y154336D01*
X9417Y154277D01*
X9695Y154162D01*
X11290Y153845D01*
X11592D01*
X11887Y153786D01*
X13513D01*
X13808Y153845D01*
X14110D01*
X15705Y154162D01*
X15983Y154277D01*
X16278Y154336D01*
X17781Y154959D01*
X18031Y155126D01*
X18310Y155241D01*
X19662Y156145D01*
X19875Y156358D01*
X20125Y156525D01*
X21275Y157675D01*
X21442Y157925D01*
X21655Y158138D01*
X22559Y159490D01*
X22674Y159769D01*
X22841Y160019D01*
X23464Y161521D01*
X23523Y161817D01*
X23638Y162095D01*
X23955Y163690D01*
Y163992D01*
X24014Y164287D01*
Y165913D01*
X23955Y166208D01*
Y166510D01*
X23638Y168105D01*
X23523Y168383D01*
X23464Y168678D01*
X22841Y170181D01*
X22674Y170431D01*
X22559Y170710D01*
X21655Y172062D01*
X21442Y172275D01*
X21275Y172525D01*
X21059Y172741D01*
X21887Y174741D01*
X28397D01*
Y165100D01*
X28728Y162589D01*
X29697Y160249D01*
X31239Y158239D01*
X33249Y156697D01*
X35589Y155728D01*
X38100Y155397D01*
X40611Y155728D01*
X42951Y156697D01*
X44961Y158239D01*
X46503Y160249D01*
X47472Y162589D01*
X47803Y165100D01*
Y174741D01*
X53797D01*
Y165100D01*
X54128Y162589D01*
X55097Y160249D01*
X56639Y158239D01*
X58649Y156697D01*
X60989Y155728D01*
X63500Y155397D01*
X66011Y155728D01*
X68351Y156697D01*
X70361Y158239D01*
X71903Y160249D01*
X72872Y162589D01*
X73203Y165100D01*
Y174741D01*
X79047D01*
Y165100D01*
X79378Y162589D01*
X80347Y160249D01*
X81889Y158239D01*
X83898Y156697D01*
X86239Y155728D01*
X88750Y155397D01*
X91261Y155728D01*
X93602Y156697D01*
X95611Y158239D01*
X97153Y160249D01*
X98122Y162589D01*
X98453Y165100D01*
Y174741D01*
X104447D01*
Y165100D01*
X104778Y162589D01*
X105747Y160249D01*
X107289Y158239D01*
X109298Y156697D01*
X111639Y155728D01*
X114150Y155397D01*
X116661Y155728D01*
X119002Y156697D01*
X121011Y158239D01*
X122553Y160249D01*
X123522Y162589D01*
X123853Y165100D01*
Y174741D01*
X129847D01*
Y165100D01*
X130178Y162589D01*
X131147Y160249D01*
X132689Y158239D01*
X134698Y156697D01*
X137039Y155728D01*
X139550Y155397D01*
X142061Y155728D01*
X144402Y156697D01*
X146411Y158239D01*
X147953Y160249D01*
X148922Y162589D01*
X149253Y165100D01*
Y174741D01*
X155247D01*
Y165100D01*
X155578Y162589D01*
X156547Y160249D01*
X158089Y158239D01*
X160098Y156697D01*
X162439Y155728D01*
X164950Y155397D01*
X167461Y155728D01*
X169802Y156697D01*
X171811Y158239D01*
X173353Y160249D01*
X174322Y162589D01*
X174653Y165100D01*
Y174741D01*
X180647D01*
Y165100D01*
X180978Y162589D01*
X181947Y160249D01*
X183489Y158239D01*
X185499Y156697D01*
X187839Y155728D01*
X190350Y155397D01*
X192861Y155728D01*
X195201Y156697D01*
X197211Y158239D01*
X198753Y160249D01*
X199722Y162589D01*
X200053Y165100D01*
Y174741D01*
X206047D01*
Y165100D01*
X206378Y162589D01*
X207347Y160249D01*
X208889Y158239D01*
X210898Y156697D01*
X213239Y155728D01*
X215750Y155397D01*
X218261Y155728D01*
X220602Y156697D01*
X222611Y158239D01*
X224153Y160249D01*
X225122Y162589D01*
X225453Y165100D01*
Y174741D01*
X231447D01*
Y165100D01*
X231778Y162589D01*
X232747Y160249D01*
X234289Y158239D01*
X236299Y156697D01*
X238639Y155728D01*
X241150Y155397D01*
X243661Y155728D01*
X246001Y156697D01*
X248011Y158239D01*
X249553Y160249D01*
X250522Y162589D01*
X250853Y165100D01*
Y174741D01*
X256847D01*
Y165100D01*
X257178Y162589D01*
X258147Y160249D01*
X259689Y158239D01*
X261698Y156697D01*
X264039Y155728D01*
X266550Y155397D01*
X269061Y155728D01*
X271402Y156697D01*
X273411Y158239D01*
X274953Y160249D01*
X275922Y162589D01*
X276253Y165100D01*
Y174741D01*
X282247D01*
Y165100D01*
X282578Y162589D01*
X283547Y160249D01*
X285089Y158239D01*
X287099Y156697D01*
X289439Y155728D01*
X291950Y155397D01*
X294461Y155728D01*
X296801Y156697D01*
X298811Y158239D01*
X300353Y160249D01*
X301322Y162589D01*
X301653Y165100D01*
Y174741D01*
X307102D01*
Y173990D01*
X317350D01*
X327598D01*
Y174741D01*
X333047D01*
Y165100D01*
D02*
G37*
G36*
X383847D02*
X384178Y162589D01*
X385147Y160249D01*
X386689Y158239D01*
X388699Y156697D01*
X391039Y155728D01*
X393550Y155397D01*
X394062Y155464D01*
X394785Y153542D01*
X393625Y152767D01*
X392233Y151375D01*
X391138Y149737D01*
X390384Y147917D01*
X390075Y146363D01*
X389086Y145645D01*
X388000Y145240D01*
X387310Y145631D01*
X387234Y146011D01*
X386350Y147334D01*
X385027Y148218D01*
X383467Y148529D01*
X381906Y148218D01*
X381794Y148144D01*
X379994Y149346D01*
X380115Y149953D01*
X379804Y151514D01*
X378920Y152837D01*
X377597Y153721D01*
X376036Y154032D01*
X374475Y153721D01*
X373414Y153012D01*
X363568D01*
X362992Y153874D01*
X360684Y156182D01*
X362006Y157689D01*
X363298Y156697D01*
X365639Y155728D01*
X368150Y155397D01*
X370661Y155728D01*
X373002Y156697D01*
X375011Y158239D01*
X376553Y160249D01*
X377522Y162589D01*
X377853Y165100D01*
Y174741D01*
X383847D01*
Y165100D01*
D02*
G37*
G36*
X410741Y172741D02*
X410525Y172525D01*
X410358Y172275D01*
X410145Y172062D01*
X409241Y170710D01*
X409126Y170431D01*
X408959Y170181D01*
X408336Y168678D01*
X408278Y168383D01*
X408162Y168105D01*
X407845Y166510D01*
Y166208D01*
X407786Y165913D01*
Y164287D01*
X407845Y163992D01*
Y163690D01*
X408162Y162095D01*
X408278Y161817D01*
X408336Y161521D01*
X408959Y160019D01*
X409126Y159769D01*
X409241Y159490D01*
X410145Y158138D01*
X410358Y157925D01*
X410525Y157675D01*
X411675Y156525D01*
X411925Y156358D01*
X412138Y156145D01*
X412233Y156081D01*
X412233Y153676D01*
X412225Y153670D01*
X411341Y152347D01*
X411031Y150787D01*
X411341Y149226D01*
X412225Y147903D01*
X413548Y147019D01*
X415109Y146708D01*
X416439Y145617D01*
Y142935D01*
X416788Y141180D01*
X417782Y139691D01*
X419271Y138696D01*
X421027Y138347D01*
X428741D01*
Y136328D01*
X408299D01*
X407471Y138329D01*
X407767Y138625D01*
X408862Y140263D01*
X409616Y142083D01*
X410000Y144015D01*
Y145985D01*
X409616Y147917D01*
X408862Y149737D01*
X407767Y151375D01*
X406375Y152767D01*
X404737Y153862D01*
X402917Y154616D01*
X400985Y155000D01*
X399318D01*
X398967Y155649D01*
X398882Y155879D01*
X398721Y156942D01*
X400411Y158239D01*
X401953Y160249D01*
X402922Y162589D01*
X403253Y165100D01*
Y174741D01*
X409913D01*
X410741Y172741D01*
D02*
G37*
G36*
X121931Y83933D02*
Y79109D01*
X121732Y78811D01*
X121422Y77250D01*
X121732Y75689D01*
X122616Y74366D01*
X123939Y73482D01*
X125500Y73172D01*
X127061Y73482D01*
X128384Y74366D01*
X129268Y75689D01*
X129578Y77250D01*
X129268Y78811D01*
X129068Y79109D01*
Y82024D01*
X129717Y82473D01*
X131717Y81425D01*
Y78868D01*
X132086Y77012D01*
X132339Y76634D01*
X132993Y75100D01*
X132339Y73566D01*
X132086Y73188D01*
X131717Y71332D01*
Y69970D01*
X138700D01*
Y67430D01*
X131717D01*
Y66069D01*
X132086Y64212D01*
X133138Y62638D01*
X133659Y62290D01*
X133052Y60290D01*
X129400D01*
X129400Y60290D01*
X129400Y60290D01*
X128920Y60194D01*
X128409Y60093D01*
X127262Y61462D01*
X125688Y62514D01*
X123832Y62883D01*
X123125D01*
X121545Y64883D01*
X121638Y65350D01*
Y66630D01*
X111000D01*
Y67900D01*
X109730D01*
Y75538D01*
X105450D01*
X103880Y75226D01*
X102934Y75992D01*
X102383Y76807D01*
X102533Y77563D01*
Y80396D01*
X104533Y81225D01*
X104625Y81132D01*
X106263Y80038D01*
X108083Y79284D01*
X110015Y78900D01*
X111985D01*
X113917Y79284D01*
X115737Y80038D01*
X117375Y81132D01*
X118767Y82525D01*
X119862Y84163D01*
X119931Y84331D01*
X121931Y83933D01*
D02*
G37*
G36*
X274300Y77809D02*
X271300Y74809D01*
X246300D01*
Y112809D01*
X274300D01*
Y77809D01*
D02*
G37*
G36*
X368684Y100717D02*
Y98811D01*
X368897Y97738D01*
X369505Y96829D01*
X374422Y91912D01*
Y84410D01*
X372647Y82635D01*
X372039Y81725D01*
X371825Y80652D01*
Y70935D01*
X371358Y70582D01*
X369825Y70049D01*
X368941Y70640D01*
X367380Y70950D01*
X366871Y71368D01*
Y74520D01*
X366625Y75757D01*
X366486Y75965D01*
X366088Y77399D01*
X366485Y78836D01*
X366623Y79043D01*
X366869Y80280D01*
Y81880D01*
X360767D01*
Y84420D01*
X366869D01*
Y86020D01*
X366623Y87257D01*
X366484Y87465D01*
X366087Y88900D01*
X366484Y90336D01*
X366623Y90543D01*
X366869Y91780D01*
Y93380D01*
X360767D01*
Y95920D01*
X366869D01*
Y97520D01*
X366623Y98757D01*
X366333Y99191D01*
X365986Y100722D01*
X366684Y101490D01*
X368684Y100717D01*
D02*
G37*
G36*
X80341Y31045D02*
X80878Y30241D01*
X82201Y29357D01*
X83762Y29046D01*
X83856Y29065D01*
X88553Y24369D01*
X87814Y22280D01*
X86239Y22072D01*
X83898Y21103D01*
X81889Y19561D01*
X80347Y17551D01*
X79378Y15211D01*
X79047Y12700D01*
Y4245D01*
X73203D01*
Y12700D01*
X72872Y15211D01*
X71903Y17551D01*
X70361Y19561D01*
X70113Y19751D01*
X70496Y21867D01*
X71819Y22751D01*
X72703Y24074D01*
X73014Y25635D01*
X72995Y25729D01*
X77767Y30501D01*
X78125Y31036D01*
X78546Y31155D01*
X79531Y31196D01*
X80341Y31045D01*
D02*
G37*
G36*
X5977Y40978D02*
X7272Y40112D01*
X7385Y40010D01*
X8164Y37848D01*
X8120Y37783D01*
X7825Y36300D01*
Y31200D01*
X8120Y29717D01*
X8960Y28460D01*
X10217Y27620D01*
X11700Y27325D01*
X15300D01*
X16496Y27564D01*
X19782Y24278D01*
X20691Y23670D01*
X21764Y23457D01*
X32229D01*
X33302Y23670D01*
X34212Y24278D01*
X38717Y28783D01*
X41247D01*
X42574Y29047D01*
X43700Y29799D01*
X45599D01*
X46724Y29047D01*
X48052Y28783D01*
X49584D01*
X56793Y21574D01*
X56662Y19579D01*
X56639Y19561D01*
X55097Y17551D01*
X54128Y15211D01*
X53797Y12700D01*
Y4245D01*
X47803D01*
Y12700D01*
X47472Y15211D01*
X46503Y17551D01*
X44961Y19561D01*
X42951Y21103D01*
X40611Y22072D01*
X38100Y22403D01*
X35589Y22072D01*
X33249Y21103D01*
X31239Y19561D01*
X29697Y17551D01*
X28728Y15211D01*
X28397Y12700D01*
Y4245D01*
X22992D01*
X22986Y4251D01*
X22569Y4716D01*
X21994Y6245D01*
X22559Y7090D01*
X22674Y7369D01*
X22841Y7619D01*
X23464Y9122D01*
X23523Y9417D01*
X23638Y9695D01*
X23955Y11290D01*
Y11592D01*
X24014Y11887D01*
Y13513D01*
X23955Y13808D01*
Y14110D01*
X23638Y15705D01*
X23523Y15983D01*
X23464Y16278D01*
X22841Y17781D01*
X22674Y18031D01*
X22559Y18310D01*
X21655Y19662D01*
X21442Y19875D01*
X21275Y20125D01*
X20125Y21275D01*
X19875Y21442D01*
X19662Y21655D01*
X18310Y22559D01*
X18031Y22674D01*
X17781Y22841D01*
X16278Y23464D01*
X15983Y23523D01*
X15705Y23638D01*
X14110Y23955D01*
X13808D01*
X13513Y24014D01*
X11887D01*
X11592Y23955D01*
X11290D01*
X9695Y23638D01*
X9417Y23523D01*
X9122Y23464D01*
X7619Y22841D01*
X7369Y22674D01*
X7090Y22559D01*
X5738Y21655D01*
X5525Y21442D01*
X5275Y21275D01*
X5059Y21059D01*
X3059Y21887D01*
Y42102D01*
X5044Y42373D01*
X5977Y40978D01*
D02*
G37*
%LPC*%
G36*
X327598Y171450D02*
X318620D01*
Y155020D01*
X320002Y155202D01*
X322474Y156225D01*
X324596Y157854D01*
X326225Y159976D01*
X327248Y162448D01*
X327598Y165100D01*
Y171450D01*
D02*
G37*
G36*
X316080D02*
X307102D01*
Y165100D01*
X307451Y162448D01*
X308475Y159976D01*
X310104Y157854D01*
X312226Y156225D01*
X314698Y155202D01*
X316080Y155020D01*
Y171450D01*
D02*
G37*
G36*
X73748Y149917D02*
X73670D01*
Y145670D01*
X77767D01*
Y145898D01*
X77461Y147436D01*
X76590Y148740D01*
X75286Y149611D01*
X73748Y149917D01*
D02*
G37*
G36*
X152158Y146905D02*
X150597Y146595D01*
X149274Y145711D01*
X148390Y144388D01*
X148080Y142827D01*
X148390Y141266D01*
X149274Y139943D01*
X150597Y139059D01*
X152158Y138749D01*
X153719Y139059D01*
X155042Y139943D01*
X155926Y141266D01*
X156236Y142827D01*
X155926Y144388D01*
X155042Y145711D01*
X153719Y146595D01*
X152158Y146905D01*
D02*
G37*
G36*
X122051Y146032D02*
X120491Y145722D01*
X119167Y144838D01*
X118283Y143515D01*
X117973Y141954D01*
X118283Y140393D01*
X119167Y139070D01*
X120491Y138186D01*
X122051Y137875D01*
X123612Y138186D01*
X124935Y139070D01*
X125819Y140393D01*
X126130Y141954D01*
X125819Y143515D01*
X124935Y144838D01*
X123612Y145722D01*
X122051Y146032D01*
D02*
G37*
G36*
X138342Y135919D02*
X137970D01*
Y131670D01*
X142469D01*
Y131792D01*
X142155Y133371D01*
X141260Y134710D01*
X139921Y135605D01*
X138342Y135919D01*
D02*
G37*
G36*
X84339Y128130D02*
X77420D01*
Y119411D01*
X79202D01*
X81168Y119802D01*
X82834Y120916D01*
X83948Y122582D01*
X84339Y124548D01*
Y128130D01*
D02*
G37*
G36*
X59705Y108318D02*
X56594D01*
X55230Y108047D01*
X54074Y107275D01*
X53302Y106119D01*
X53031Y104755D01*
Y100020D01*
X51985Y99120D01*
X51358Y98688D01*
X49899Y98978D01*
X48338Y98668D01*
X46255Y99682D01*
X45902Y100424D01*
X45903Y100441D01*
X46006Y100956D01*
Y102844D01*
X45780Y103977D01*
X45138Y104939D01*
X44177Y105581D01*
X43043Y105807D01*
X33756D01*
X32622Y105581D01*
X32430Y105454D01*
X31221D01*
X30944Y105638D01*
X29384Y105949D01*
X27823Y105638D01*
X26500Y104754D01*
X25616Y103431D01*
X25305Y101870D01*
X25616Y100309D01*
X26500Y98986D01*
X27823Y98102D01*
X29054Y97858D01*
X29792Y97372D01*
X29996Y97162D01*
X30792Y96033D01*
Y94457D01*
X31018Y93322D01*
X31562Y92150D01*
X31018Y90977D01*
X30792Y89844D01*
Y87956D01*
X31018Y86823D01*
X31660Y85861D01*
Y85439D01*
X31018Y84478D01*
X30792Y83343D01*
Y81456D01*
X31018Y80322D01*
X31555Y79518D01*
X31271Y79328D01*
X30509Y78188D01*
X30306Y77170D01*
X38399D01*
X46492D01*
X46289Y78188D01*
X45527Y79328D01*
X45243Y79518D01*
X45780Y80322D01*
X46006Y81456D01*
Y83343D01*
X45903Y83862D01*
X46161Y84749D01*
X48338Y85632D01*
X49899Y85322D01*
X51358Y85612D01*
X51985Y85180D01*
X53031Y84280D01*
Y79545D01*
X53302Y78181D01*
X54074Y77025D01*
X55230Y76253D01*
X56594Y75981D01*
X59705D01*
X61068Y76253D01*
X62224Y77025D01*
X62996Y78181D01*
X63267Y79545D01*
Y85655D01*
X62996Y87019D01*
X62224Y88175D01*
X61068Y88947D01*
X59705Y89218D01*
X57428D01*
X55809Y90838D01*
X55367Y92150D01*
X55809Y93462D01*
X57428Y95082D01*
X59705D01*
X61068Y95353D01*
X62224Y96125D01*
X62996Y97281D01*
X63267Y98645D01*
Y104755D01*
X62996Y106119D01*
X62224Y107275D01*
X61068Y108047D01*
X59705Y108318D01*
D02*
G37*
G36*
X46492Y74630D02*
X39669D01*
Y71442D01*
X43043D01*
X44387Y71710D01*
X45527Y72472D01*
X46289Y73612D01*
X46492Y74630D01*
D02*
G37*
G36*
X37129D02*
X30306D01*
X30509Y73612D01*
X31271Y72472D01*
X32411Y71710D01*
X33756Y71442D01*
X37129D01*
Y74630D01*
D02*
G37*
G36*
X78705Y89218D02*
X75594D01*
X74230Y88947D01*
X73074Y88175D01*
X72302Y87019D01*
X72031Y85655D01*
Y79545D01*
X72302Y78181D01*
X73074Y77025D01*
X73494Y75940D01*
X73183Y74379D01*
X73494Y72819D01*
X74378Y71495D01*
X75701Y70611D01*
X77262Y70301D01*
X78823Y70611D01*
X80146Y71495D01*
X81030Y72819D01*
X81340Y74379D01*
X81030Y75940D01*
X81224Y77025D01*
X81996Y78181D01*
X82268Y79545D01*
Y85655D01*
X81996Y87019D01*
X81224Y88175D01*
X80068Y88947D01*
X78705Y89218D01*
D02*
G37*
G36*
X116550Y75538D02*
X112270D01*
Y69170D01*
X121638D01*
Y70450D01*
X121250Y72397D01*
X120148Y74048D01*
X118497Y75150D01*
X116550Y75538D01*
D02*
G37*
G36*
X266800Y109309D02*
X253800D01*
X253538Y109300D01*
X253020Y109232D01*
X252514Y109096D01*
X252031Y108896D01*
X251578Y108635D01*
X251163Y108316D01*
X250793Y107946D01*
X250474Y107531D01*
X250212Y107078D01*
X250012Y106594D01*
X249877Y106089D01*
X249809Y105570D01*
X249800Y105309D01*
Y82309D01*
X249809Y82047D01*
X249877Y81528D01*
X250012Y81023D01*
X250212Y80540D01*
X250474Y80086D01*
X250793Y79671D01*
X251163Y79301D01*
X251578Y78983D01*
X252031Y78721D01*
X252514Y78521D01*
X253020Y78386D01*
X253538Y78317D01*
X253800Y78309D01*
X266800D01*
X267062Y78317D01*
X267580Y78386D01*
X268086Y78521D01*
X268569Y78721D01*
X269022Y78983D01*
X269437Y79301D01*
X269807Y79671D01*
X270126Y80086D01*
X270387Y80540D01*
X270588Y81023D01*
X270723Y81528D01*
X270791Y82047D01*
X270800Y82309D01*
Y105309D01*
X270791Y105570D01*
X270723Y106089D01*
X270588Y106594D01*
X270387Y107078D01*
X270126Y107531D01*
X269807Y107946D01*
X269437Y108316D01*
X269022Y108635D01*
X268569Y108896D01*
X268086Y109096D01*
X267580Y109232D01*
X267062Y109300D01*
X266800Y109309D01*
D02*
G37*
%LPD*%
G36*
G01X129462Y55200D02*
G02X129150Y55512I0J312D01*
G01Y57387D01*
G02X129462Y57700I312J0D01*
G01X135380D01*
G01X136650Y56430D01*
G01Y55512D01*
G02X136337Y55200I-312J0D01*
G01X129462D01*
D02*
G37*
D10*
X300965Y100597D02*
X306437D01*
X299268Y98900D02*
X300965Y100597D01*
X313017Y105400D02*
X313178Y105239D01*
X322860D01*
X317699Y38726D02*
X329527D01*
X330093Y38160D01*
X298503Y130166D02*
X298519Y130150D01*
X298503Y130166D02*
Y138050D01*
X328155Y130513D02*
X328519Y130150D01*
X328155Y130513D02*
Y138411D01*
X315938Y132730D02*
Y137556D01*
X315478Y138016D02*
X315938Y137556D01*
Y132730D02*
X318519Y130150D01*
X308265Y130404D02*
X308519Y130150D01*
X308265Y130404D02*
Y138050D01*
X356074Y111529D02*
Y115456D01*
X353768Y103600D02*
Y109222D01*
X356074Y115456D02*
X357019Y116400D01*
X353768Y109222D02*
X356074Y111529D01*
X333519Y117900D02*
X335019Y116400D01*
X333519Y117900D02*
Y121491D01*
X341769Y120650D02*
Y120875D01*
Y120650D02*
X346019Y116400D01*
X368518Y130150D02*
Y141491D01*
X346093Y61474D02*
Y70157D01*
X346019Y61400D02*
X346093Y61474D01*
X378518Y130150D02*
X379822Y131453D01*
Y139284D01*
X347649Y33124D02*
X347675Y33149D01*
Y38375D01*
X347700Y38400D01*
X337976Y32126D02*
X338974Y33124D01*
X309505Y36629D02*
X315602D01*
X305299Y31479D02*
X307231Y33411D01*
Y34355D01*
X309505Y36629D01*
X315602D02*
X317699Y38726D01*
X387702Y68967D02*
X387769Y68900D01*
X378954Y68967D02*
X387702D01*
X350815Y67604D02*
Y74410D01*
Y67604D02*
X357019Y61400D01*
X313017Y94399D02*
X318517D01*
X313519Y116902D02*
Y121491D01*
X313017Y116401D02*
X313519Y116902D01*
X323519Y116900D02*
Y121491D01*
Y116900D02*
X324019Y116400D01*
X348519Y130150D02*
Y137343D01*
X349653Y138477D02*
Y139154D01*
X348519Y137343D02*
X349653Y138477D01*
X313017Y61399D02*
X319974Y68356D01*
Y68883D01*
X332899Y63520D02*
Y66707D01*
Y63520D02*
X335019Y61400D01*
X331525Y73597D02*
X331950Y73172D01*
Y67656D02*
Y73172D01*
Y67656D02*
X332899Y66707D01*
X331525Y73597D02*
Y75836D01*
X331046Y76314D02*
X331525Y75836D01*
X324019Y61400D02*
Y67054D01*
X287018Y128900D02*
Y133916D01*
X289862Y136761D01*
Y136938D01*
X334456Y155140D02*
X334686D01*
X338519Y130150D02*
Y151307D01*
X334686Y155140D02*
X338519Y151307D01*
X368518Y47650D02*
Y49901D01*
X374458Y57088D02*
X374937Y57567D01*
X368518Y49901D02*
X374458Y55841D01*
Y57088D01*
X227503Y81667D02*
X227736Y81900D01*
X182774Y50879D02*
X183653Y50000D01*
X182774Y55066D02*
X182840Y55000D01*
X182774Y50879D02*
Y55066D01*
Y58482D02*
X182797Y58505D01*
X182774Y55066D02*
Y58482D01*
X264550Y87059D02*
Y100559D01*
X256050D02*
Y103059D01*
X253950Y105159D02*
X256050Y103059D01*
Y84559D02*
Y87059D01*
X253950Y82459D02*
X256050Y84559D01*
X219747Y81900D02*
X220036D01*
X196695Y62800D02*
X196770Y62725D01*
X218484Y125066D02*
X222540Y121010D01*
X221089Y128215D02*
X225370Y123933D01*
X232470Y115350D02*
X232967Y115847D01*
X228200Y115350D02*
X232470D01*
X237353Y115847D02*
X237450Y115750D01*
X232967Y115847D02*
X237353D01*
X286769Y69149D02*
X287018Y68900D01*
X196695Y62800D02*
X197591D01*
X198470Y63679D01*
Y68250D01*
X298519Y45400D02*
Y47650D01*
X329519Y48651D02*
Y55345D01*
X328519Y47650D02*
X329519Y48651D01*
X340519Y49651D02*
Y55345D01*
X338519Y47650D02*
X340519Y49651D01*
X251300Y143350D02*
Y143500D01*
X270450Y128950D02*
Y132816D01*
X259100Y128950D02*
X262550D01*
X255550Y132500D02*
X259100Y128950D01*
X251300Y132500D02*
X255550D01*
X251300Y132500D02*
X251300Y132500D01*
X236004Y143500D02*
X241800D01*
X241800Y127727D02*
Y132500D01*
X244027Y125500D02*
X249300D01*
X241800Y127727D02*
X244027Y125500D01*
X268614Y134653D02*
X270450Y132816D01*
X259997Y134653D02*
X268614D01*
X251300Y143350D02*
X259997Y134653D01*
X191770Y45397D02*
X196770Y50397D01*
X224233Y68248D02*
Y73147D01*
X216880Y121010D02*
X219710Y118180D01*
X216840Y121050D02*
X216880Y121010D01*
X167018Y113000D02*
X170270D01*
X164804Y110786D02*
X167018Y113000D01*
X191770Y53428D02*
Y57450D01*
Y53428D02*
X192146Y53051D01*
X201720Y56000D02*
X201970D01*
X203268Y58175D02*
X203747Y58653D01*
X203268Y57298D02*
Y58175D01*
X201970Y56000D02*
X203268Y57298D01*
X203964Y46000D02*
X204214Y45750D01*
X201720Y46000D02*
X203964D01*
X208010Y44760D02*
X208686D01*
X207020Y45750D02*
X208010Y44760D01*
X204214Y45750D02*
X207020D01*
X186820Y40063D02*
Y45000D01*
Y40063D02*
X187699Y39185D01*
X191770D01*
X185770Y32045D02*
Y37256D01*
X187699Y39185D01*
X205891Y33216D02*
Y35695D01*
X202181Y39405D02*
X205891Y35695D01*
X197085Y39405D02*
X202181D01*
X198535Y34677D02*
X199013Y35155D01*
X197762Y34677D02*
X198535D01*
X191770Y39185D02*
X196865D01*
X195130Y32045D02*
X197762Y34677D01*
X196865Y39185D02*
X197085Y39405D01*
X191770Y43550D02*
Y45397D01*
Y39185D02*
Y43550D01*
X194470Y32045D02*
X195130D01*
X258666Y58134D02*
X258700Y58100D01*
X258666Y58134D02*
Y67566D01*
X165084Y96401D02*
X170025D01*
X158992Y100791D02*
X159470Y100313D01*
X161172D02*
X165084Y96401D01*
X159470Y100313D02*
X161172D01*
X267638Y58103D02*
X267787D01*
X363513Y120906D02*
X368019Y116400D01*
X363513Y120906D02*
Y121274D01*
X379884Y64717D02*
X382770Y61831D01*
X367380Y62039D02*
X368019Y61400D01*
X367380Y62039D02*
Y66872D01*
X374629Y67282D02*
X377194Y64717D01*
X374629Y67282D02*
Y80652D01*
X377194Y64717D02*
X379884D01*
X383467Y144451D02*
X388518Y139399D01*
Y130150D02*
Y139399D01*
X374629Y80652D02*
X377226Y83249D01*
X371488Y98811D02*
Y103489D01*
X377226Y83249D02*
Y93073D01*
X371488Y98811D02*
X377226Y93073D01*
X371488Y103489D02*
X376899Y108900D01*
X387769D01*
X271251Y62650D02*
X272938Y60963D01*
X271139Y62650D02*
X271251D01*
X327450Y70485D02*
Y73452D01*
X324019Y67054D02*
X327450Y70485D01*
X325417Y75485D02*
X327450Y73452D01*
X258633Y67600D02*
X258666Y67566D01*
X262220Y64013D02*
X269776D01*
X271139Y62650D01*
X258666Y67566D02*
X262220Y64013D01*
X218125Y35659D02*
Y36841D01*
X214261Y32045D02*
X214512D01*
X218125Y36841D02*
X218603Y37320D01*
X214512Y32045D02*
X218125Y35659D01*
X292107Y38989D02*
X298519Y45400D01*
X131180Y12924D02*
X139475D01*
X139700Y12700D01*
X121277Y22828D02*
X131180Y12924D01*
X15500Y32525D02*
X21764Y26261D01*
X15500Y32525D02*
Y33750D01*
X78993Y52249D02*
X80142Y51100D01*
X86000D01*
X73350Y52249D02*
X78993D01*
X61326D02*
X73350D01*
X232123Y121010D02*
X233663Y122550D01*
X238127D01*
X237450Y115750D02*
X237788Y116088D01*
X228200Y121010D02*
X232123D01*
X237788Y116088D02*
Y122212D01*
X238127Y122550D01*
X94059Y22828D02*
X121277D01*
X83762Y33125D02*
X94059Y22828D01*
X234255Y141751D02*
X236004Y143500D01*
X234255Y134538D02*
Y141751D01*
X300070Y79702D02*
X305986D01*
X299268Y78900D02*
X300070Y79702D01*
X308607Y68199D02*
X308816D01*
X313017Y72400D01*
X263468Y44434D02*
X267638Y48603D01*
X267787D01*
X285263Y39162D02*
X285436Y38989D01*
X292107D01*
X276467Y38712D02*
X279721D01*
X272938Y50864D02*
Y60963D01*
Y50864D02*
X278703Y45099D01*
X278747D01*
X75784Y32484D02*
Y38212D01*
X82526Y44954D01*
X68935Y25635D02*
X75784Y32484D01*
X39899Y138317D02*
Y144400D01*
X37502Y135920D02*
X39899Y138317D01*
X23979Y135920D02*
X37502D01*
X125654Y101746D02*
X126000Y101400D01*
X106250Y114021D02*
X110371Y109900D01*
X275361Y37606D02*
X276467Y38712D01*
X263468Y40138D02*
Y44434D01*
X266001Y37606D02*
X275361D01*
X263468Y40138D02*
X266001Y37606D01*
X261344Y48525D02*
Y51809D01*
X267638Y58103D01*
X375945Y113411D02*
X379909Y117375D01*
X383689D02*
X384168Y116897D01*
X379909Y117375D02*
X383689D01*
X183653Y50000D02*
X186820D01*
X182840Y55000D02*
X186820D01*
X194194Y123076D02*
X194270Y123000D01*
X186076Y123076D02*
X194194D01*
X91337Y69171D02*
X99729Y77563D01*
Y95426D02*
X106049Y101746D01*
X125654D01*
X99729Y77563D02*
Y95426D01*
X52229Y40341D02*
Y43152D01*
X61326Y52249D01*
X421309Y31365D02*
X423027D01*
X416757Y26813D02*
X421309Y31365D01*
X407425Y26813D02*
X416757D01*
X15499Y144218D02*
X18269Y141448D01*
X15499Y144218D02*
Y144400D01*
X18451Y141448D02*
X23979Y135920D01*
X18269Y141448D02*
X18451D01*
X422527Y146435D02*
X423027D01*
X418176Y150787D02*
X422527Y146435D01*
X415109Y150787D02*
X418176D01*
X39718Y33750D02*
X39899D01*
X21764Y26261D02*
X32229D01*
X39718Y33750D01*
X153700Y94600D02*
Y96500D01*
X157513Y100313D01*
X158514D01*
X158992Y100791D01*
X158608Y94878D02*
X158674D01*
X176773Y73150D02*
Y77900D01*
X196770Y50397D02*
Y58450D01*
Y62725D01*
X181775Y77900D02*
X182274Y77400D01*
X184018Y62800D02*
X196695D01*
X182700Y64118D02*
X184018Y62800D01*
X176773Y73150D02*
X178532Y71391D01*
X182700Y64118D02*
Y69383D01*
X178532Y71391D02*
X180691D01*
X182274Y74050D02*
X186393Y69932D01*
X180691Y71391D02*
X182700Y69383D01*
X182274Y74050D02*
Y77400D01*
X189770Y68250D02*
Y68275D01*
X186776Y71269D02*
Y77900D01*
X186393Y69932D02*
X188113D01*
X188776D01*
X186776Y71269D02*
X188113Y69932D01*
X189770Y68275D01*
X190001Y68250D02*
X193908Y72157D01*
X189770Y68250D02*
X190001D01*
X193908Y72157D02*
Y76644D01*
X179625Y116625D02*
X186076Y123076D01*
X179625Y111373D02*
Y116625D01*
X178537Y110285D02*
X179625Y111373D01*
X176773Y106451D02*
X178537Y108215D01*
X176773Y99900D02*
Y106451D01*
X178537Y108215D02*
Y110285D01*
X181775Y99900D02*
Y106725D01*
X182787Y107737D02*
Y108414D01*
X181775Y106725D02*
X182787Y107737D01*
X185884Y108414D02*
X190470Y113000D01*
X182787Y108414D02*
X185884D01*
X187228Y100352D02*
Y104650D01*
X188318Y105740D02*
X190961D01*
X187228Y104650D02*
X188318Y105740D01*
X186776Y99900D02*
X187228Y100352D01*
X218011Y90424D02*
Y95876D01*
X220011D02*
X220036Y95900D01*
X161275Y84719D02*
X163093Y82901D01*
X163773D01*
X167525Y81899D02*
X168025Y81399D01*
X164775Y81899D02*
X167525D01*
X161275Y84719D02*
Y92276D01*
X163773Y82901D02*
X164775Y81899D01*
X158674Y94878D02*
X161275Y92276D01*
X197525Y86401D02*
X197667Y86543D01*
X201310D01*
X201453Y86685D01*
X200075Y81196D02*
X200278Y80993D01*
X201230D01*
X197525Y81399D02*
X197728Y81196D01*
X200075D01*
X211186Y78142D02*
X215136Y74192D01*
X211186Y78142D02*
Y79650D01*
X215136Y58600D02*
Y74192D01*
X210336Y80500D02*
X211186Y79650D01*
X215186Y84150D02*
X217436Y81900D01*
X215186Y84150D02*
Y86155D01*
X217436Y81900D02*
X217747D01*
X213868Y87473D02*
X215186Y86155D01*
X206848Y87473D02*
X213868D01*
X201775Y92547D02*
X206848Y87473D01*
X224233Y73147D02*
X226170Y75083D01*
X226287D01*
X226770Y75566D01*
X227503D02*
Y81667D01*
X231444Y75566D02*
X234936Y72075D01*
Y67400D02*
Y72075D01*
X226770Y75566D02*
X231444D01*
X195570Y113000D02*
X196570Y112000D01*
Y104750D02*
Y112000D01*
X190470Y113000D02*
X195570D01*
X205450Y122050D02*
X208466Y125066D01*
X218484D01*
X205604Y128215D02*
X221089D01*
X201200Y123000D02*
Y123810D01*
X205604Y128215D01*
X196570Y104750D02*
X201775Y99546D01*
Y92547D02*
Y99546D01*
X207009Y98150D02*
Y101364D01*
X206653D02*
X207009D01*
Y98150D02*
X209259Y95900D01*
X201200Y120290D02*
Y123000D01*
X201129Y106889D02*
X206653Y101364D01*
X201129Y120218D02*
X201200Y120290D01*
X201129Y106889D02*
Y120218D01*
X227736Y95900D02*
Y99650D01*
X229054Y100968D01*
X236118D02*
X237436Y99650D01*
Y95900D02*
Y99650D01*
X229054Y100968D02*
X236118D01*
X222444Y109594D02*
X222540Y109690D01*
X222309Y109594D02*
X222444D01*
X224889Y103563D02*
Y106379D01*
X224508Y103182D02*
X224889Y103563D01*
Y106379D02*
X228200Y109690D01*
X221213Y107213D02*
X222444Y108444D01*
Y109594D01*
X216880Y108538D02*
X218205Y107213D01*
X216880Y108538D02*
Y109690D01*
X218205Y107213D02*
X221213D01*
X212738Y109700D02*
X216870D01*
X212317Y110120D02*
X212738Y109700D01*
X214340Y115350D02*
X216880D01*
X212317Y113327D02*
X214340Y115350D01*
X212317Y110120D02*
Y113327D01*
X228200Y109690D02*
X234560D01*
X235050Y109200D01*
X237450D01*
Y107050D02*
Y109200D01*
X106250Y114021D02*
Y121400D01*
X106500D02*
Y130400D01*
X115450Y121150D02*
X121750D01*
X115200Y121400D02*
X115450Y121150D01*
X121750D02*
X122000Y120900D01*
X106250Y130400D02*
Y139345D01*
X110551Y143646D02*
X111142D01*
X106250Y139345D02*
X110551Y143646D01*
D11*
X129548Y51450D02*
X133650D01*
X126474Y48376D02*
X129548Y51450D01*
X126474Y46450D02*
Y48376D01*
Y46450D02*
X133650D01*
X122224Y42200D02*
X126474Y46450D01*
X121200Y42200D02*
X122224D01*
X156606Y65793D02*
X157292D01*
X153700Y68700D02*
X156606Y65793D01*
X264550Y84359D02*
X266450Y82459D01*
X264550Y84359D02*
Y87059D01*
X266450Y82459D02*
X266650D01*
X279899Y111400D02*
X282399Y108900D01*
X287018D01*
X286461Y99457D02*
X287018Y98900D01*
X280099Y99457D02*
X286461D01*
X279812Y99744D02*
X280099Y99457D01*
X284767Y91150D02*
X287018Y88900D01*
X280186Y91613D02*
X282475D01*
X279899Y91900D02*
X280186Y91613D01*
X282938Y91150D02*
X284767D01*
X282475Y91613D02*
X282938Y91150D01*
D12*
X0Y177800D02*
X431800D01*
Y0D02*
Y177800D01*
X0Y0D02*
X431800D01*
X0D02*
Y177800D01*
D13*
X12799Y76900D02*
D03*
Y100900D02*
D03*
D14*
X36799Y57425D02*
D03*
Y120375D02*
D03*
D15*
X38399Y101900D02*
D03*
Y95400D02*
D03*
Y88900D02*
D03*
Y82400D02*
D03*
Y75900D02*
D03*
D16*
X12799Y50700D02*
D03*
Y127100D02*
D03*
D17*
X168025Y96401D02*
D03*
Y91399D02*
D03*
X168025Y86401D02*
D03*
X168025Y81399D02*
D03*
X195525D02*
D03*
X195525Y86401D02*
D03*
X195525Y91399D02*
D03*
Y96401D02*
D03*
D18*
X181775Y77900D02*
D03*
X186776D02*
D03*
Y99900D02*
D03*
X181775Y99900D02*
D03*
X176773Y99900D02*
D03*
Y77900D02*
D03*
D19*
X138700Y121500D02*
D03*
X143700D02*
D03*
X148700D02*
D03*
X153700D02*
D03*
Y94600D02*
D03*
X148700D02*
D03*
X143700D02*
D03*
X138700D02*
D03*
D20*
X61950Y57250D02*
D03*
X73350Y52249D02*
D03*
Y62251D02*
D03*
D21*
X75149Y101700D02*
D03*
D22*
X58149D02*
D03*
Y82600D02*
D03*
X77149D02*
D03*
D23*
X93500Y38000D02*
D03*
X60800D02*
D03*
D24*
X262550Y121050D02*
D03*
X270450D02*
D03*
Y128950D02*
D03*
X262550D02*
D03*
D25*
X154400Y32050D02*
D03*
X144900D02*
D03*
X49399Y144400D02*
D03*
X39899D02*
D03*
X115750Y130400D02*
D03*
X106250D02*
D03*
X62900Y144400D02*
D03*
X72400D02*
D03*
X251300Y143500D02*
D03*
X241800D02*
D03*
X262800D02*
D03*
X272300D02*
D03*
X251300Y132500D02*
D03*
X241800D02*
D03*
X258700Y58100D02*
D03*
X249200D02*
D03*
X225133D02*
D03*
X215633D02*
D03*
X258633Y67600D02*
D03*
X249133D02*
D03*
X49399Y33750D02*
D03*
X39899D02*
D03*
X172400Y40850D02*
D03*
X162900D02*
D03*
D26*
X146900Y56450D02*
D03*
Y51450D02*
D03*
Y46450D02*
D03*
Y41450D02*
D03*
X132900D02*
D03*
Y46450D02*
D03*
Y51450D02*
D03*
D27*
X287018Y48900D02*
D03*
Y58900D02*
D03*
Y68900D02*
D03*
Y78900D02*
D03*
Y88900D02*
D03*
Y98900D02*
D03*
Y108900D02*
D03*
Y118900D02*
D03*
Y128900D02*
D03*
X324019Y116400D02*
D03*
X335019D02*
D03*
X346019D02*
D03*
X357019D02*
D03*
X368019D02*
D03*
Y61400D02*
D03*
X357019D02*
D03*
X346019D02*
D03*
X335019D02*
D03*
X324019D02*
D03*
X360769Y71650D02*
D03*
X360768Y106150D02*
D03*
X360767Y94650D02*
D03*
Y83150D02*
D03*
X349268Y83150D02*
D03*
Y94650D02*
D03*
X337769Y106150D02*
D03*
X337767Y94650D02*
D03*
X337769Y71650D02*
D03*
X337767Y83150D02*
D03*
X326269Y94650D02*
D03*
Y83150D02*
D03*
X313017Y61399D02*
D03*
Y72400D02*
D03*
Y83401D02*
D03*
Y116401D02*
D03*
Y105400D02*
D03*
Y94399D02*
D03*
D28*
X388518Y130150D02*
D03*
X378518D02*
D03*
X368518D02*
D03*
X358518D02*
D03*
X348519Y130150D02*
D03*
X338519D02*
D03*
X328519D02*
D03*
X318519D02*
D03*
X308519Y130150D02*
D03*
X298519D02*
D03*
X388518Y47650D02*
D03*
X378518D02*
D03*
X368518D02*
D03*
X358519D02*
D03*
X348519D02*
D03*
X338519D02*
D03*
X328519D02*
D03*
X318519D02*
D03*
X308519D02*
D03*
X298519D02*
D03*
D29*
X299268Y98900D02*
D03*
Y108900D02*
D03*
Y88900D02*
D03*
Y78900D02*
D03*
Y68900D02*
D03*
X387769Y108900D02*
D03*
Y98900D02*
D03*
Y68900D02*
D03*
Y78900D02*
D03*
Y88900D02*
D03*
D30*
X171200Y50200D02*
D03*
Y65200D02*
D03*
D31*
X186820Y46000D02*
D03*
Y51000D02*
D03*
Y56000D02*
D03*
X201720D02*
D03*
Y51000D02*
D03*
Y46000D02*
D03*
D32*
X191770Y58450D02*
D03*
X196770D02*
D03*
Y43550D02*
D03*
X191770D02*
D03*
D33*
X27999Y144400D02*
D03*
X13499D02*
D03*
X28000Y33750D02*
D03*
X13500D02*
D03*
D34*
X337976Y32126D02*
D03*
X323776D02*
D03*
D35*
X194270Y113000D02*
D03*
Y123000D02*
D03*
Y133000D02*
D03*
X173270D02*
D03*
Y123000D02*
D03*
Y113000D02*
D03*
D36*
X260300Y111059D02*
D03*
Y76559D02*
D03*
D37*
X272550Y93809D02*
D03*
X248050D02*
D03*
D38*
X256050Y87059D02*
D03*
Y100559D02*
D03*
X264550D02*
D03*
Y87059D02*
D03*
D39*
X228200Y109690D02*
D03*
X222540D02*
D03*
X216880D02*
D03*
X225370Y112520D02*
D03*
X219710D02*
D03*
X228200Y115350D02*
D03*
X216880D02*
D03*
X225370Y118180D02*
D03*
X219710D02*
D03*
X228200Y121010D02*
D03*
X222540Y121010D02*
D03*
X216880Y121010D02*
D03*
D40*
X59150Y129400D02*
D03*
X76150D02*
D03*
D41*
X107400Y55900D02*
D03*
Y40900D02*
D03*
X121200Y55900D02*
D03*
Y40900D02*
D03*
D42*
X95400Y51500D02*
D03*
Y60200D02*
D03*
X234936Y67400D02*
D03*
Y58700D02*
D03*
X237450Y115750D02*
D03*
Y107050D02*
D03*
X155150Y57650D02*
D03*
Y48950D02*
D03*
D43*
X111000Y109900D02*
D03*
Y67900D02*
D03*
D44*
X227736Y95900D02*
D03*
X237436Y81900D02*
D03*
Y95900D02*
D03*
X227736Y81900D02*
D03*
X218036Y95900D02*
D03*
Y81900D02*
D03*
X208336Y95900D02*
D03*
Y81900D02*
D03*
D45*
X410200Y33200D02*
D03*
X401500D02*
D03*
X106500Y121400D02*
D03*
X115200D02*
D03*
X205562Y32045D02*
D03*
X214261D02*
D03*
X136700Y130400D02*
D03*
X128000D02*
D03*
X224733Y67600D02*
D03*
X216033D02*
D03*
X185770Y32045D02*
D03*
X194470D02*
D03*
X198270Y144400D02*
D03*
X189570D02*
D03*
X169270D02*
D03*
X177970D02*
D03*
X198470Y68250D02*
D03*
X189770D02*
D03*
X365401Y33200D02*
D03*
X374101D02*
D03*
X383401D02*
D03*
X392101D02*
D03*
X313999Y31479D02*
D03*
X305299D02*
D03*
X347649Y33124D02*
D03*
X356350D02*
D03*
X163300Y32050D02*
D03*
X172000D02*
D03*
X136000Y32050D02*
D03*
X127300D02*
D03*
D46*
X233101Y34393D02*
D03*
X249201D02*
D03*
D47*
X86000Y51100D02*
D03*
Y60600D02*
D03*
X267787Y58103D02*
D03*
Y48603D02*
D03*
D48*
X138700Y68700D02*
D03*
X153700D02*
D03*
X138700Y81500D02*
D03*
X153700D02*
D03*
D81*
X146200Y108050D02*
D03*
D82*
X111000Y88900D02*
D03*
X400000Y145000D02*
D03*
D83*
X425027Y145435D02*
D03*
Y32365D02*
D03*
D84*
X225370Y118180D02*
Y120280D01*
Y121680D02*
Y123933D01*
X308519Y45400D02*
Y47650D01*
X308087Y39629D02*
X313268D01*
X315769Y42130D01*
Y44900D01*
X318519Y47650D01*
X164031Y164181D02*
X164950Y165100D01*
X148700Y121500D02*
Y126300D01*
X149699Y127299D01*
X156779D01*
X262800Y138745D02*
Y143500D01*
X263679Y137866D02*
X269643D01*
X262800Y138745D02*
X263679Y137866D01*
X214124Y46910D02*
X217975D01*
X283590Y136780D02*
X283871D01*
X280911Y134101D02*
X283590Y136780D01*
X273785Y121050D02*
X275285Y122550D01*
X270450Y121050D02*
X273785D01*
X269643Y137866D02*
X275285Y132224D01*
Y122550D02*
Y132224D01*
X276678Y118430D02*
X278141Y119893D01*
X276678Y117784D02*
Y118430D01*
X283105Y118900D02*
X287018D01*
X280911Y121094D02*
X283105Y118900D01*
X280911Y121094D02*
Y134101D01*
X272300Y139301D02*
Y143500D01*
X278141Y119893D02*
Y133460D01*
X272300Y139301D02*
X278141Y133460D01*
X156779Y127299D02*
X159669Y124408D01*
Y110073D02*
Y124408D01*
X213633Y43738D02*
Y46910D01*
X217975D02*
X220133Y44752D01*
X204235Y51000D02*
X205235Y50000D01*
X201720Y51000D02*
X204235D01*
X205235Y50000D02*
X205974D01*
X203376Y42290D02*
X205041Y40625D01*
X210520D01*
X196770Y43550D02*
X197064Y43256D01*
X198805D02*
X199771Y42290D01*
X197064Y43256D02*
X198805D01*
X199771Y42290D02*
X203376D01*
X210520Y40625D02*
X213633Y43738D01*
Y47401D02*
X214124Y46910D01*
X214226Y51659D02*
X217187D01*
X212536Y49237D02*
X213633Y48139D01*
X212536Y49237D02*
Y49286D01*
X213633Y47401D02*
Y48139D01*
X223149Y51689D02*
X223888D01*
X225012Y52813D01*
X217187Y51659D02*
X221292Y47554D01*
X225068D01*
X225012Y52813D02*
X242183D01*
X220133Y44752D02*
X226183D01*
X207932Y53890D02*
X212536Y49286D01*
X242183Y52813D02*
X244249Y54879D01*
X244993Y67600D02*
X250133D01*
X244249Y54879D02*
Y66856D01*
X244993Y67600D01*
X225068Y47554D02*
X227328Y49814D01*
X226183Y44752D02*
X228251Y46819D01*
X245515D01*
X248456Y43878D01*
X249200Y49192D02*
X251744Y46648D01*
X227328Y49814D02*
X249200D01*
X249200Y49814D01*
Y49192D02*
Y58100D01*
X49399Y137649D02*
Y144400D01*
X257813Y37796D02*
X263871Y31739D01*
X260583Y38943D02*
X265018Y34509D01*
X263871Y31739D02*
X293774D01*
X265018Y34509D02*
X291707D01*
X156899Y108732D02*
Y120751D01*
X153700Y121500D02*
X156150D01*
X156899Y120751D01*
X167087Y107221D02*
X168864D01*
X156899Y108732D02*
X162022Y103609D01*
X171099D01*
X168864Y107221D02*
X169386Y107744D01*
X166517Y106651D02*
X167087Y107221D01*
X163091Y106651D02*
X166517D01*
X159669Y110073D02*
X163091Y106651D01*
X291707Y34509D02*
X296962Y39763D01*
X305451Y36993D02*
X308087Y39629D01*
X296962Y39763D02*
X302882D01*
X308519Y45400D01*
X293774Y31739D02*
X299029Y36993D01*
X305451D01*
X173941Y106451D02*
X176773D01*
X171099Y103609D02*
X173941Y106451D01*
X210748Y55137D02*
X214226Y51659D01*
X202928Y74331D02*
Y74699D01*
Y74331D02*
X207932Y69328D01*
X208456Y74651D02*
X210748Y72359D01*
Y55137D02*
Y72359D01*
X207932Y53890D02*
Y69328D01*
X194270Y123000D02*
X201200D01*
X248456Y43878D02*
X254895D01*
X257813Y37796D02*
Y40960D01*
X251744Y46648D02*
X256043D01*
X260583Y42107D01*
Y38943D02*
Y42107D01*
X254895Y43878D02*
X257813Y40960D01*
D85*
X225370Y120280D02*
Y121680D01*
D86*
X136000Y36177D02*
X136973Y37150D01*
X143920D02*
X144900Y36170D01*
X349268Y83150D02*
X354341Y88222D01*
X353862Y89370D02*
X354341Y88892D01*
Y88222D02*
Y88892D01*
X337769Y71650D02*
X342268Y76150D01*
Y76775D01*
X95237Y38200D02*
X98646D01*
X353862Y89370D02*
Y90056D01*
X349268Y94650D02*
X353862Y90056D01*
X337827Y94710D02*
Y100391D01*
X337767Y94650D02*
X337827Y94710D01*
X337767Y88900D02*
Y94650D01*
Y83150D02*
Y88900D01*
X326269Y94650D02*
X332019Y88900D01*
X326225Y94650D02*
X326269D01*
Y83150D02*
X332019Y88900D01*
X337769Y106150D02*
X337827Y106092D01*
Y100391D02*
Y106092D01*
X133650Y56450D02*
Y60950D01*
X130367Y68595D02*
X130420Y68647D01*
X130654Y64352D02*
Y68308D01*
Y64352D02*
X133556Y61450D01*
X130420Y68647D02*
X138647D01*
X130367Y68595D02*
X130654Y68308D01*
X138647Y68647D02*
X138700Y68700D01*
X130840Y81387D02*
X138587D01*
X138700Y81500D01*
X130727Y81274D02*
X130840Y81387D01*
X98646Y38200D02*
X100923Y40477D01*
X107177D01*
X121043Y40543D02*
X121200Y40700D01*
X107557Y40543D02*
X121043D01*
X107400Y40700D02*
X107557Y40543D01*
X121300Y55500D02*
Y55600D01*
X121200Y55700D02*
X121300Y55600D01*
X116328Y65893D02*
Y67700D01*
Y65893D02*
X121248Y60972D01*
X98096Y67700D02*
X110878D01*
X116328D02*
X123800D01*
X107450Y64272D02*
X110878Y67700D01*
X95476Y65079D02*
X98096Y67700D01*
X107400Y55700D02*
X107450Y55650D01*
X107400Y55700D02*
Y55800D01*
X133650Y60950D02*
Y61450D01*
X392101Y33200D02*
Y36850D01*
X394150Y38900D01*
X383401Y33200D02*
Y36849D01*
X385518Y38967D01*
Y39069D01*
X338974Y33124D02*
X347649D01*
X365401Y33200D02*
Y37271D01*
X366279Y38150D02*
X368450D01*
X365401Y37271D02*
X366279Y38150D01*
X365363Y33162D02*
X365401Y33200D01*
X354350Y33124D02*
X354388Y33162D01*
X364700Y33901D02*
X365401Y33200D01*
X368450Y38150D02*
X368700Y38400D01*
X365401Y33200D02*
X365415Y33215D01*
X378327Y38877D02*
X378518Y39069D01*
X375677Y38877D02*
X378327D01*
X374101Y37301D02*
X375677Y38877D01*
X374101Y33200D02*
Y37301D01*
X385710Y39260D02*
X386761D01*
X388518Y41017D02*
Y47650D01*
X386761Y39260D02*
X388518Y41017D01*
X385518Y39069D02*
X385710Y39260D01*
X93750Y38200D02*
X95237Y39687D01*
Y50337D02*
X95400Y50500D01*
X95237Y39687D02*
Y50337D01*
X313999Y31479D02*
X323129D01*
X323776Y32126D01*
X330726D01*
X378518Y39069D02*
Y47650D01*
X360768Y106149D02*
X360768Y106150D01*
X360768Y94651D02*
Y106149D01*
X360767Y94650D02*
X360768Y94651D01*
X360768Y71651D02*
X360769Y71650D01*
X360768Y71651D02*
Y83149D01*
X360767Y83150D02*
X360768Y83149D01*
X360767Y94650D02*
X360867Y94550D01*
X287018Y68900D02*
X299268D01*
X348519Y47650D02*
X351269Y50401D01*
Y53394D01*
X352127Y54252D01*
Y54928D01*
X15883Y124017D02*
X33158D01*
X12799Y100900D02*
Y127100D01*
Y76900D02*
Y100900D01*
Y50700D02*
Y76900D01*
X25960Y52760D02*
X32134D01*
X23900Y50700D02*
X25960Y52760D01*
X12799Y50700D02*
X23900D01*
X107177Y40477D02*
X107400Y40700D01*
X116328Y67700D02*
Y67750D01*
X299965Y108900D02*
X301966Y110900D01*
Y114515D01*
X299268Y108900D02*
X299965D01*
X171106Y65793D02*
X171700Y65200D01*
X157292Y65793D02*
X171106D01*
X136000Y31250D02*
Y32050D01*
Y36177D01*
X144900Y31250D02*
Y32050D01*
Y36170D01*
X93750Y36713D02*
X95237Y38200D01*
X379150Y75086D02*
X380964Y76900D01*
X385636D01*
X378879Y75086D02*
X379150D01*
X372415Y85320D02*
X372686D01*
X370246Y83150D02*
X372415Y85320D01*
X360767Y83150D02*
X370246D01*
X369028Y94550D02*
X372707Y90871D01*
X360867Y94550D02*
X369028D01*
X378475Y98900D02*
X387769D01*
X375930Y101174D02*
X376201D01*
X378475Y98900D01*
X280314Y71809D02*
X280505Y71618D01*
X282237D01*
X282955Y70900D01*
X285017D01*
X286769Y69149D01*
X95400Y59200D02*
X95500Y59100D01*
X33158Y124017D02*
X36799Y120375D01*
X72400Y144400D02*
X78400D01*
X76150Y129400D02*
X85650D01*
X133260Y92510D02*
Y107908D01*
X125500Y84750D02*
X133260Y92510D01*
X125500Y77250D02*
Y84750D01*
X36799Y120375D02*
Y120913D01*
X45286Y129400D02*
X59150D01*
X36799Y120913D02*
X45286Y129400D01*
X60800Y39550D02*
X67000Y45750D01*
Y45750D01*
X60800Y38000D02*
Y39550D01*
X93750Y30400D02*
Y36713D01*
Y30400D02*
X96662Y27488D01*
X122452D01*
X124607Y25334D02*
X175353D01*
X122452Y27488D02*
X124607Y25334D01*
X95463Y60600D02*
Y60613D01*
Y65066D01*
X256076Y34393D02*
X262365Y28103D01*
X177083Y23603D02*
X382646D01*
X298561Y28701D02*
X298752Y28893D01*
X262365Y28103D02*
X295280D01*
X248701Y34393D02*
X256076D01*
X295280Y28103D02*
X295878Y28701D01*
X175353Y25334D02*
X177083Y23603D01*
X382646D02*
X391950Y14300D01*
X295878Y28701D02*
X298561D01*
X95463Y59488D02*
Y60600D01*
X121248Y55700D02*
Y60972D01*
X107450Y55650D02*
Y64272D01*
X133556Y61450D02*
X133650D01*
X136973Y37150D02*
X143920D01*
X111000Y67750D02*
X116328D01*
X354388Y33162D02*
X365363D01*
X385636Y76900D02*
X387702Y78967D01*
X199223Y128254D02*
X199414Y128446D01*
X198567Y128254D02*
X199223D01*
X198540Y128227D02*
X198567Y128254D01*
X179391Y133000D02*
X184164Y128227D01*
X173270Y133000D02*
X179391D01*
X184164Y128227D02*
X198540D01*
X27402Y72871D02*
X30431Y75900D01*
X38399D01*
X38384Y101885D02*
X38399Y101900D01*
X29384Y101870D02*
X29399Y101885D01*
X38384D01*
X401000Y20150D02*
Y33000D01*
X394425Y13575D02*
X401000Y20150D01*
X391950Y14300D02*
X393700D01*
X77149Y82600D02*
X77206Y82543D01*
Y74436D02*
X77262Y74379D01*
X77206Y74436D02*
Y82543D01*
D87*
X129136Y33886D02*
Y35413D01*
X130983Y41200D02*
X131233Y41450D01*
X131775D01*
X130983Y37260D02*
Y41200D01*
X127300Y32050D02*
X129136Y33886D01*
Y35413D02*
X130983Y37260D01*
X147100Y72200D02*
X153700D01*
X360460Y49592D02*
Y53342D01*
X362282Y55164D01*
X358519Y47650D02*
X360460Y49592D01*
X172200Y32250D02*
Y40800D01*
X153450Y56450D02*
X155150Y58150D01*
X146150Y56450D02*
X153450D01*
X146150Y51450D02*
X153125D01*
X155125Y49450D01*
X155150D01*
X146150Y41450D02*
X162300D01*
X154400Y32050D02*
X163300D01*
X162900Y40850D02*
X163100Y40650D01*
Y32250D02*
Y40650D01*
X342750Y165100D02*
X345213Y162637D01*
X342750Y148190D02*
X346213Y144728D01*
X342750Y160175D02*
X345213Y162637D01*
X155150Y58150D02*
X156954Y56346D01*
X172200Y40800D02*
X172418Y40582D01*
X172661Y40825D01*
X178505Y41314D02*
X179046D01*
X178016Y40825D02*
X178505Y41314D01*
X172661Y40825D02*
X178016D01*
X358518Y130150D02*
Y144320D01*
X360829Y146631D01*
X342750Y154182D02*
X358358D01*
X360829Y151711D01*
X342750Y148190D02*
Y154182D01*
Y160175D01*
X361612Y149953D02*
X376036D01*
X360829Y149171D02*
X361612Y149953D01*
X360829Y146631D02*
Y149171D01*
Y151711D01*
X147100Y65200D02*
X153700D01*
X160054Y56346D02*
X166200Y50200D01*
X171700D01*
X156954Y56346D02*
X160054D01*
X299810Y89442D02*
X305987D01*
X299268Y88900D02*
X299810Y89442D01*
X305987D02*
X306370Y89825D01*
X282267Y80197D02*
X285721D01*
X287018Y78900D01*
X279949Y82515D02*
X282267Y80197D01*
X279949Y82515D02*
Y86346D01*
X95438Y60638D02*
Y65041D01*
X59150Y140718D02*
X61750Y143318D01*
X59150Y129400D02*
Y140718D01*
X61750Y143318D02*
Y144400D01*
X53722Y57250D02*
X61950D01*
X51240Y54769D02*
X53722Y57250D01*
X30000Y33750D02*
Y41114D01*
X51240Y48657D02*
Y54769D01*
X30000Y41114D02*
X33914Y45028D01*
X47612D01*
X51240Y48657D01*
X63500Y12700D02*
X65459Y14659D01*
X79435Y62251D02*
X81087Y60600D01*
X73350Y62251D02*
X79435D01*
X393550Y12700D02*
X394425Y13575D01*
X262148Y121452D02*
X262550Y121050D01*
X257550Y111059D02*
X262300D01*
X255632Y111491D02*
Y116451D01*
X81087Y60600D02*
X86000D01*
X95463D02*
X95476D01*
X95438Y60638D02*
X95463Y60613D01*
X95476Y60600D01*
X95438Y65041D02*
X95463Y65066D01*
X95476Y65079D01*
X235436Y58700D02*
X235547Y58812D01*
X239926D01*
X61373Y14827D02*
X61929Y14271D01*
X61373Y14827D02*
Y21320D01*
X49399Y33382D02*
Y33750D01*
X51149Y31544D02*
Y31632D01*
Y31544D02*
X61373Y21320D01*
X49399Y33382D02*
X51149Y31632D01*
X29999Y144400D02*
Y152749D01*
X86000Y60600D02*
X95463D01*
X169270Y138913D02*
Y144400D01*
Y138913D02*
X173270Y134913D01*
Y133000D02*
Y134913D01*
X198270Y138937D02*
Y144400D01*
X195823Y133750D02*
Y136490D01*
X194736Y132663D02*
X195823Y133750D01*
X193500Y132663D02*
X194736D01*
X195823Y136490D02*
X198270Y138937D01*
X186500Y133566D02*
X189570Y136636D01*
Y144400D01*
X186500Y133500D02*
Y133566D01*
X406083Y38517D02*
X407993D01*
X405700Y38900D02*
X406083Y38517D01*
X409610Y33090D02*
Y36900D01*
X407993Y38517D02*
X409610Y36900D01*
X198428Y68292D02*
Y76563D01*
Y68292D02*
X198470Y68250D01*
X198428Y76563D02*
X200847Y78982D01*
Y80610D01*
X201230Y80993D01*
X237436Y74171D02*
X240336Y71271D01*
X237436Y74171D02*
Y81900D01*
X240336Y59221D02*
Y71271D01*
X239926Y58812D02*
X240038Y58923D01*
X240336Y59221D01*
X224633Y58600D02*
X235336D01*
X237436Y81900D02*
Y86496D01*
X239797Y88857D01*
X240338D02*
X241338Y89857D01*
X241528D01*
X239797Y88857D02*
X240338D01*
X243800Y105832D02*
Y113844D01*
X243800Y105832D02*
X243800Y105832D01*
X243800Y92129D02*
Y105832D01*
X241528Y89857D02*
X243800Y92129D01*
X251408Y121452D02*
X262148D01*
X243800Y113844D02*
X251408Y121452D01*
X207250Y115844D02*
X207858Y115237D01*
X212237Y103182D02*
X224508D01*
X206347Y109073D02*
X212237Y103182D01*
X206347Y109073D02*
Y113726D01*
X207858Y115237D01*
X212456Y121050D02*
X216840D01*
X207250Y115844D02*
X212456Y121050D01*
X129309Y126500D02*
Y129091D01*
X128000Y130400D02*
X129309Y129091D01*
Y126500D02*
X133260Y122549D01*
Y107908D02*
Y122549D01*
Y121500D02*
X133260Y121500D01*
X138700D01*
X115750Y130400D02*
X115750Y130400D01*
X128000D01*
D88*
X223367Y34476D02*
X223450Y34393D01*
X233601D01*
X153700Y81500D02*
X154606Y80594D01*
X159371D01*
D89*
X282467Y59403D02*
X286515D01*
X287018Y58900D01*
X280444Y61427D02*
Y65775D01*
Y61427D02*
X282467Y59403D01*
X283068Y52850D02*
X287018Y48900D01*
X282830Y52850D02*
X283068D01*
X276238Y59443D02*
X282830Y52850D01*
X279987Y66231D02*
X280444Y65775D01*
X275437Y64347D02*
Y64847D01*
X276238Y59443D02*
Y63547D01*
X273993Y66292D02*
X275437Y64847D01*
Y64347D02*
X276238Y63547D01*
X273993Y66292D02*
Y66806D01*
X38399Y95400D02*
X45736D01*
X46236Y94900D01*
X49899D01*
X38399Y88900D02*
X45342D01*
X45842Y89400D01*
X49899D01*
Y94900D02*
X49999Y95000D01*
X52949D01*
X58149Y100200D01*
X49899Y89400D02*
X49999Y89300D01*
X52949D01*
X58149Y84100D01*
D90*
X75149Y101700D02*
Y108851D01*
X41805Y115369D02*
X68631D01*
X75149Y108851D01*
X36799Y120375D02*
X41805Y115369D01*
D91*
X139550Y5080D02*
D03*
X393550D02*
D03*
X114150D02*
D03*
X88750D02*
D03*
X190350D02*
D03*
X215750D02*
D03*
X291950D02*
D03*
X241150D02*
D03*
X342750D02*
D03*
X317350D02*
D03*
X63500D02*
D03*
X164950D02*
D03*
X266550D02*
D03*
X368150D02*
D03*
X38100D02*
D03*
X139550Y172720D02*
D03*
X393550D02*
D03*
X114150D02*
D03*
X88750D02*
D03*
X190350D02*
D03*
X215750D02*
D03*
X291950D02*
D03*
X241150D02*
D03*
X342750D02*
D03*
X317350D02*
D03*
X63500D02*
D03*
X164950D02*
D03*
X266550D02*
D03*
X368150D02*
D03*
X38100D02*
D03*
D92*
Y0D02*
D03*
X63500D02*
D03*
X88900D02*
D03*
X114300D02*
D03*
X139700D02*
D03*
X165100D02*
D03*
X190500D02*
D03*
X215900D02*
D03*
X241300D02*
D03*
X266700D02*
D03*
X292100D02*
D03*
X317500D02*
D03*
X342900D02*
D03*
X368300D02*
D03*
X393700D02*
D03*
X38100Y177800D02*
D03*
X63500D02*
D03*
X88900D02*
D03*
X114300D02*
D03*
X139700D02*
D03*
X165100D02*
D03*
X190500D02*
D03*
X215900D02*
D03*
X241300D02*
D03*
X266700D02*
D03*
X292100D02*
D03*
X317500D02*
D03*
X342900D02*
D03*
X368300D02*
D03*
X393700D02*
D03*
D93*
X419100Y165100D02*
D03*
Y12700D02*
D03*
X12700D02*
D03*
Y165100D02*
D03*
D94*
X139900Y37332D02*
D03*
X104900Y32488D02*
D03*
X112400D02*
D03*
X119900D02*
D03*
X306437Y100597D02*
D03*
X319314Y88914D02*
D03*
X353927Y97653D02*
D03*
X354341Y88892D02*
D03*
X331441Y104650D02*
D03*
X320467Y100262D02*
D03*
X322860Y105239D02*
D03*
X330000Y38000D02*
D03*
X342268Y76775D02*
D03*
X334456Y155140D02*
D03*
X298503Y138050D02*
D03*
X328155Y138411D02*
D03*
X315478Y138016D02*
D03*
X308265Y138050D02*
D03*
X337767Y88900D02*
D03*
X376036Y149953D02*
D03*
X373059Y145329D02*
D03*
X337827Y100391D02*
D03*
X127710Y160017D02*
D03*
X130367Y68595D02*
D03*
X130727Y81274D02*
D03*
X123800Y67700D02*
D03*
X95476Y65079D02*
D03*
X133650Y60950D02*
D03*
X333519Y121491D02*
D03*
X304799Y160375D02*
D03*
X341769Y120875D02*
D03*
X353768Y103600D02*
D03*
X368518Y141491D02*
D03*
X346093Y70157D02*
D03*
X332019Y88900D02*
D03*
X147100Y72200D02*
D03*
Y65200D02*
D03*
X379822Y139284D02*
D03*
X391700Y25900D02*
D03*
X405700Y38900D02*
D03*
X347700Y38400D02*
D03*
X368700D02*
D03*
X394700Y38900D02*
D03*
X330726Y32126D02*
D03*
X378518Y39069D02*
D03*
X385518D02*
D03*
X329519Y110346D02*
D03*
X378954Y68967D02*
D03*
X350815Y74410D02*
D03*
X352127Y54928D02*
D03*
X362282Y55164D02*
D03*
X318517Y94399D02*
D03*
X373518Y138991D02*
D03*
X313519Y121491D02*
D03*
X323519Y121491D02*
D03*
X289862Y136938D02*
D03*
X346213Y144728D02*
D03*
X349653Y139154D02*
D03*
X352137Y144081D02*
D03*
X356170Y148336D02*
D03*
X152100Y161100D02*
D03*
X179046Y41314D02*
D03*
X331046Y76314D02*
D03*
X283871Y136780D02*
D03*
X301966Y114515D02*
D03*
X295000Y120000D02*
D03*
X178000Y161000D02*
D03*
X374937Y57567D02*
D03*
X382770Y61831D02*
D03*
X51000Y159000D02*
D03*
X182797Y58505D02*
D03*
X178358Y35153D02*
D03*
X266650Y82459D02*
D03*
X253950D02*
D03*
Y105159D02*
D03*
X306370Y89825D02*
D03*
X205450Y122050D02*
D03*
X329519Y55345D02*
D03*
X340519D02*
D03*
X249300Y125500D02*
D03*
X223149Y51689D02*
D03*
X217187Y51659D02*
D03*
X213633Y47401D02*
D03*
X276678Y117784D02*
D03*
X164804Y110786D02*
D03*
X133260Y107908D02*
D03*
X179016Y28742D02*
D03*
X192146Y53051D02*
D03*
X208686Y44760D02*
D03*
X205974Y50000D02*
D03*
X203747Y58653D02*
D03*
X199013Y35155D02*
D03*
X49899Y100400D02*
D03*
Y83900D02*
D03*
X158992Y100791D02*
D03*
X363513Y121274D02*
D03*
X369639Y109276D02*
D03*
X367380Y66872D02*
D03*
X378879Y75086D02*
D03*
X383467Y144451D02*
D03*
X372686Y85320D02*
D03*
X372707Y90871D02*
D03*
X375930Y101174D02*
D03*
X375945Y113411D02*
D03*
X319974Y68883D02*
D03*
X296755Y61727D02*
D03*
X279899Y111400D02*
D03*
X279812Y99744D02*
D03*
X279899Y91900D02*
D03*
X279949Y86346D02*
D03*
X280314Y71809D02*
D03*
X325417Y75485D02*
D03*
X218603Y37320D02*
D03*
X223367Y34476D02*
D03*
X298752Y28893D02*
D03*
X78400Y144400D02*
D03*
X85650Y129400D02*
D03*
X46110Y40270D02*
D03*
X28892Y21023D02*
D03*
X63415Y25642D02*
D03*
X50884Y16469D02*
D03*
X238127Y122550D02*
D03*
X125500Y77250D02*
D03*
X91337Y69171D02*
D03*
X67000Y45750D02*
D03*
X82526Y44954D02*
D03*
X83762Y33125D02*
D03*
X76000Y12750D02*
D03*
X152300Y13250D02*
D03*
X234255Y134538D02*
D03*
X221568Y134403D02*
D03*
X255632Y116607D02*
D03*
X305986Y79702D02*
D03*
X308607Y68199D02*
D03*
X273600Y41856D02*
D03*
X285263Y39162D02*
D03*
X279721Y38712D02*
D03*
X278747Y44599D02*
D03*
X266593Y71255D02*
D03*
X240038Y58923D02*
D03*
X82942Y38692D02*
D03*
X49399Y137649D02*
D03*
X29999Y152749D02*
D03*
X330384Y13086D02*
D03*
X128560Y120885D02*
D03*
X122000Y120900D02*
D03*
X126000Y101400D02*
D03*
X267718Y41899D02*
D03*
X304984Y13086D02*
D03*
X68935Y25635D02*
D03*
X261344Y48525D02*
D03*
X255138Y50914D02*
D03*
X384168Y116897D02*
D03*
X388121Y120874D02*
D03*
X169386Y107744D02*
D03*
X199414Y128446D02*
D03*
X186500Y133500D02*
D03*
X380526Y157464D02*
D03*
X355340Y159704D02*
D03*
X52229Y40341D02*
D03*
X68000Y82000D02*
D03*
X24000Y44000D02*
D03*
X412831Y139741D02*
D03*
X49899Y94900D02*
D03*
Y89400D02*
D03*
X279987Y66231D02*
D03*
X273993Y66806D02*
D03*
X27402Y72871D02*
D03*
X29384Y101870D02*
D03*
X407425Y26813D02*
D03*
X415109Y150787D02*
D03*
X77262Y74379D02*
D03*
X158608Y94878D02*
D03*
X193908Y76644D02*
D03*
X183933Y114372D02*
D03*
X182787Y108414D02*
D03*
X190961Y105740D02*
D03*
X199526Y101795D02*
D03*
X202928Y74699D02*
D03*
X208456Y74651D02*
D03*
X218011Y90424D02*
D03*
X159371Y80594D02*
D03*
X201453Y86685D02*
D03*
X201230Y80993D02*
D03*
X227446Y75566D02*
D03*
X239797Y88857D02*
D03*
X207009Y101364D02*
D03*
X224889Y103563D02*
D03*
X212317Y110120D02*
D03*
X207858Y115237D02*
D03*
X122051Y141954D02*
D03*
X111142Y143646D02*
D03*
X152158Y142827D02*
D03*
M02*
