G04*
G04 #@! TF.GenerationSoftware,Altium Limited,Altium Designer,24.2.2 (26)*
G04*
G04 Layer_Color=16711935*
%FSLAX44Y44*%
%MOMM*%
G71*
G04*
G04 #@! TF.SameCoordinates,84A61C28-107D-4167-A594-B99BE37EB826*
G04*
G04*
G04 #@! TF.FilePolarity,Negative*
G04*
G01*
G75*
%ADD12C,0.1000*%
G04:AMPARAMS|DCode=40|XSize=1.11mm|YSize=1.47mm|CornerRadius=0.2498mm|HoleSize=0mm|Usage=FLASHONLY|Rotation=180.000|XOffset=0mm|YOffset=0mm|HoleType=Round|Shape=RoundedRectangle|*
%AMROUNDEDRECTD40*
21,1,1.1100,0.9705,0,0,180.0*
21,1,0.6105,1.4700,0,0,180.0*
1,1,0.4995,-0.3053,0.4853*
1,1,0.4995,0.3053,0.4853*
1,1,0.4995,0.3053,-0.4853*
1,1,0.4995,-0.3053,-0.4853*
%
%ADD40ROUNDEDRECTD40*%
%ADD78O,1.7272X3.2512*%
%ADD79C,1.1000*%
%ADD80C,1.8542*%
%ADD97C,1.0000*%
%ADD103R,1.6667X1.2700*%
%ADD104R,1.8295X1.4700*%
%ADD105R,1.9472X1.4700*%
G04:AMPARAMS|DCode=106|XSize=1.2032mm|YSize=1.2032mm|CornerRadius=0.6016mm|HoleSize=0mm|Usage=FLASHONLY|Rotation=90.000|XOffset=0mm|YOffset=0mm|HoleType=Round|Shape=RoundedRectangle|*
%AMROUNDEDRECTD106*
21,1,1.2032,0.0000,0,0,90.0*
21,1,0.0000,1.2032,0,0,90.0*
1,1,1.2032,0.0000,0.0000*
1,1,1.2032,0.0000,0.0000*
1,1,1.2032,0.0000,0.0000*
1,1,1.2032,0.0000,0.0000*
%
%ADD106ROUNDEDRECTD106*%
G04:AMPARAMS|DCode=107|XSize=1.4532mm|YSize=1.6732mm|CornerRadius=0.3829mm|HoleSize=0mm|Usage=FLASHONLY|Rotation=270.000|XOffset=0mm|YOffset=0mm|HoleType=Round|Shape=RoundedRectangle|*
%AMROUNDEDRECTD107*
21,1,1.4532,0.9075,0,0,270.0*
21,1,0.6875,1.6732,0,0,270.0*
1,1,0.7657,-0.4537,-0.3438*
1,1,0.7657,-0.4537,0.3438*
1,1,0.7657,0.4537,0.3438*
1,1,0.7657,0.4537,-0.3438*
%
%ADD107ROUNDEDRECTD107*%
G04:AMPARAMS|DCode=108|XSize=2.4mm|YSize=1.9mm|CornerRadius=0.5mm|HoleSize=0mm|Usage=FLASHONLY|Rotation=0.000|XOffset=0mm|YOffset=0mm|HoleType=Round|Shape=RoundedRectangle|*
%AMROUNDEDRECTD108*
21,1,2.4000,0.9000,0,0,0.0*
21,1,1.4000,1.9000,0,0,0.0*
1,1,1.0000,0.7000,-0.4500*
1,1,1.0000,-0.7000,-0.4500*
1,1,1.0000,-0.7000,0.4500*
1,1,1.0000,0.7000,0.4500*
%
%ADD108ROUNDEDRECTD108*%
G04:AMPARAMS|DCode=109|XSize=1.5mm|YSize=1.3mm|CornerRadius=0.35mm|HoleSize=0mm|Usage=FLASHONLY|Rotation=0.000|XOffset=0mm|YOffset=0mm|HoleType=Round|Shape=RoundedRectangle|*
%AMROUNDEDRECTD109*
21,1,1.5000,0.6000,0,0,0.0*
21,1,0.8000,1.3000,0,0,0.0*
1,1,0.7000,0.4000,-0.3000*
1,1,0.7000,-0.4000,-0.3000*
1,1,0.7000,-0.4000,0.3000*
1,1,0.7000,0.4000,0.3000*
%
%ADD109ROUNDEDRECTD109*%
D12*
Y177800D02*
X431800D01*
Y0D02*
Y177800D01*
X0Y0D02*
X431800D01*
X0D02*
Y177800D01*
D40*
X154700Y68200D02*
D03*
X171700D02*
D03*
D78*
X139550Y5080D02*
D03*
X393550D02*
D03*
X114150D02*
D03*
X88750D02*
D03*
X190350D02*
D03*
X215750D02*
D03*
X291950D02*
D03*
X241150D02*
D03*
X342750D02*
D03*
X317350D02*
D03*
X63500D02*
D03*
X164950D02*
D03*
X266550D02*
D03*
X368150D02*
D03*
X38100D02*
D03*
X139550Y172720D02*
D03*
X393550D02*
D03*
X114150D02*
D03*
X88750D02*
D03*
X190350D02*
D03*
X215750D02*
D03*
X291950D02*
D03*
X241150D02*
D03*
X342750D02*
D03*
X317350D02*
D03*
X63500D02*
D03*
X164950D02*
D03*
X266550D02*
D03*
X368150D02*
D03*
X38100D02*
D03*
D79*
Y0D02*
D03*
X63500D02*
D03*
X88900D02*
D03*
X114300D02*
D03*
X139700D02*
D03*
X165100D02*
D03*
X190500D02*
D03*
X215900D02*
D03*
X241300D02*
D03*
X266700D02*
D03*
X292100D02*
D03*
X317500D02*
D03*
X342900D02*
D03*
X368300D02*
D03*
X393700D02*
D03*
X38100Y177800D02*
D03*
X63500D02*
D03*
X88900D02*
D03*
X114300D02*
D03*
X139700D02*
D03*
X165100D02*
D03*
X190500D02*
D03*
X215900D02*
D03*
X241300D02*
D03*
X266700D02*
D03*
X292100D02*
D03*
X317500D02*
D03*
X342900D02*
D03*
X368300D02*
D03*
X393700D02*
D03*
D80*
X419100Y165100D02*
D03*
Y12700D02*
D03*
X12700D02*
D03*
Y165100D02*
D03*
D97*
X17780Y118110D02*
D03*
Y143510D02*
D03*
D103*
X139765Y135499D02*
D03*
X317608Y42000D02*
D03*
X165015Y135499D02*
D03*
D104*
X163275Y68200D02*
D03*
D105*
X163671D02*
D03*
D106*
X418084Y63500D02*
D03*
X392684D02*
D03*
Y114300D02*
D03*
X418084D02*
D03*
X392684Y88900D02*
D03*
D107*
X139751Y127449D02*
D03*
Y143549D02*
D03*
X317620Y50050D02*
D03*
Y33950D02*
D03*
X165001Y127449D02*
D03*
Y143549D02*
D03*
D108*
X11888Y139700D02*
D03*
Y114300D02*
D03*
Y88900D02*
D03*
Y63500D02*
D03*
D109*
X424027Y144435D02*
D03*
Y33360D02*
D03*
M02*
