G04*
G04 #@! TF.GenerationSoftware,Altium Limited,Altium Designer,24.2.2 (26)*
G04*
G04 Layer_Color=2752767*
%FSLAX44Y44*%
%MOMM*%
G71*
G04*
G04 #@! TF.SameCoordinates,84A61C28-107D-4167-A594-B99BE37EB826*
G04*
G04*
G04 #@! TF.FilePolarity,Positive*
G04*
G01*
G75*
%ADD12C,0.1000*%
%ADD111C,0.0508*%
%ADD112C,0.0677*%
D12*
Y177800D02*
X431800D01*
Y0D02*
Y177800D01*
X0Y0D02*
X431800D01*
X0D02*
Y177800D01*
D111*
X137518Y10668D02*
Y14732D01*
X141582D01*
Y10668D01*
X137518D01*
X391518D02*
Y14732D01*
X395582D01*
Y10668D01*
X391518D01*
X112118D02*
Y14732D01*
X116182D01*
Y10668D01*
X112118D01*
X86718D02*
Y14732D01*
X90782D01*
Y10668D01*
X86718D01*
X188318D02*
Y14732D01*
X192382D01*
Y10668D01*
X188318D01*
X213718D02*
Y14732D01*
X217782D01*
Y10668D01*
X213718D01*
X289918D02*
Y14732D01*
X293982D01*
Y10668D01*
X289918D01*
X239118D02*
Y14732D01*
X243182D01*
Y10668D01*
X239118D01*
X340718D02*
Y14732D01*
X344782D01*
Y10668D01*
X340718D01*
X315318D02*
Y14732D01*
X319382D01*
Y10668D01*
X315318D01*
X61468D02*
Y14732D01*
X65532D01*
Y10668D01*
X61468D01*
X162918D02*
Y14732D01*
X166982D01*
Y10668D01*
X162918D01*
X264518D02*
Y14732D01*
X268582D01*
Y10668D01*
X264518D01*
X366118D02*
Y14732D01*
X370182D01*
Y10668D01*
X366118D01*
X36068D02*
Y14732D01*
X40132D01*
Y10668D01*
X36068D01*
Y-2032D02*
Y2032D01*
X40132D01*
Y-2032D01*
X36068D01*
X61468D02*
Y2032D01*
X65532D01*
Y-2032D01*
X61468D01*
X86868D02*
Y2032D01*
X90932D01*
Y-2032D01*
X86868D01*
X112268D02*
Y2032D01*
X116332D01*
Y-2032D01*
X112268D01*
X137668D02*
Y2032D01*
X141732D01*
Y-2032D01*
X137668D01*
X163068D02*
Y2032D01*
X167132D01*
Y-2032D01*
X163068D01*
X188468D02*
Y2032D01*
X192532D01*
Y-2032D01*
X188468D01*
X213868D02*
Y2032D01*
X217932D01*
Y-2032D01*
X213868D01*
X239268D02*
Y2032D01*
X243332D01*
Y-2032D01*
X239268D01*
X264668D02*
Y2032D01*
X268732D01*
Y-2032D01*
X264668D01*
X290068D02*
Y2032D01*
X294132D01*
Y-2032D01*
X290068D01*
X315468D02*
Y2032D01*
X319532D01*
Y-2032D01*
X315468D01*
X340868D02*
Y2032D01*
X344932D01*
Y-2032D01*
X340868D01*
X366268D02*
Y2032D01*
X370332D01*
Y-2032D01*
X366268D01*
X391668D02*
Y2032D01*
X395732D01*
Y-2032D01*
X391668D01*
X137518Y163068D02*
Y167132D01*
X141582D01*
Y163068D01*
X137518D01*
X391518D02*
Y167132D01*
X395582D01*
Y163068D01*
X391518D01*
X112118D02*
Y167132D01*
X116182D01*
Y163068D01*
X112118D01*
X86718D02*
Y167132D01*
X90782D01*
Y163068D01*
X86718D01*
X188318D02*
Y167132D01*
X192382D01*
Y163068D01*
X188318D01*
X213718D02*
Y167132D01*
X217782D01*
Y163068D01*
X213718D01*
X289918D02*
Y167132D01*
X293982D01*
Y163068D01*
X289918D01*
X239118D02*
Y167132D01*
X243182D01*
Y163068D01*
X239118D01*
X340718D02*
Y167132D01*
X344782D01*
Y163068D01*
X340718D01*
X315318D02*
Y167132D01*
X319382D01*
Y163068D01*
X315318D01*
X61468D02*
Y167132D01*
X65532D01*
Y163068D01*
X61468D01*
X162918D02*
Y167132D01*
X166982D01*
Y163068D01*
X162918D01*
X264518D02*
Y167132D01*
X268582D01*
Y163068D01*
X264518D01*
X366118D02*
Y167132D01*
X370182D01*
Y163068D01*
X366118D01*
X36068D02*
Y167132D01*
X40132D01*
Y163068D01*
X36068D01*
Y175768D02*
Y179832D01*
X40132D01*
Y175768D01*
X36068D01*
X61468D02*
Y179832D01*
X65532D01*
Y175768D01*
X61468D01*
X86868D02*
Y179832D01*
X90932D01*
Y175768D01*
X86868D01*
X112268D02*
Y179832D01*
X116332D01*
Y175768D01*
X112268D01*
X137668D02*
Y179832D01*
X141732D01*
Y175768D01*
X137668D01*
X163068D02*
Y179832D01*
X167132D01*
Y175768D01*
X163068D01*
X188468D02*
Y179832D01*
X192532D01*
Y175768D01*
X188468D01*
X213868D02*
Y179832D01*
X217932D01*
Y175768D01*
X213868D01*
X239268D02*
Y179832D01*
X243332D01*
Y175768D01*
X239268D01*
X264668D02*
Y179832D01*
X268732D01*
Y175768D01*
X264668D01*
X290068D02*
Y179832D01*
X294132D01*
Y175768D01*
X290068D01*
X315468D02*
Y179832D01*
X319532D01*
Y175768D01*
X315468D01*
X340868D02*
Y179832D01*
X344932D01*
Y175768D01*
X340868D01*
X366268D02*
Y179832D01*
X370332D01*
Y175768D01*
X366268D01*
X391668D02*
Y179832D01*
X395732D01*
Y175768D01*
X391668D01*
X139900Y35300D02*
X137868Y39364D01*
X141932D01*
X139900Y35300D01*
X104900Y30456D02*
X102868Y34520D01*
X106932D01*
X104900Y30456D01*
X112400D02*
X110368Y34520D01*
X114432D01*
X112400Y30456D01*
X119900D02*
X117868Y34520D01*
X121932D01*
X119900Y30456D01*
X306437Y98565D02*
X304405Y102629D01*
X308469D01*
X306437Y98565D01*
X319314Y86882D02*
X317282Y90946D01*
X321346D01*
X319314Y86882D01*
X353927Y95621D02*
X351895Y99685D01*
X355959D01*
X353927Y95621D01*
X354341Y86860D02*
X352309Y90924D01*
X356373D01*
X354341Y86860D01*
X331441Y102618D02*
X329408Y106682D01*
X333473D01*
X331441Y102618D01*
X320467Y98230D02*
X318435Y102294D01*
X322499D01*
X320467Y98230D01*
X322860Y103207D02*
X320828Y107271D01*
X324892D01*
X322860Y103207D01*
X330000Y35968D02*
X327968Y40032D01*
X332032D01*
X330000Y35968D01*
X342268Y74743D02*
X340236Y78807D01*
X344300D01*
X342268Y74743D01*
X334456Y153108D02*
X332424Y157172D01*
X336488D01*
X334456Y153108D01*
X298503Y136018D02*
X296471Y140082D01*
X300535D01*
X298503Y136018D01*
X328155Y136379D02*
X326123Y140443D01*
X330187D01*
X328155Y136379D01*
X315478Y135984D02*
X313446Y140048D01*
X317510D01*
X315478Y135984D01*
X308265Y136018D02*
X306233Y140082D01*
X310297D01*
X308265Y136018D01*
X337767Y86868D02*
X335735Y90932D01*
X339799D01*
X337767Y86868D01*
X376036Y147921D02*
X374004Y151985D01*
X378068D01*
X376036Y147921D01*
X373059Y143297D02*
X371027Y147361D01*
X375091D01*
X373059Y143297D01*
X337827Y98359D02*
X335795Y102423D01*
X339859D01*
X337827Y98359D01*
X127710Y157985D02*
X125678Y162049D01*
X129742D01*
X127710Y157985D01*
X130367Y66563D02*
X128335Y70627D01*
X132399D01*
X130367Y66563D01*
X130727Y79242D02*
X128695Y83306D01*
X132759D01*
X130727Y79242D01*
X123800Y65668D02*
X121768Y69732D01*
X125832D01*
X123800Y65668D01*
X95476Y63047D02*
X93443Y67111D01*
X97507D01*
X95476Y63047D01*
X133650Y58918D02*
X131618Y62982D01*
X135682D01*
X133650Y58918D01*
X333519Y119459D02*
X331487Y123523D01*
X335551D01*
X333519Y119459D01*
X304799Y158343D02*
X302767Y162407D01*
X306831D01*
X304799Y158343D01*
X341769Y118843D02*
X339737Y122907D01*
X343801D01*
X341769Y118843D01*
X353768Y101568D02*
X351736Y105632D01*
X355800D01*
X353768Y101568D01*
X368518Y139459D02*
X366487Y143523D01*
X370550D01*
X368518Y139459D01*
X346093Y68125D02*
X344061Y72189D01*
X348125D01*
X346093Y68125D01*
X332019Y86868D02*
X329987Y90932D01*
X334051D01*
X332019Y86868D01*
X147100Y70168D02*
X145068Y74232D01*
X149132D01*
X147100Y70168D01*
Y63168D02*
X145068Y67232D01*
X149132D01*
X147100Y63168D01*
X379822Y137252D02*
X377790Y141316D01*
X381854D01*
X379822Y137252D01*
X391700Y23868D02*
X389668Y27932D01*
X393732D01*
X391700Y23868D01*
X405700Y36868D02*
X403668Y40932D01*
X407732D01*
X405700Y36868D01*
X347700Y36368D02*
X345668Y40432D01*
X349732D01*
X347700Y36368D01*
X368700D02*
X366668Y40432D01*
X370732D01*
X368700Y36368D01*
X394700Y36868D02*
X392668Y40932D01*
X396732D01*
X394700Y36868D01*
X330726Y30094D02*
X328694Y34158D01*
X332758D01*
X330726Y30094D01*
X378518Y37037D02*
X376487Y41101D01*
X380550D01*
X378518Y37037D01*
X385518D02*
X383487Y41101D01*
X387551D01*
X385518Y37037D01*
X329519Y108314D02*
X327487Y112378D01*
X331551D01*
X329519Y108314D01*
X378954Y66935D02*
X376922Y70999D01*
X380986D01*
X378954Y66935D01*
X350815Y72378D02*
X348783Y76442D01*
X352847D01*
X350815Y72378D01*
X352127Y52896D02*
X350095Y56961D01*
X354159D01*
X352127Y52896D01*
X362282Y53132D02*
X360250Y57196D01*
X364314D01*
X362282Y53132D01*
X318517Y92367D02*
X316485Y96431D01*
X320549D01*
X318517Y92367D01*
X373518Y136959D02*
X371487Y141023D01*
X375550D01*
X373518Y136959D01*
X313519Y119459D02*
X311487Y123523D01*
X315551D01*
X313519Y119459D01*
X323519Y119459D02*
X321487Y123523D01*
X325551D01*
X323519Y119459D01*
X289862Y134906D02*
X287831Y138970D01*
X291894D01*
X289862Y134906D01*
X346213Y142696D02*
X344180Y146760D01*
X348245D01*
X346213Y142696D01*
X349653Y137122D02*
X347621Y141186D01*
X351685D01*
X349653Y137122D01*
X352137Y142049D02*
X350105Y146113D01*
X354169D01*
X352137Y142049D01*
X356170Y146304D02*
X354138Y150368D01*
X358202D01*
X356170Y146304D01*
X152100Y159068D02*
X150068Y163132D01*
X154132D01*
X152100Y159068D01*
X179046Y39282D02*
X177014Y43346D01*
X181078D01*
X179046Y39282D01*
X331046Y74282D02*
X329014Y78346D01*
X333078D01*
X331046Y74282D01*
X283871Y134748D02*
X281839Y138812D01*
X285903D01*
X283871Y134748D01*
X301966Y112483D02*
X299934Y116547D01*
X303998D01*
X301966Y112483D01*
X295000Y117968D02*
X292968Y122032D01*
X297032D01*
X295000Y117968D01*
X178000Y158968D02*
X175968Y163032D01*
X180032D01*
X178000Y158968D01*
X374937Y55535D02*
X372905Y59599D01*
X376969D01*
X374937Y55535D01*
X382770Y59799D02*
X380738Y63863D01*
X384802D01*
X382770Y59799D01*
X51000Y156968D02*
X48968Y161032D01*
X53032D01*
X51000Y156968D01*
X182797Y56473D02*
X180765Y60537D01*
X184829D01*
X182797Y56473D01*
X178358Y33121D02*
X176326Y37185D01*
X180390D01*
X178358Y33121D01*
X266650Y80427D02*
X264618Y84491D01*
X268682D01*
X266650Y80427D01*
X253950D02*
X251918Y84491D01*
X255982D01*
X253950Y80427D01*
Y103127D02*
X251918Y107191D01*
X255982D01*
X253950Y103127D01*
X306370Y87793D02*
X304338Y91857D01*
X308402D01*
X306370Y87793D01*
X205450Y120018D02*
X203418Y124082D01*
X207482D01*
X205450Y120018D01*
X329519Y53313D02*
X327487Y57377D01*
X331551D01*
X329519Y53313D01*
X340519D02*
X338487Y57377D01*
X342551D01*
X340519Y53313D01*
X249300Y123468D02*
X247268Y127532D01*
X251332D01*
X249300Y123468D01*
X223149Y49657D02*
X221117Y53721D01*
X225181D01*
X223149Y49657D01*
X217187Y49627D02*
X215155Y53691D01*
X219219D01*
X217187Y49627D01*
X213633Y45369D02*
X211601Y49433D01*
X215665D01*
X213633Y45369D01*
X276678Y115752D02*
X274646Y119816D01*
X278710D01*
X276678Y115752D01*
X164804Y108754D02*
X162772Y112818D01*
X166836D01*
X164804Y108754D01*
X133260Y105877D02*
X131228Y109941D01*
X135292D01*
X133260Y105877D01*
X179016Y26710D02*
X176984Y30774D01*
X181048D01*
X179016Y26710D01*
X192146Y51019D02*
X190114Y55083D01*
X194178D01*
X192146Y51019D01*
X208686Y42728D02*
X206654Y46792D01*
X210718D01*
X208686Y42728D01*
X205974Y47968D02*
X203942Y52032D01*
X208006D01*
X205974Y47968D01*
X203747Y56621D02*
X201715Y60685D01*
X205779D01*
X203747Y56621D01*
X199013Y33123D02*
X196981Y37187D01*
X201045D01*
X199013Y33123D01*
X49899Y98368D02*
X47867Y102432D01*
X51931D01*
X49899Y98368D01*
Y81868D02*
X47867Y85932D01*
X51931D01*
X49899Y81868D01*
X158992Y98759D02*
X156960Y102823D01*
X161024D01*
X158992Y98759D01*
X363513Y119242D02*
X361481Y123306D01*
X365545D01*
X363513Y119242D01*
X369639Y107243D02*
X367607Y111307D01*
X371671D01*
X369639Y107243D01*
X367380Y64840D02*
X365348Y68904D01*
X369412D01*
X367380Y64840D01*
X378879Y73054D02*
X376847Y77118D01*
X380911D01*
X378879Y73054D01*
X383467Y142419D02*
X381435Y146483D01*
X385499D01*
X383467Y142419D01*
X372686Y83288D02*
X370654Y87352D01*
X374718D01*
X372686Y83288D01*
X372707Y88839D02*
X370675Y92903D01*
X374739D01*
X372707Y88839D01*
X375930Y99142D02*
X373898Y103206D01*
X377962D01*
X375930Y99142D01*
X375945Y111378D02*
X373913Y115442D01*
X377977D01*
X375945Y111378D01*
X319974Y66851D02*
X317942Y70915D01*
X322006D01*
X319974Y66851D01*
X296755Y59696D02*
X294723Y63759D01*
X298787D01*
X296755Y59696D01*
X279899Y109368D02*
X277867Y113432D01*
X281931D01*
X279899Y109368D01*
X279812Y97712D02*
X277780Y101776D01*
X281844D01*
X279812Y97712D01*
X279899Y89868D02*
X277867Y93932D01*
X281931D01*
X279899Y89868D01*
X279949Y84314D02*
X277917Y88378D01*
X281981D01*
X279949Y84314D01*
X280314Y69777D02*
X278282Y73841D01*
X282346D01*
X280314Y69777D01*
X325417Y73453D02*
X323385Y77517D01*
X327449D01*
X325417Y73453D01*
X218603Y35287D02*
X216571Y39351D01*
X220635D01*
X218603Y35287D01*
X223367Y32444D02*
X221335Y36508D01*
X225399D01*
X223367Y32444D01*
X298752Y26860D02*
X296720Y30924D01*
X300784D01*
X298752Y26860D01*
X78400Y142368D02*
X76368Y146432D01*
X80432D01*
X78400Y142368D01*
X85650Y127368D02*
X83618Y131432D01*
X87682D01*
X85650Y127368D01*
X46110Y38238D02*
X44078Y42302D01*
X48142D01*
X46110Y38238D01*
X28892Y18991D02*
X26860Y23055D01*
X30924D01*
X28892Y18991D01*
X63415Y23610D02*
X61383Y27674D01*
X65447D01*
X63415Y23610D01*
X50884Y14437D02*
X48852Y18501D01*
X52916D01*
X50884Y14437D01*
X238127Y120519D02*
X236095Y124583D01*
X240159D01*
X238127Y120519D01*
X125500Y75218D02*
X123468Y79282D01*
X127532D01*
X125500Y75218D01*
X91337Y67139D02*
X89305Y71203D01*
X93369D01*
X91337Y67139D01*
X67000Y43718D02*
X64968Y47782D01*
X69032D01*
X67000Y43718D01*
X82526Y42922D02*
X80494Y46986D01*
X84558D01*
X82526Y42922D01*
X83762Y31093D02*
X81730Y35157D01*
X85794D01*
X83762Y31093D01*
X76000Y10718D02*
X73968Y14782D01*
X78032D01*
X76000Y10718D01*
X152300Y11218D02*
X150268Y15282D01*
X154332D01*
X152300Y11218D01*
X234255Y132506D02*
X232223Y136570D01*
X236287D01*
X234255Y132506D01*
X221568Y132371D02*
X219536Y136435D01*
X223600D01*
X221568Y132371D01*
X255632Y114575D02*
X253600Y118639D01*
X257664D01*
X255632Y114575D01*
X305986Y77670D02*
X303954Y81734D01*
X308018D01*
X305986Y77670D01*
X308607Y66167D02*
X306575Y70231D01*
X310639D01*
X308607Y66167D01*
X273600Y39824D02*
X271568Y43888D01*
X275632D01*
X273600Y39824D01*
X285263Y37130D02*
X283231Y41194D01*
X287295D01*
X285263Y37130D01*
X279721Y36680D02*
X277689Y40744D01*
X281753D01*
X279721Y36680D01*
X278747Y42567D02*
X276715Y46631D01*
X280779D01*
X278747Y42567D01*
X266593Y69223D02*
X264561Y73287D01*
X268625D01*
X266593Y69223D01*
X240038Y56891D02*
X238006Y60955D01*
X242070D01*
X240038Y56891D01*
X82942Y36660D02*
X80910Y40724D01*
X84974D01*
X82942Y36660D01*
X49399Y135617D02*
X47367Y139681D01*
X51431D01*
X49399Y135617D01*
X29999Y150717D02*
X27967Y154781D01*
X32031D01*
X29999Y150717D01*
X330384Y11054D02*
X328352Y15118D01*
X332416D01*
X330384Y11054D01*
X128560Y118853D02*
X126528Y122917D01*
X130591D01*
X128560Y118853D01*
X122000Y118868D02*
X119968Y122932D01*
X124032D01*
X122000Y118868D01*
X126000Y99368D02*
X123968Y103432D01*
X128032D01*
X126000Y99368D01*
X267718Y39867D02*
X265686Y43931D01*
X269750D01*
X267718Y39867D01*
X304984Y11054D02*
X302952Y15118D01*
X307016D01*
X304984Y11054D01*
X68935Y23603D02*
X66903Y27667D01*
X70967D01*
X68935Y23603D01*
X261344Y46493D02*
X259312Y50557D01*
X263376D01*
X261344Y46493D01*
X255138Y48882D02*
X253106Y52946D01*
X257170D01*
X255138Y48882D01*
X384168Y114865D02*
X382136Y118929D01*
X386200D01*
X384168Y114865D01*
X388121Y118842D02*
X386089Y122906D01*
X390153D01*
X388121Y118842D01*
X169386Y105712D02*
X167354Y109776D01*
X171418D01*
X169386Y105712D01*
X199414Y126413D02*
X197382Y130478D01*
X201446D01*
X199414Y126413D01*
X186500Y131468D02*
X184468Y135532D01*
X188532D01*
X186500Y131468D01*
X380526Y155432D02*
X378494Y159496D01*
X382558D01*
X380526Y155432D01*
X355340Y157672D02*
X353308Y161736D01*
X357372D01*
X355340Y157672D01*
X52229Y38309D02*
X50197Y42373D01*
X54261D01*
X52229Y38309D01*
X68000Y79968D02*
X65968Y84032D01*
X70032D01*
X68000Y79968D01*
X24000Y41968D02*
X21968Y46032D01*
X26032D01*
X24000Y41968D01*
X412831Y137710D02*
X410799Y141774D01*
X414864D01*
X412831Y137710D01*
X49899Y92868D02*
X47867Y96932D01*
X51931D01*
X49899Y92868D01*
Y87368D02*
X47867Y91432D01*
X51931D01*
X49899Y87368D01*
X279987Y64199D02*
X277955Y68263D01*
X282019D01*
X279987Y64199D01*
X273993Y64774D02*
X271961Y68838D01*
X276025D01*
X273993Y64774D01*
X27402Y70840D02*
X25370Y74903D01*
X29434D01*
X27402Y70840D01*
X29384Y99838D02*
X27352Y103902D01*
X31416D01*
X29384Y99838D01*
X407425Y24780D02*
X405393Y28844D01*
X409457D01*
X407425Y24780D01*
X415109Y148755D02*
X413077Y152819D01*
X417141D01*
X415109Y148755D01*
X77262Y72347D02*
X75230Y76411D01*
X79294D01*
X77262Y72347D01*
X158608Y92845D02*
X156576Y96910D01*
X160640D01*
X158608Y92845D01*
X193908Y74612D02*
X191876Y78676D01*
X195940D01*
X193908Y74612D01*
X183933Y112340D02*
X181901Y116404D01*
X185965D01*
X183933Y112340D01*
X182787Y106382D02*
X180755Y110446D01*
X184819D01*
X182787Y106382D01*
X190961Y103708D02*
X188929Y107772D01*
X192992D01*
X190961Y103708D01*
X199526Y99762D02*
X197494Y103827D01*
X201558D01*
X199526Y99762D01*
X202928Y72667D02*
X200896Y76731D01*
X204960D01*
X202928Y72667D01*
X208456Y72619D02*
X206424Y76683D01*
X210488D01*
X208456Y72619D01*
X218011Y88392D02*
X215979Y92456D01*
X220043D01*
X218011Y88392D01*
X159371Y78562D02*
X157339Y82626D01*
X161403D01*
X159371Y78562D01*
X201453Y84653D02*
X199421Y88717D01*
X203485D01*
X201453Y84653D01*
X201230Y78961D02*
X199198Y83025D01*
X203262D01*
X201230Y78961D01*
X227446Y73534D02*
X225414Y77598D01*
X229478D01*
X227446Y73534D01*
X239797Y86825D02*
X237765Y90889D01*
X241829D01*
X239797Y86825D01*
X207009Y99332D02*
X204977Y103396D01*
X209041D01*
X207009Y99332D01*
X224889Y101531D02*
X222857Y105595D01*
X226921D01*
X224889Y101531D01*
X212317Y108088D02*
X210285Y112152D01*
X214349D01*
X212317Y108088D01*
X207858Y113204D02*
X205826Y117268D01*
X209890D01*
X207858Y113204D01*
X122051Y139922D02*
X120019Y143986D01*
X124083D01*
X122051Y139922D01*
X111142Y141614D02*
X109110Y145678D01*
X113174D01*
X111142Y141614D01*
X152158Y140795D02*
X150126Y144859D01*
X154190D01*
X152158Y140795D01*
D112*
X421132Y165100D02*
G03*
X421132Y165100I-2032J0D01*
G01*
Y12700D02*
G03*
X421132Y12700I-2032J0D01*
G01*
X14732D02*
G03*
X14732Y12700I-2032J0D01*
G01*
Y165100D02*
G03*
X14732Y165100I-2032J0D01*
G01*
M02*
