%TF.GenerationSoftware,KiCad,Pcbnew,7.0.7*%
%TF.CreationDate,2025-03-26T10:17:06+05:30*%
%TF.ProjectId,VibAndHeat_Version1,56696241-6e64-4486-9561-745f56657273,rev?*%
%TF.SameCoordinates,Original*%
%TF.FileFunction,Legend,Top*%
%TF.FilePolarity,Positive*%
%FSLAX46Y46*%
G04 Gerber Fmt 4.6, Leading zero omitted, Abs format (unit mm)*
G04 Created by KiCad (PCBNEW 7.0.7) date 2025-03-26 10:17:06*
%MOMM*%
%LPD*%
G01*
G04 APERTURE LIST*
%ADD10C,0.150000*%
%ADD11C,0.100000*%
%ADD12C,0.120000*%
G04 APERTURE END LIST*
D10*
X114808000Y-64008000D02*
X164338000Y-64008000D01*
X164338000Y-133604000D01*
X114808000Y-133604000D01*
X114808000Y-64008000D01*
X161626779Y-69846866D02*
X162388684Y-69846866D01*
X152990779Y-80768866D02*
X153752684Y-80768866D01*
X161118779Y-106930866D02*
X161880684Y-106930866D01*
X161626779Y-75942866D02*
X162388684Y-75942866D01*
X162007731Y-76323819D02*
X162007731Y-75561914D01*
X116617779Y-122170866D02*
X117379684Y-122170866D01*
X119970779Y-105660866D02*
X120732684Y-105660866D01*
X115144779Y-128266866D02*
X115906684Y-128266866D01*
X115525731Y-128647819D02*
X115525731Y-127885914D01*
X116668779Y-120138866D02*
X117430684Y-120138866D01*
X163150779Y-128266866D02*
X163912684Y-128266866D01*
X163531731Y-128647819D02*
X163531731Y-127885914D01*
X116668779Y-69846866D02*
X117430684Y-69846866D01*
X116668779Y-114042866D02*
X117430684Y-114042866D01*
X117049731Y-114423819D02*
X117049731Y-113661914D01*
X161118779Y-115820866D02*
X161880684Y-115820866D01*
X161499731Y-116201819D02*
X161499731Y-115439914D01*
X116160779Y-105406866D02*
X116922684Y-105406866D01*
X116541731Y-105787819D02*
X116541731Y-105025914D01*
X116668779Y-75942866D02*
X117430684Y-75942866D01*
X117049731Y-76323819D02*
X117049731Y-75561914D01*
X161880779Y-122170866D02*
X162642684Y-122170866D01*
X152990779Y-78228866D02*
X153752684Y-78228866D01*
X153371731Y-78609819D02*
X153371731Y-77847914D01*
X119284761Y-128566057D02*
X119189523Y-128518438D01*
X119189523Y-128518438D02*
X119094285Y-128423200D01*
X119094285Y-128423200D02*
X118951428Y-128280342D01*
X118951428Y-128280342D02*
X118856190Y-128232723D01*
X118856190Y-128232723D02*
X118760952Y-128232723D01*
X118808571Y-128470819D02*
X118713333Y-128423200D01*
X118713333Y-128423200D02*
X118618095Y-128327961D01*
X118618095Y-128327961D02*
X118570476Y-128137485D01*
X118570476Y-128137485D02*
X118570476Y-127804152D01*
X118570476Y-127804152D02*
X118618095Y-127613676D01*
X118618095Y-127613676D02*
X118713333Y-127518438D01*
X118713333Y-127518438D02*
X118808571Y-127470819D01*
X118808571Y-127470819D02*
X118999047Y-127470819D01*
X118999047Y-127470819D02*
X119094285Y-127518438D01*
X119094285Y-127518438D02*
X119189523Y-127613676D01*
X119189523Y-127613676D02*
X119237142Y-127804152D01*
X119237142Y-127804152D02*
X119237142Y-128137485D01*
X119237142Y-128137485D02*
X119189523Y-128327961D01*
X119189523Y-128327961D02*
X119094285Y-128423200D01*
X119094285Y-128423200D02*
X118999047Y-128470819D01*
X118999047Y-128470819D02*
X118808571Y-128470819D01*
X119618095Y-127566057D02*
X119665714Y-127518438D01*
X119665714Y-127518438D02*
X119760952Y-127470819D01*
X119760952Y-127470819D02*
X119999047Y-127470819D01*
X119999047Y-127470819D02*
X120094285Y-127518438D01*
X120094285Y-127518438D02*
X120141904Y-127566057D01*
X120141904Y-127566057D02*
X120189523Y-127661295D01*
X120189523Y-127661295D02*
X120189523Y-127756533D01*
X120189523Y-127756533D02*
X120141904Y-127899390D01*
X120141904Y-127899390D02*
X119570476Y-128470819D01*
X119570476Y-128470819D02*
X120189523Y-128470819D01*
X158966819Y-75739237D02*
X159966819Y-75405904D01*
X159966819Y-75405904D02*
X158966819Y-75072571D01*
X159966819Y-74739237D02*
X159300152Y-74739237D01*
X158966819Y-74739237D02*
X159014438Y-74786856D01*
X159014438Y-74786856D02*
X159062057Y-74739237D01*
X159062057Y-74739237D02*
X159014438Y-74691618D01*
X159014438Y-74691618D02*
X158966819Y-74739237D01*
X158966819Y-74739237D02*
X159062057Y-74739237D01*
X159966819Y-74263047D02*
X158966819Y-74263047D01*
X159347771Y-74263047D02*
X159300152Y-74167809D01*
X159300152Y-74167809D02*
X159300152Y-73977333D01*
X159300152Y-73977333D02*
X159347771Y-73882095D01*
X159347771Y-73882095D02*
X159395390Y-73834476D01*
X159395390Y-73834476D02*
X159490628Y-73786857D01*
X159490628Y-73786857D02*
X159776342Y-73786857D01*
X159776342Y-73786857D02*
X159871580Y-73834476D01*
X159871580Y-73834476D02*
X159919200Y-73882095D01*
X159919200Y-73882095D02*
X159966819Y-73977333D01*
X159966819Y-73977333D02*
X159966819Y-74167809D01*
X159966819Y-74167809D02*
X159919200Y-74263047D01*
X159966819Y-73358285D02*
X158966819Y-73358285D01*
X158966819Y-73358285D02*
X159681104Y-73024952D01*
X159681104Y-73024952D02*
X158966819Y-72691619D01*
X158966819Y-72691619D02*
X159966819Y-72691619D01*
X159966819Y-72072571D02*
X159919200Y-72167809D01*
X159919200Y-72167809D02*
X159871580Y-72215428D01*
X159871580Y-72215428D02*
X159776342Y-72263047D01*
X159776342Y-72263047D02*
X159490628Y-72263047D01*
X159490628Y-72263047D02*
X159395390Y-72215428D01*
X159395390Y-72215428D02*
X159347771Y-72167809D01*
X159347771Y-72167809D02*
X159300152Y-72072571D01*
X159300152Y-72072571D02*
X159300152Y-71929714D01*
X159300152Y-71929714D02*
X159347771Y-71834476D01*
X159347771Y-71834476D02*
X159395390Y-71786857D01*
X159395390Y-71786857D02*
X159490628Y-71739238D01*
X159490628Y-71739238D02*
X159776342Y-71739238D01*
X159776342Y-71739238D02*
X159871580Y-71786857D01*
X159871580Y-71786857D02*
X159919200Y-71834476D01*
X159919200Y-71834476D02*
X159966819Y-71929714D01*
X159966819Y-71929714D02*
X159966819Y-72072571D01*
X159300152Y-71453523D02*
X159300152Y-71072571D01*
X158966819Y-71310666D02*
X159823961Y-71310666D01*
X159823961Y-71310666D02*
X159919200Y-71263047D01*
X159919200Y-71263047D02*
X159966819Y-71167809D01*
X159966819Y-71167809D02*
X159966819Y-71072571D01*
X159966819Y-70596380D02*
X159919200Y-70691618D01*
X159919200Y-70691618D02*
X159871580Y-70739237D01*
X159871580Y-70739237D02*
X159776342Y-70786856D01*
X159776342Y-70786856D02*
X159490628Y-70786856D01*
X159490628Y-70786856D02*
X159395390Y-70739237D01*
X159395390Y-70739237D02*
X159347771Y-70691618D01*
X159347771Y-70691618D02*
X159300152Y-70596380D01*
X159300152Y-70596380D02*
X159300152Y-70453523D01*
X159300152Y-70453523D02*
X159347771Y-70358285D01*
X159347771Y-70358285D02*
X159395390Y-70310666D01*
X159395390Y-70310666D02*
X159490628Y-70263047D01*
X159490628Y-70263047D02*
X159776342Y-70263047D01*
X159776342Y-70263047D02*
X159871580Y-70310666D01*
X159871580Y-70310666D02*
X159919200Y-70358285D01*
X159919200Y-70358285D02*
X159966819Y-70453523D01*
X159966819Y-70453523D02*
X159966819Y-70596380D01*
X159966819Y-69834475D02*
X159300152Y-69834475D01*
X159490628Y-69834475D02*
X159395390Y-69786856D01*
X159395390Y-69786856D02*
X159347771Y-69739237D01*
X159347771Y-69739237D02*
X159300152Y-69643999D01*
X159300152Y-69643999D02*
X159300152Y-69548761D01*
X130263046Y-93672819D02*
X130263046Y-92672819D01*
X130263046Y-92672819D02*
X130596379Y-93387104D01*
X130596379Y-93387104D02*
X130929712Y-92672819D01*
X130929712Y-92672819D02*
X130929712Y-93672819D01*
X131405903Y-93672819D02*
X131405903Y-93006152D01*
X131405903Y-92672819D02*
X131358284Y-92720438D01*
X131358284Y-92720438D02*
X131405903Y-92768057D01*
X131405903Y-92768057D02*
X131453522Y-92720438D01*
X131453522Y-92720438D02*
X131405903Y-92672819D01*
X131405903Y-92672819D02*
X131405903Y-92768057D01*
X132310664Y-93625200D02*
X132215426Y-93672819D01*
X132215426Y-93672819D02*
X132024950Y-93672819D01*
X132024950Y-93672819D02*
X131929712Y-93625200D01*
X131929712Y-93625200D02*
X131882093Y-93577580D01*
X131882093Y-93577580D02*
X131834474Y-93482342D01*
X131834474Y-93482342D02*
X131834474Y-93196628D01*
X131834474Y-93196628D02*
X131882093Y-93101390D01*
X131882093Y-93101390D02*
X131929712Y-93053771D01*
X131929712Y-93053771D02*
X132024950Y-93006152D01*
X132024950Y-93006152D02*
X132215426Y-93006152D01*
X132215426Y-93006152D02*
X132310664Y-93053771D01*
X132739236Y-93672819D02*
X132739236Y-93006152D01*
X132739236Y-93196628D02*
X132786855Y-93101390D01*
X132786855Y-93101390D02*
X132834474Y-93053771D01*
X132834474Y-93053771D02*
X132929712Y-93006152D01*
X132929712Y-93006152D02*
X133024950Y-93006152D01*
X133501141Y-93672819D02*
X133405903Y-93625200D01*
X133405903Y-93625200D02*
X133358284Y-93577580D01*
X133358284Y-93577580D02*
X133310665Y-93482342D01*
X133310665Y-93482342D02*
X133310665Y-93196628D01*
X133310665Y-93196628D02*
X133358284Y-93101390D01*
X133358284Y-93101390D02*
X133405903Y-93053771D01*
X133405903Y-93053771D02*
X133501141Y-93006152D01*
X133501141Y-93006152D02*
X133643998Y-93006152D01*
X133643998Y-93006152D02*
X133739236Y-93053771D01*
X133739236Y-93053771D02*
X133786855Y-93101390D01*
X133786855Y-93101390D02*
X133834474Y-93196628D01*
X133834474Y-93196628D02*
X133834474Y-93482342D01*
X133834474Y-93482342D02*
X133786855Y-93577580D01*
X133786855Y-93577580D02*
X133739236Y-93625200D01*
X133739236Y-93625200D02*
X133643998Y-93672819D01*
X133643998Y-93672819D02*
X133501141Y-93672819D01*
X134691617Y-93625200D02*
X134596379Y-93672819D01*
X134596379Y-93672819D02*
X134405903Y-93672819D01*
X134405903Y-93672819D02*
X134310665Y-93625200D01*
X134310665Y-93625200D02*
X134263046Y-93577580D01*
X134263046Y-93577580D02*
X134215427Y-93482342D01*
X134215427Y-93482342D02*
X134215427Y-93196628D01*
X134215427Y-93196628D02*
X134263046Y-93101390D01*
X134263046Y-93101390D02*
X134310665Y-93053771D01*
X134310665Y-93053771D02*
X134405903Y-93006152D01*
X134405903Y-93006152D02*
X134596379Y-93006152D01*
X134596379Y-93006152D02*
X134691617Y-93053771D01*
X135263046Y-93672819D02*
X135167808Y-93625200D01*
X135167808Y-93625200D02*
X135120189Y-93577580D01*
X135120189Y-93577580D02*
X135072570Y-93482342D01*
X135072570Y-93482342D02*
X135072570Y-93196628D01*
X135072570Y-93196628D02*
X135120189Y-93101390D01*
X135120189Y-93101390D02*
X135167808Y-93053771D01*
X135167808Y-93053771D02*
X135263046Y-93006152D01*
X135263046Y-93006152D02*
X135405903Y-93006152D01*
X135405903Y-93006152D02*
X135501141Y-93053771D01*
X135501141Y-93053771D02*
X135548760Y-93101390D01*
X135548760Y-93101390D02*
X135596379Y-93196628D01*
X135596379Y-93196628D02*
X135596379Y-93482342D01*
X135596379Y-93482342D02*
X135548760Y-93577580D01*
X135548760Y-93577580D02*
X135501141Y-93625200D01*
X135501141Y-93625200D02*
X135405903Y-93672819D01*
X135405903Y-93672819D02*
X135263046Y-93672819D01*
X136024951Y-93006152D02*
X136024951Y-93672819D01*
X136024951Y-93101390D02*
X136072570Y-93053771D01*
X136072570Y-93053771D02*
X136167808Y-93006152D01*
X136167808Y-93006152D02*
X136310665Y-93006152D01*
X136310665Y-93006152D02*
X136405903Y-93053771D01*
X136405903Y-93053771D02*
X136453522Y-93149009D01*
X136453522Y-93149009D02*
X136453522Y-93672819D01*
X136786856Y-93006152D02*
X137167808Y-93006152D01*
X136929713Y-92672819D02*
X136929713Y-93529961D01*
X136929713Y-93529961D02*
X136977332Y-93625200D01*
X136977332Y-93625200D02*
X137072570Y-93672819D01*
X137072570Y-93672819D02*
X137167808Y-93672819D01*
X137501142Y-93672819D02*
X137501142Y-93006152D01*
X137501142Y-93196628D02*
X137548761Y-93101390D01*
X137548761Y-93101390D02*
X137596380Y-93053771D01*
X137596380Y-93053771D02*
X137691618Y-93006152D01*
X137691618Y-93006152D02*
X137786856Y-93006152D01*
X138263047Y-93672819D02*
X138167809Y-93625200D01*
X138167809Y-93625200D02*
X138120190Y-93577580D01*
X138120190Y-93577580D02*
X138072571Y-93482342D01*
X138072571Y-93482342D02*
X138072571Y-93196628D01*
X138072571Y-93196628D02*
X138120190Y-93101390D01*
X138120190Y-93101390D02*
X138167809Y-93053771D01*
X138167809Y-93053771D02*
X138263047Y-93006152D01*
X138263047Y-93006152D02*
X138405904Y-93006152D01*
X138405904Y-93006152D02*
X138501142Y-93053771D01*
X138501142Y-93053771D02*
X138548761Y-93101390D01*
X138548761Y-93101390D02*
X138596380Y-93196628D01*
X138596380Y-93196628D02*
X138596380Y-93482342D01*
X138596380Y-93482342D02*
X138548761Y-93577580D01*
X138548761Y-93577580D02*
X138501142Y-93625200D01*
X138501142Y-93625200D02*
X138405904Y-93672819D01*
X138405904Y-93672819D02*
X138263047Y-93672819D01*
X139167809Y-93672819D02*
X139072571Y-93625200D01*
X139072571Y-93625200D02*
X139024952Y-93529961D01*
X139024952Y-93529961D02*
X139024952Y-92672819D01*
X139691619Y-93672819D02*
X139596381Y-93625200D01*
X139596381Y-93625200D02*
X139548762Y-93529961D01*
X139548762Y-93529961D02*
X139548762Y-92672819D01*
X140453524Y-93625200D02*
X140358286Y-93672819D01*
X140358286Y-93672819D02*
X140167810Y-93672819D01*
X140167810Y-93672819D02*
X140072572Y-93625200D01*
X140072572Y-93625200D02*
X140024953Y-93529961D01*
X140024953Y-93529961D02*
X140024953Y-93149009D01*
X140024953Y-93149009D02*
X140072572Y-93053771D01*
X140072572Y-93053771D02*
X140167810Y-93006152D01*
X140167810Y-93006152D02*
X140358286Y-93006152D01*
X140358286Y-93006152D02*
X140453524Y-93053771D01*
X140453524Y-93053771D02*
X140501143Y-93149009D01*
X140501143Y-93149009D02*
X140501143Y-93244247D01*
X140501143Y-93244247D02*
X140024953Y-93339485D01*
X140929715Y-93672819D02*
X140929715Y-93006152D01*
X140929715Y-93196628D02*
X140977334Y-93101390D01*
X140977334Y-93101390D02*
X141024953Y-93053771D01*
X141024953Y-93053771D02*
X141120191Y-93006152D01*
X141120191Y-93006152D02*
X141215429Y-93006152D01*
X142072572Y-93672819D02*
X141501144Y-93672819D01*
X141786858Y-93672819D02*
X141786858Y-92672819D01*
X141786858Y-92672819D02*
X141691620Y-92815676D01*
X141691620Y-92815676D02*
X141596382Y-92910914D01*
X141596382Y-92910914D02*
X141501144Y-92958533D01*
X119088819Y-75739237D02*
X120088819Y-75405904D01*
X120088819Y-75405904D02*
X119088819Y-75072571D01*
X120088819Y-74739237D02*
X119422152Y-74739237D01*
X119088819Y-74739237D02*
X119136438Y-74786856D01*
X119136438Y-74786856D02*
X119184057Y-74739237D01*
X119184057Y-74739237D02*
X119136438Y-74691618D01*
X119136438Y-74691618D02*
X119088819Y-74739237D01*
X119088819Y-74739237D02*
X119184057Y-74739237D01*
X120088819Y-74263047D02*
X119088819Y-74263047D01*
X119469771Y-74263047D02*
X119422152Y-74167809D01*
X119422152Y-74167809D02*
X119422152Y-73977333D01*
X119422152Y-73977333D02*
X119469771Y-73882095D01*
X119469771Y-73882095D02*
X119517390Y-73834476D01*
X119517390Y-73834476D02*
X119612628Y-73786857D01*
X119612628Y-73786857D02*
X119898342Y-73786857D01*
X119898342Y-73786857D02*
X119993580Y-73834476D01*
X119993580Y-73834476D02*
X120041200Y-73882095D01*
X120041200Y-73882095D02*
X120088819Y-73977333D01*
X120088819Y-73977333D02*
X120088819Y-74167809D01*
X120088819Y-74167809D02*
X120041200Y-74263047D01*
X120088819Y-73358285D02*
X119088819Y-73358285D01*
X119088819Y-73358285D02*
X119803104Y-73024952D01*
X119803104Y-73024952D02*
X119088819Y-72691619D01*
X119088819Y-72691619D02*
X120088819Y-72691619D01*
X120088819Y-72072571D02*
X120041200Y-72167809D01*
X120041200Y-72167809D02*
X119993580Y-72215428D01*
X119993580Y-72215428D02*
X119898342Y-72263047D01*
X119898342Y-72263047D02*
X119612628Y-72263047D01*
X119612628Y-72263047D02*
X119517390Y-72215428D01*
X119517390Y-72215428D02*
X119469771Y-72167809D01*
X119469771Y-72167809D02*
X119422152Y-72072571D01*
X119422152Y-72072571D02*
X119422152Y-71929714D01*
X119422152Y-71929714D02*
X119469771Y-71834476D01*
X119469771Y-71834476D02*
X119517390Y-71786857D01*
X119517390Y-71786857D02*
X119612628Y-71739238D01*
X119612628Y-71739238D02*
X119898342Y-71739238D01*
X119898342Y-71739238D02*
X119993580Y-71786857D01*
X119993580Y-71786857D02*
X120041200Y-71834476D01*
X120041200Y-71834476D02*
X120088819Y-71929714D01*
X120088819Y-71929714D02*
X120088819Y-72072571D01*
X119422152Y-71453523D02*
X119422152Y-71072571D01*
X119088819Y-71310666D02*
X119945961Y-71310666D01*
X119945961Y-71310666D02*
X120041200Y-71263047D01*
X120041200Y-71263047D02*
X120088819Y-71167809D01*
X120088819Y-71167809D02*
X120088819Y-71072571D01*
X120088819Y-70596380D02*
X120041200Y-70691618D01*
X120041200Y-70691618D02*
X119993580Y-70739237D01*
X119993580Y-70739237D02*
X119898342Y-70786856D01*
X119898342Y-70786856D02*
X119612628Y-70786856D01*
X119612628Y-70786856D02*
X119517390Y-70739237D01*
X119517390Y-70739237D02*
X119469771Y-70691618D01*
X119469771Y-70691618D02*
X119422152Y-70596380D01*
X119422152Y-70596380D02*
X119422152Y-70453523D01*
X119422152Y-70453523D02*
X119469771Y-70358285D01*
X119469771Y-70358285D02*
X119517390Y-70310666D01*
X119517390Y-70310666D02*
X119612628Y-70263047D01*
X119612628Y-70263047D02*
X119898342Y-70263047D01*
X119898342Y-70263047D02*
X119993580Y-70310666D01*
X119993580Y-70310666D02*
X120041200Y-70358285D01*
X120041200Y-70358285D02*
X120088819Y-70453523D01*
X120088819Y-70453523D02*
X120088819Y-70596380D01*
X120088819Y-69834475D02*
X119422152Y-69834475D01*
X119612628Y-69834475D02*
X119517390Y-69786856D01*
X119517390Y-69786856D02*
X119469771Y-69739237D01*
X119469771Y-69739237D02*
X119422152Y-69643999D01*
X119422152Y-69643999D02*
X119422152Y-69548761D01*
X126142761Y-65320057D02*
X126047523Y-65272438D01*
X126047523Y-65272438D02*
X125952285Y-65177200D01*
X125952285Y-65177200D02*
X125809428Y-65034342D01*
X125809428Y-65034342D02*
X125714190Y-64986723D01*
X125714190Y-64986723D02*
X125618952Y-64986723D01*
X125666571Y-65224819D02*
X125571333Y-65177200D01*
X125571333Y-65177200D02*
X125476095Y-65081961D01*
X125476095Y-65081961D02*
X125428476Y-64891485D01*
X125428476Y-64891485D02*
X125428476Y-64558152D01*
X125428476Y-64558152D02*
X125476095Y-64367676D01*
X125476095Y-64367676D02*
X125571333Y-64272438D01*
X125571333Y-64272438D02*
X125666571Y-64224819D01*
X125666571Y-64224819D02*
X125857047Y-64224819D01*
X125857047Y-64224819D02*
X125952285Y-64272438D01*
X125952285Y-64272438D02*
X126047523Y-64367676D01*
X126047523Y-64367676D02*
X126095142Y-64558152D01*
X126095142Y-64558152D02*
X126095142Y-64891485D01*
X126095142Y-64891485D02*
X126047523Y-65081961D01*
X126047523Y-65081961D02*
X125952285Y-65177200D01*
X125952285Y-65177200D02*
X125857047Y-65224819D01*
X125857047Y-65224819D02*
X125666571Y-65224819D01*
X127047523Y-65224819D02*
X126476095Y-65224819D01*
X126761809Y-65224819D02*
X126761809Y-64224819D01*
X126761809Y-64224819D02*
X126666571Y-64367676D01*
X126666571Y-64367676D02*
X126571333Y-64462914D01*
X126571333Y-64462914D02*
X126476095Y-64510533D01*
X119565009Y-120030381D02*
X119612628Y-119887524D01*
X119612628Y-119887524D02*
X119660247Y-119839905D01*
X119660247Y-119839905D02*
X119755485Y-119792286D01*
X119755485Y-119792286D02*
X119898342Y-119792286D01*
X119898342Y-119792286D02*
X119993580Y-119839905D01*
X119993580Y-119839905D02*
X120041200Y-119887524D01*
X120041200Y-119887524D02*
X120088819Y-119982762D01*
X120088819Y-119982762D02*
X120088819Y-120363714D01*
X120088819Y-120363714D02*
X119088819Y-120363714D01*
X119088819Y-120363714D02*
X119088819Y-120030381D01*
X119088819Y-120030381D02*
X119136438Y-119935143D01*
X119136438Y-119935143D02*
X119184057Y-119887524D01*
X119184057Y-119887524D02*
X119279295Y-119839905D01*
X119279295Y-119839905D02*
X119374533Y-119839905D01*
X119374533Y-119839905D02*
X119469771Y-119887524D01*
X119469771Y-119887524D02*
X119517390Y-119935143D01*
X119517390Y-119935143D02*
X119565009Y-120030381D01*
X119565009Y-120030381D02*
X119565009Y-120363714D01*
X120088819Y-118935143D02*
X119565009Y-118935143D01*
X119565009Y-118935143D02*
X119469771Y-118982762D01*
X119469771Y-118982762D02*
X119422152Y-119078000D01*
X119422152Y-119078000D02*
X119422152Y-119268476D01*
X119422152Y-119268476D02*
X119469771Y-119363714D01*
X120041200Y-118935143D02*
X120088819Y-119030381D01*
X120088819Y-119030381D02*
X120088819Y-119268476D01*
X120088819Y-119268476D02*
X120041200Y-119363714D01*
X120041200Y-119363714D02*
X119945961Y-119411333D01*
X119945961Y-119411333D02*
X119850723Y-119411333D01*
X119850723Y-119411333D02*
X119755485Y-119363714D01*
X119755485Y-119363714D02*
X119707866Y-119268476D01*
X119707866Y-119268476D02*
X119707866Y-119030381D01*
X119707866Y-119030381D02*
X119660247Y-118935143D01*
X119422152Y-118601809D02*
X119422152Y-118220857D01*
X119088819Y-118458952D02*
X119945961Y-118458952D01*
X119945961Y-118458952D02*
X120041200Y-118411333D01*
X120041200Y-118411333D02*
X120088819Y-118316095D01*
X120088819Y-118316095D02*
X120088819Y-118220857D01*
X119422152Y-118030380D02*
X119422152Y-117649428D01*
X119088819Y-117887523D02*
X119945961Y-117887523D01*
X119945961Y-117887523D02*
X120041200Y-117839904D01*
X120041200Y-117839904D02*
X120088819Y-117744666D01*
X120088819Y-117744666D02*
X120088819Y-117649428D01*
X120041200Y-116935142D02*
X120088819Y-117030380D01*
X120088819Y-117030380D02*
X120088819Y-117220856D01*
X120088819Y-117220856D02*
X120041200Y-117316094D01*
X120041200Y-117316094D02*
X119945961Y-117363713D01*
X119945961Y-117363713D02*
X119565009Y-117363713D01*
X119565009Y-117363713D02*
X119469771Y-117316094D01*
X119469771Y-117316094D02*
X119422152Y-117220856D01*
X119422152Y-117220856D02*
X119422152Y-117030380D01*
X119422152Y-117030380D02*
X119469771Y-116935142D01*
X119469771Y-116935142D02*
X119565009Y-116887523D01*
X119565009Y-116887523D02*
X119660247Y-116887523D01*
X119660247Y-116887523D02*
X119755485Y-117363713D01*
X120088819Y-116458951D02*
X119422152Y-116458951D01*
X119612628Y-116458951D02*
X119517390Y-116411332D01*
X119517390Y-116411332D02*
X119469771Y-116363713D01*
X119469771Y-116363713D02*
X119422152Y-116268475D01*
X119422152Y-116268475D02*
X119422152Y-116173237D01*
X119422152Y-115935141D02*
X120088819Y-115697046D01*
X119422152Y-115458951D02*
X120088819Y-115697046D01*
X120088819Y-115697046D02*
X120326914Y-115792284D01*
X120326914Y-115792284D02*
X120374533Y-115839903D01*
X120374533Y-115839903D02*
X120422152Y-115935141D01*
X120088819Y-115077998D02*
X119088819Y-115077998D01*
X119422152Y-114601808D02*
X120088819Y-114601808D01*
X119517390Y-114601808D02*
X119469771Y-114554189D01*
X119469771Y-114554189D02*
X119422152Y-114458951D01*
X119422152Y-114458951D02*
X119422152Y-114316094D01*
X119422152Y-114316094D02*
X119469771Y-114220856D01*
X119469771Y-114220856D02*
X119565009Y-114173237D01*
X119565009Y-114173237D02*
X120088819Y-114173237D01*
X119422152Y-113697046D02*
X120422152Y-113697046D01*
X119469771Y-113697046D02*
X119422152Y-113601808D01*
X119422152Y-113601808D02*
X119422152Y-113411332D01*
X119422152Y-113411332D02*
X119469771Y-113316094D01*
X119469771Y-113316094D02*
X119517390Y-113268475D01*
X119517390Y-113268475D02*
X119612628Y-113220856D01*
X119612628Y-113220856D02*
X119898342Y-113220856D01*
X119898342Y-113220856D02*
X119993580Y-113268475D01*
X119993580Y-113268475D02*
X120041200Y-113316094D01*
X120041200Y-113316094D02*
X120088819Y-113411332D01*
X120088819Y-113411332D02*
X120088819Y-113601808D01*
X120088819Y-113601808D02*
X120041200Y-113697046D01*
X119422152Y-112363713D02*
X120088819Y-112363713D01*
X119422152Y-112792284D02*
X119945961Y-112792284D01*
X119945961Y-112792284D02*
X120041200Y-112744665D01*
X120041200Y-112744665D02*
X120088819Y-112649427D01*
X120088819Y-112649427D02*
X120088819Y-112506570D01*
X120088819Y-112506570D02*
X120041200Y-112411332D01*
X120041200Y-112411332D02*
X119993580Y-112363713D01*
X119422152Y-112030379D02*
X119422152Y-111649427D01*
X119088819Y-111887522D02*
X119945961Y-111887522D01*
X119945961Y-111887522D02*
X120041200Y-111839903D01*
X120041200Y-111839903D02*
X120088819Y-111744665D01*
X120088819Y-111744665D02*
X120088819Y-111649427D01*
X133508761Y-112310057D02*
X133413523Y-112262438D01*
X133413523Y-112262438D02*
X133318285Y-112167200D01*
X133318285Y-112167200D02*
X133175428Y-112024342D01*
X133175428Y-112024342D02*
X133080190Y-111976723D01*
X133080190Y-111976723D02*
X132984952Y-111976723D01*
X133032571Y-112214819D02*
X132937333Y-112167200D01*
X132937333Y-112167200D02*
X132842095Y-112071961D01*
X132842095Y-112071961D02*
X132794476Y-111881485D01*
X132794476Y-111881485D02*
X132794476Y-111548152D01*
X132794476Y-111548152D02*
X132842095Y-111357676D01*
X132842095Y-111357676D02*
X132937333Y-111262438D01*
X132937333Y-111262438D02*
X133032571Y-111214819D01*
X133032571Y-111214819D02*
X133223047Y-111214819D01*
X133223047Y-111214819D02*
X133318285Y-111262438D01*
X133318285Y-111262438D02*
X133413523Y-111357676D01*
X133413523Y-111357676D02*
X133461142Y-111548152D01*
X133461142Y-111548152D02*
X133461142Y-111881485D01*
X133461142Y-111881485D02*
X133413523Y-112071961D01*
X133413523Y-112071961D02*
X133318285Y-112167200D01*
X133318285Y-112167200D02*
X133223047Y-112214819D01*
X133223047Y-112214819D02*
X133032571Y-112214819D01*
X134365904Y-111214819D02*
X133889714Y-111214819D01*
X133889714Y-111214819D02*
X133842095Y-111691009D01*
X133842095Y-111691009D02*
X133889714Y-111643390D01*
X133889714Y-111643390D02*
X133984952Y-111595771D01*
X133984952Y-111595771D02*
X134223047Y-111595771D01*
X134223047Y-111595771D02*
X134318285Y-111643390D01*
X134318285Y-111643390D02*
X134365904Y-111691009D01*
X134365904Y-111691009D02*
X134413523Y-111786247D01*
X134413523Y-111786247D02*
X134413523Y-112024342D01*
X134413523Y-112024342D02*
X134365904Y-112119580D01*
X134365904Y-112119580D02*
X134318285Y-112167200D01*
X134318285Y-112167200D02*
X134223047Y-112214819D01*
X134223047Y-112214819D02*
X133984952Y-112214819D01*
X133984952Y-112214819D02*
X133889714Y-112167200D01*
X133889714Y-112167200D02*
X133842095Y-112119580D01*
X152304761Y-65574057D02*
X152209523Y-65526438D01*
X152209523Y-65526438D02*
X152114285Y-65431200D01*
X152114285Y-65431200D02*
X151971428Y-65288342D01*
X151971428Y-65288342D02*
X151876190Y-65240723D01*
X151876190Y-65240723D02*
X151780952Y-65240723D01*
X151828571Y-65478819D02*
X151733333Y-65431200D01*
X151733333Y-65431200D02*
X151638095Y-65335961D01*
X151638095Y-65335961D02*
X151590476Y-65145485D01*
X151590476Y-65145485D02*
X151590476Y-64812152D01*
X151590476Y-64812152D02*
X151638095Y-64621676D01*
X151638095Y-64621676D02*
X151733333Y-64526438D01*
X151733333Y-64526438D02*
X151828571Y-64478819D01*
X151828571Y-64478819D02*
X152019047Y-64478819D01*
X152019047Y-64478819D02*
X152114285Y-64526438D01*
X152114285Y-64526438D02*
X152209523Y-64621676D01*
X152209523Y-64621676D02*
X152257142Y-64812152D01*
X152257142Y-64812152D02*
X152257142Y-65145485D01*
X152257142Y-65145485D02*
X152209523Y-65335961D01*
X152209523Y-65335961D02*
X152114285Y-65431200D01*
X152114285Y-65431200D02*
X152019047Y-65478819D01*
X152019047Y-65478819D02*
X151828571Y-65478819D01*
X152590476Y-64478819D02*
X153209523Y-64478819D01*
X153209523Y-64478819D02*
X152876190Y-64859771D01*
X152876190Y-64859771D02*
X153019047Y-64859771D01*
X153019047Y-64859771D02*
X153114285Y-64907390D01*
X153114285Y-64907390D02*
X153161904Y-64955009D01*
X153161904Y-64955009D02*
X153209523Y-65050247D01*
X153209523Y-65050247D02*
X153209523Y-65288342D01*
X153209523Y-65288342D02*
X153161904Y-65383580D01*
X153161904Y-65383580D02*
X153114285Y-65431200D01*
X153114285Y-65431200D02*
X153019047Y-65478819D01*
X153019047Y-65478819D02*
X152733333Y-65478819D01*
X152733333Y-65478819D02*
X152638095Y-65431200D01*
X152638095Y-65431200D02*
X152590476Y-65383580D01*
X117276761Y-109166819D02*
X116800571Y-109166819D01*
X116800571Y-109166819D02*
X116800571Y-108166819D01*
X117514857Y-108166819D02*
X118181523Y-108166819D01*
X118181523Y-108166819D02*
X117752952Y-109166819D01*
X118705333Y-108595390D02*
X118610095Y-108547771D01*
X118610095Y-108547771D02*
X118562476Y-108500152D01*
X118562476Y-108500152D02*
X118514857Y-108404914D01*
X118514857Y-108404914D02*
X118514857Y-108357295D01*
X118514857Y-108357295D02*
X118562476Y-108262057D01*
X118562476Y-108262057D02*
X118610095Y-108214438D01*
X118610095Y-108214438D02*
X118705333Y-108166819D01*
X118705333Y-108166819D02*
X118895809Y-108166819D01*
X118895809Y-108166819D02*
X118991047Y-108214438D01*
X118991047Y-108214438D02*
X119038666Y-108262057D01*
X119038666Y-108262057D02*
X119086285Y-108357295D01*
X119086285Y-108357295D02*
X119086285Y-108404914D01*
X119086285Y-108404914D02*
X119038666Y-108500152D01*
X119038666Y-108500152D02*
X118991047Y-108547771D01*
X118991047Y-108547771D02*
X118895809Y-108595390D01*
X118895809Y-108595390D02*
X118705333Y-108595390D01*
X118705333Y-108595390D02*
X118610095Y-108643009D01*
X118610095Y-108643009D02*
X118562476Y-108690628D01*
X118562476Y-108690628D02*
X118514857Y-108785866D01*
X118514857Y-108785866D02*
X118514857Y-108976342D01*
X118514857Y-108976342D02*
X118562476Y-109071580D01*
X118562476Y-109071580D02*
X118610095Y-109119200D01*
X118610095Y-109119200D02*
X118705333Y-109166819D01*
X118705333Y-109166819D02*
X118895809Y-109166819D01*
X118895809Y-109166819D02*
X118991047Y-109119200D01*
X118991047Y-109119200D02*
X119038666Y-109071580D01*
X119038666Y-109071580D02*
X119086285Y-108976342D01*
X119086285Y-108976342D02*
X119086285Y-108785866D01*
X119086285Y-108785866D02*
X119038666Y-108690628D01*
X119038666Y-108690628D02*
X118991047Y-108643009D01*
X118991047Y-108643009D02*
X118895809Y-108595390D01*
X119705333Y-108166819D02*
X119800571Y-108166819D01*
X119800571Y-108166819D02*
X119895809Y-108214438D01*
X119895809Y-108214438D02*
X119943428Y-108262057D01*
X119943428Y-108262057D02*
X119991047Y-108357295D01*
X119991047Y-108357295D02*
X120038666Y-108547771D01*
X120038666Y-108547771D02*
X120038666Y-108785866D01*
X120038666Y-108785866D02*
X119991047Y-108976342D01*
X119991047Y-108976342D02*
X119943428Y-109071580D01*
X119943428Y-109071580D02*
X119895809Y-109119200D01*
X119895809Y-109119200D02*
X119800571Y-109166819D01*
X119800571Y-109166819D02*
X119705333Y-109166819D01*
X119705333Y-109166819D02*
X119610095Y-109119200D01*
X119610095Y-109119200D02*
X119562476Y-109071580D01*
X119562476Y-109071580D02*
X119514857Y-108976342D01*
X119514857Y-108976342D02*
X119467238Y-108785866D01*
X119467238Y-108785866D02*
X119467238Y-108547771D01*
X119467238Y-108547771D02*
X119514857Y-108357295D01*
X119514857Y-108357295D02*
X119562476Y-108262057D01*
X119562476Y-108262057D02*
X119610095Y-108214438D01*
X119610095Y-108214438D02*
X119705333Y-108166819D01*
X120943428Y-108166819D02*
X120467238Y-108166819D01*
X120467238Y-108166819D02*
X120419619Y-108643009D01*
X120419619Y-108643009D02*
X120467238Y-108595390D01*
X120467238Y-108595390D02*
X120562476Y-108547771D01*
X120562476Y-108547771D02*
X120800571Y-108547771D01*
X120800571Y-108547771D02*
X120895809Y-108595390D01*
X120895809Y-108595390D02*
X120943428Y-108643009D01*
X120943428Y-108643009D02*
X120991047Y-108738247D01*
X120991047Y-108738247D02*
X120991047Y-108976342D01*
X120991047Y-108976342D02*
X120943428Y-109071580D01*
X120943428Y-109071580D02*
X120895809Y-109119200D01*
X120895809Y-109119200D02*
X120800571Y-109166819D01*
X120800571Y-109166819D02*
X120562476Y-109166819D01*
X120562476Y-109166819D02*
X120467238Y-109119200D01*
X120467238Y-109119200D02*
X120419619Y-109071580D01*
D11*
X151129904Y-112556580D02*
X151129904Y-111747057D01*
X151129904Y-111747057D02*
X151082285Y-111651819D01*
X151082285Y-111651819D02*
X151034666Y-111604200D01*
X151034666Y-111604200D02*
X150939428Y-111556580D01*
X150939428Y-111556580D02*
X150748952Y-111556580D01*
X150748952Y-111556580D02*
X150653714Y-111604200D01*
X150653714Y-111604200D02*
X150606095Y-111651819D01*
X150606095Y-111651819D02*
X150558476Y-111747057D01*
X150558476Y-111747057D02*
X150558476Y-112556580D01*
X150129904Y-112461342D02*
X150082285Y-112508961D01*
X150082285Y-112508961D02*
X149987047Y-112556580D01*
X149987047Y-112556580D02*
X149748952Y-112556580D01*
X149748952Y-112556580D02*
X149653714Y-112508961D01*
X149653714Y-112508961D02*
X149606095Y-112461342D01*
X149606095Y-112461342D02*
X149558476Y-112366104D01*
X149558476Y-112366104D02*
X149558476Y-112270866D01*
X149558476Y-112270866D02*
X149606095Y-112128009D01*
X149606095Y-112128009D02*
X150177523Y-111556580D01*
X150177523Y-111556580D02*
X149558476Y-111556580D01*
D10*
X157940762Y-120358819D02*
X158274095Y-121358819D01*
X158274095Y-121358819D02*
X158607428Y-120358819D01*
X158940762Y-121358819D02*
X158940762Y-120692152D01*
X158940762Y-120358819D02*
X158893143Y-120406438D01*
X158893143Y-120406438D02*
X158940762Y-120454057D01*
X158940762Y-120454057D02*
X158988381Y-120406438D01*
X158988381Y-120406438D02*
X158940762Y-120358819D01*
X158940762Y-120358819D02*
X158940762Y-120454057D01*
X159416952Y-121358819D02*
X159416952Y-120358819D01*
X159416952Y-120739771D02*
X159512190Y-120692152D01*
X159512190Y-120692152D02*
X159702666Y-120692152D01*
X159702666Y-120692152D02*
X159797904Y-120739771D01*
X159797904Y-120739771D02*
X159845523Y-120787390D01*
X159845523Y-120787390D02*
X159893142Y-120882628D01*
X159893142Y-120882628D02*
X159893142Y-121168342D01*
X159893142Y-121168342D02*
X159845523Y-121263580D01*
X159845523Y-121263580D02*
X159797904Y-121311200D01*
X159797904Y-121311200D02*
X159702666Y-121358819D01*
X159702666Y-121358819D02*
X159512190Y-121358819D01*
X159512190Y-121358819D02*
X159416952Y-121311200D01*
X160321714Y-121358819D02*
X160321714Y-120358819D01*
X160321714Y-120358819D02*
X160655047Y-121073104D01*
X160655047Y-121073104D02*
X160988380Y-120358819D01*
X160988380Y-120358819D02*
X160988380Y-121358819D01*
X161607428Y-121358819D02*
X161512190Y-121311200D01*
X161512190Y-121311200D02*
X161464571Y-121263580D01*
X161464571Y-121263580D02*
X161416952Y-121168342D01*
X161416952Y-121168342D02*
X161416952Y-120882628D01*
X161416952Y-120882628D02*
X161464571Y-120787390D01*
X161464571Y-120787390D02*
X161512190Y-120739771D01*
X161512190Y-120739771D02*
X161607428Y-120692152D01*
X161607428Y-120692152D02*
X161750285Y-120692152D01*
X161750285Y-120692152D02*
X161845523Y-120739771D01*
X161845523Y-120739771D02*
X161893142Y-120787390D01*
X161893142Y-120787390D02*
X161940761Y-120882628D01*
X161940761Y-120882628D02*
X161940761Y-121168342D01*
X161940761Y-121168342D02*
X161893142Y-121263580D01*
X161893142Y-121263580D02*
X161845523Y-121311200D01*
X161845523Y-121311200D02*
X161750285Y-121358819D01*
X161750285Y-121358819D02*
X161607428Y-121358819D01*
X162226476Y-120692152D02*
X162607428Y-120692152D01*
X162369333Y-120358819D02*
X162369333Y-121215961D01*
X162369333Y-121215961D02*
X162416952Y-121311200D01*
X162416952Y-121311200D02*
X162512190Y-121358819D01*
X162512190Y-121358819D02*
X162607428Y-121358819D01*
X163083619Y-121358819D02*
X162988381Y-121311200D01*
X162988381Y-121311200D02*
X162940762Y-121263580D01*
X162940762Y-121263580D02*
X162893143Y-121168342D01*
X162893143Y-121168342D02*
X162893143Y-120882628D01*
X162893143Y-120882628D02*
X162940762Y-120787390D01*
X162940762Y-120787390D02*
X162988381Y-120739771D01*
X162988381Y-120739771D02*
X163083619Y-120692152D01*
X163083619Y-120692152D02*
X163226476Y-120692152D01*
X163226476Y-120692152D02*
X163321714Y-120739771D01*
X163321714Y-120739771D02*
X163369333Y-120787390D01*
X163369333Y-120787390D02*
X163416952Y-120882628D01*
X163416952Y-120882628D02*
X163416952Y-121168342D01*
X163416952Y-121168342D02*
X163369333Y-121263580D01*
X163369333Y-121263580D02*
X163321714Y-121311200D01*
X163321714Y-121311200D02*
X163226476Y-121358819D01*
X163226476Y-121358819D02*
X163083619Y-121358819D01*
X163845524Y-121358819D02*
X163845524Y-120692152D01*
X163845524Y-120882628D02*
X163893143Y-120787390D01*
X163893143Y-120787390D02*
X163940762Y-120739771D01*
X163940762Y-120739771D02*
X164036000Y-120692152D01*
X164036000Y-120692152D02*
X164131238Y-120692152D01*
X115014762Y-120612819D02*
X115348095Y-121612819D01*
X115348095Y-121612819D02*
X115681428Y-120612819D01*
X116014762Y-121612819D02*
X116014762Y-120946152D01*
X116014762Y-120612819D02*
X115967143Y-120660438D01*
X115967143Y-120660438D02*
X116014762Y-120708057D01*
X116014762Y-120708057D02*
X116062381Y-120660438D01*
X116062381Y-120660438D02*
X116014762Y-120612819D01*
X116014762Y-120612819D02*
X116014762Y-120708057D01*
X116490952Y-121612819D02*
X116490952Y-120612819D01*
X116490952Y-120993771D02*
X116586190Y-120946152D01*
X116586190Y-120946152D02*
X116776666Y-120946152D01*
X116776666Y-120946152D02*
X116871904Y-120993771D01*
X116871904Y-120993771D02*
X116919523Y-121041390D01*
X116919523Y-121041390D02*
X116967142Y-121136628D01*
X116967142Y-121136628D02*
X116967142Y-121422342D01*
X116967142Y-121422342D02*
X116919523Y-121517580D01*
X116919523Y-121517580D02*
X116871904Y-121565200D01*
X116871904Y-121565200D02*
X116776666Y-121612819D01*
X116776666Y-121612819D02*
X116586190Y-121612819D01*
X116586190Y-121612819D02*
X116490952Y-121565200D01*
X117395714Y-121612819D02*
X117395714Y-120612819D01*
X117395714Y-120612819D02*
X117729047Y-121327104D01*
X117729047Y-121327104D02*
X118062380Y-120612819D01*
X118062380Y-120612819D02*
X118062380Y-121612819D01*
X118681428Y-121612819D02*
X118586190Y-121565200D01*
X118586190Y-121565200D02*
X118538571Y-121517580D01*
X118538571Y-121517580D02*
X118490952Y-121422342D01*
X118490952Y-121422342D02*
X118490952Y-121136628D01*
X118490952Y-121136628D02*
X118538571Y-121041390D01*
X118538571Y-121041390D02*
X118586190Y-120993771D01*
X118586190Y-120993771D02*
X118681428Y-120946152D01*
X118681428Y-120946152D02*
X118824285Y-120946152D01*
X118824285Y-120946152D02*
X118919523Y-120993771D01*
X118919523Y-120993771D02*
X118967142Y-121041390D01*
X118967142Y-121041390D02*
X119014761Y-121136628D01*
X119014761Y-121136628D02*
X119014761Y-121422342D01*
X119014761Y-121422342D02*
X118967142Y-121517580D01*
X118967142Y-121517580D02*
X118919523Y-121565200D01*
X118919523Y-121565200D02*
X118824285Y-121612819D01*
X118824285Y-121612819D02*
X118681428Y-121612819D01*
X119300476Y-120946152D02*
X119681428Y-120946152D01*
X119443333Y-120612819D02*
X119443333Y-121469961D01*
X119443333Y-121469961D02*
X119490952Y-121565200D01*
X119490952Y-121565200D02*
X119586190Y-121612819D01*
X119586190Y-121612819D02*
X119681428Y-121612819D01*
X120157619Y-121612819D02*
X120062381Y-121565200D01*
X120062381Y-121565200D02*
X120014762Y-121517580D01*
X120014762Y-121517580D02*
X119967143Y-121422342D01*
X119967143Y-121422342D02*
X119967143Y-121136628D01*
X119967143Y-121136628D02*
X120014762Y-121041390D01*
X120014762Y-121041390D02*
X120062381Y-120993771D01*
X120062381Y-120993771D02*
X120157619Y-120946152D01*
X120157619Y-120946152D02*
X120300476Y-120946152D01*
X120300476Y-120946152D02*
X120395714Y-120993771D01*
X120395714Y-120993771D02*
X120443333Y-121041390D01*
X120443333Y-121041390D02*
X120490952Y-121136628D01*
X120490952Y-121136628D02*
X120490952Y-121422342D01*
X120490952Y-121422342D02*
X120443333Y-121517580D01*
X120443333Y-121517580D02*
X120395714Y-121565200D01*
X120395714Y-121565200D02*
X120300476Y-121612819D01*
X120300476Y-121612819D02*
X120157619Y-121612819D01*
X120919524Y-121612819D02*
X120919524Y-120946152D01*
X120919524Y-121136628D02*
X120967143Y-121041390D01*
X120967143Y-121041390D02*
X121014762Y-120993771D01*
X121014762Y-120993771D02*
X121110000Y-120946152D01*
X121110000Y-120946152D02*
X121205238Y-120946152D01*
X159670761Y-122724057D02*
X159575523Y-122676438D01*
X159575523Y-122676438D02*
X159480285Y-122581200D01*
X159480285Y-122581200D02*
X159337428Y-122438342D01*
X159337428Y-122438342D02*
X159242190Y-122390723D01*
X159242190Y-122390723D02*
X159146952Y-122390723D01*
X159194571Y-122628819D02*
X159099333Y-122581200D01*
X159099333Y-122581200D02*
X159004095Y-122485961D01*
X159004095Y-122485961D02*
X158956476Y-122295485D01*
X158956476Y-122295485D02*
X158956476Y-121962152D01*
X158956476Y-121962152D02*
X159004095Y-121771676D01*
X159004095Y-121771676D02*
X159099333Y-121676438D01*
X159099333Y-121676438D02*
X159194571Y-121628819D01*
X159194571Y-121628819D02*
X159385047Y-121628819D01*
X159385047Y-121628819D02*
X159480285Y-121676438D01*
X159480285Y-121676438D02*
X159575523Y-121771676D01*
X159575523Y-121771676D02*
X159623142Y-121962152D01*
X159623142Y-121962152D02*
X159623142Y-122295485D01*
X159623142Y-122295485D02*
X159575523Y-122485961D01*
X159575523Y-122485961D02*
X159480285Y-122581200D01*
X159480285Y-122581200D02*
X159385047Y-122628819D01*
X159385047Y-122628819D02*
X159194571Y-122628819D01*
X160480285Y-121962152D02*
X160480285Y-122628819D01*
X160242190Y-121581200D02*
X160004095Y-122295485D01*
X160004095Y-122295485D02*
X160623142Y-122295485D01*
X145240666Y-121382009D02*
X145383523Y-121429628D01*
X145383523Y-121429628D02*
X145431142Y-121477247D01*
X145431142Y-121477247D02*
X145478761Y-121572485D01*
X145478761Y-121572485D02*
X145478761Y-121715342D01*
X145478761Y-121715342D02*
X145431142Y-121810580D01*
X145431142Y-121810580D02*
X145383523Y-121858200D01*
X145383523Y-121858200D02*
X145288285Y-121905819D01*
X145288285Y-121905819D02*
X144907333Y-121905819D01*
X144907333Y-121905819D02*
X144907333Y-120905819D01*
X144907333Y-120905819D02*
X145240666Y-120905819D01*
X145240666Y-120905819D02*
X145335904Y-120953438D01*
X145335904Y-120953438D02*
X145383523Y-121001057D01*
X145383523Y-121001057D02*
X145431142Y-121096295D01*
X145431142Y-121096295D02*
X145431142Y-121191533D01*
X145431142Y-121191533D02*
X145383523Y-121286771D01*
X145383523Y-121286771D02*
X145335904Y-121334390D01*
X145335904Y-121334390D02*
X145240666Y-121382009D01*
X145240666Y-121382009D02*
X144907333Y-121382009D01*
X146335904Y-121239152D02*
X146335904Y-121905819D01*
X145907333Y-121239152D02*
X145907333Y-121762961D01*
X145907333Y-121762961D02*
X145954952Y-121858200D01*
X145954952Y-121858200D02*
X146050190Y-121905819D01*
X146050190Y-121905819D02*
X146193047Y-121905819D01*
X146193047Y-121905819D02*
X146288285Y-121858200D01*
X146288285Y-121858200D02*
X146335904Y-121810580D01*
X146669238Y-121239152D02*
X147050190Y-121239152D01*
X146812095Y-120905819D02*
X146812095Y-121762961D01*
X146812095Y-121762961D02*
X146859714Y-121858200D01*
X146859714Y-121858200D02*
X146954952Y-121905819D01*
X146954952Y-121905819D02*
X147050190Y-121905819D01*
X147240667Y-121239152D02*
X147621619Y-121239152D01*
X147383524Y-120905819D02*
X147383524Y-121762961D01*
X147383524Y-121762961D02*
X147431143Y-121858200D01*
X147431143Y-121858200D02*
X147526381Y-121905819D01*
X147526381Y-121905819D02*
X147621619Y-121905819D01*
X148097810Y-121905819D02*
X148002572Y-121858200D01*
X148002572Y-121858200D02*
X147954953Y-121810580D01*
X147954953Y-121810580D02*
X147907334Y-121715342D01*
X147907334Y-121715342D02*
X147907334Y-121429628D01*
X147907334Y-121429628D02*
X147954953Y-121334390D01*
X147954953Y-121334390D02*
X148002572Y-121286771D01*
X148002572Y-121286771D02*
X148097810Y-121239152D01*
X148097810Y-121239152D02*
X148240667Y-121239152D01*
X148240667Y-121239152D02*
X148335905Y-121286771D01*
X148335905Y-121286771D02*
X148383524Y-121334390D01*
X148383524Y-121334390D02*
X148431143Y-121429628D01*
X148431143Y-121429628D02*
X148431143Y-121715342D01*
X148431143Y-121715342D02*
X148383524Y-121810580D01*
X148383524Y-121810580D02*
X148335905Y-121858200D01*
X148335905Y-121858200D02*
X148240667Y-121905819D01*
X148240667Y-121905819D02*
X148097810Y-121905819D01*
X148859715Y-121239152D02*
X148859715Y-121905819D01*
X148859715Y-121334390D02*
X148907334Y-121286771D01*
X148907334Y-121286771D02*
X149002572Y-121239152D01*
X149002572Y-121239152D02*
X149145429Y-121239152D01*
X149145429Y-121239152D02*
X149240667Y-121286771D01*
X149240667Y-121286771D02*
X149288286Y-121382009D01*
X149288286Y-121382009D02*
X149288286Y-121905819D01*
X150240667Y-120905819D02*
X149764477Y-120905819D01*
X149764477Y-120905819D02*
X149716858Y-121382009D01*
X149716858Y-121382009D02*
X149764477Y-121334390D01*
X149764477Y-121334390D02*
X149859715Y-121286771D01*
X149859715Y-121286771D02*
X150097810Y-121286771D01*
X150097810Y-121286771D02*
X150193048Y-121334390D01*
X150193048Y-121334390D02*
X150240667Y-121382009D01*
X150240667Y-121382009D02*
X150288286Y-121477247D01*
X150288286Y-121477247D02*
X150288286Y-121715342D01*
X150288286Y-121715342D02*
X150240667Y-121810580D01*
X150240667Y-121810580D02*
X150193048Y-121858200D01*
X150193048Y-121858200D02*
X150097810Y-121905819D01*
X150097810Y-121905819D02*
X149859715Y-121905819D01*
X149859715Y-121905819D02*
X149764477Y-121858200D01*
X149764477Y-121858200D02*
X149716858Y-121810580D01*
X141176666Y-128669009D02*
X141319523Y-128716628D01*
X141319523Y-128716628D02*
X141367142Y-128764247D01*
X141367142Y-128764247D02*
X141414761Y-128859485D01*
X141414761Y-128859485D02*
X141414761Y-129002342D01*
X141414761Y-129002342D02*
X141367142Y-129097580D01*
X141367142Y-129097580D02*
X141319523Y-129145200D01*
X141319523Y-129145200D02*
X141224285Y-129192819D01*
X141224285Y-129192819D02*
X140843333Y-129192819D01*
X140843333Y-129192819D02*
X140843333Y-128192819D01*
X140843333Y-128192819D02*
X141176666Y-128192819D01*
X141176666Y-128192819D02*
X141271904Y-128240438D01*
X141271904Y-128240438D02*
X141319523Y-128288057D01*
X141319523Y-128288057D02*
X141367142Y-128383295D01*
X141367142Y-128383295D02*
X141367142Y-128478533D01*
X141367142Y-128478533D02*
X141319523Y-128573771D01*
X141319523Y-128573771D02*
X141271904Y-128621390D01*
X141271904Y-128621390D02*
X141176666Y-128669009D01*
X141176666Y-128669009D02*
X140843333Y-128669009D01*
X142271904Y-128526152D02*
X142271904Y-129192819D01*
X141843333Y-128526152D02*
X141843333Y-129049961D01*
X141843333Y-129049961D02*
X141890952Y-129145200D01*
X141890952Y-129145200D02*
X141986190Y-129192819D01*
X141986190Y-129192819D02*
X142129047Y-129192819D01*
X142129047Y-129192819D02*
X142224285Y-129145200D01*
X142224285Y-129145200D02*
X142271904Y-129097580D01*
X142605238Y-128526152D02*
X142986190Y-128526152D01*
X142748095Y-128192819D02*
X142748095Y-129049961D01*
X142748095Y-129049961D02*
X142795714Y-129145200D01*
X142795714Y-129145200D02*
X142890952Y-129192819D01*
X142890952Y-129192819D02*
X142986190Y-129192819D01*
X143176667Y-128526152D02*
X143557619Y-128526152D01*
X143319524Y-128192819D02*
X143319524Y-129049961D01*
X143319524Y-129049961D02*
X143367143Y-129145200D01*
X143367143Y-129145200D02*
X143462381Y-129192819D01*
X143462381Y-129192819D02*
X143557619Y-129192819D01*
X144033810Y-129192819D02*
X143938572Y-129145200D01*
X143938572Y-129145200D02*
X143890953Y-129097580D01*
X143890953Y-129097580D02*
X143843334Y-129002342D01*
X143843334Y-129002342D02*
X143843334Y-128716628D01*
X143843334Y-128716628D02*
X143890953Y-128621390D01*
X143890953Y-128621390D02*
X143938572Y-128573771D01*
X143938572Y-128573771D02*
X144033810Y-128526152D01*
X144033810Y-128526152D02*
X144176667Y-128526152D01*
X144176667Y-128526152D02*
X144271905Y-128573771D01*
X144271905Y-128573771D02*
X144319524Y-128621390D01*
X144319524Y-128621390D02*
X144367143Y-128716628D01*
X144367143Y-128716628D02*
X144367143Y-129002342D01*
X144367143Y-129002342D02*
X144319524Y-129097580D01*
X144319524Y-129097580D02*
X144271905Y-129145200D01*
X144271905Y-129145200D02*
X144176667Y-129192819D01*
X144176667Y-129192819D02*
X144033810Y-129192819D01*
X144795715Y-128526152D02*
X144795715Y-129192819D01*
X144795715Y-128621390D02*
X144843334Y-128573771D01*
X144843334Y-128573771D02*
X144938572Y-128526152D01*
X144938572Y-128526152D02*
X145081429Y-128526152D01*
X145081429Y-128526152D02*
X145176667Y-128573771D01*
X145176667Y-128573771D02*
X145224286Y-128669009D01*
X145224286Y-128669009D02*
X145224286Y-129192819D01*
X145652858Y-128288057D02*
X145700477Y-128240438D01*
X145700477Y-128240438D02*
X145795715Y-128192819D01*
X145795715Y-128192819D02*
X146033810Y-128192819D01*
X146033810Y-128192819D02*
X146129048Y-128240438D01*
X146129048Y-128240438D02*
X146176667Y-128288057D01*
X146176667Y-128288057D02*
X146224286Y-128383295D01*
X146224286Y-128383295D02*
X146224286Y-128478533D01*
X146224286Y-128478533D02*
X146176667Y-128621390D01*
X146176667Y-128621390D02*
X145605239Y-129192819D01*
X145605239Y-129192819D02*
X146224286Y-129192819D01*
X137112666Y-121382009D02*
X137255523Y-121429628D01*
X137255523Y-121429628D02*
X137303142Y-121477247D01*
X137303142Y-121477247D02*
X137350761Y-121572485D01*
X137350761Y-121572485D02*
X137350761Y-121715342D01*
X137350761Y-121715342D02*
X137303142Y-121810580D01*
X137303142Y-121810580D02*
X137255523Y-121858200D01*
X137255523Y-121858200D02*
X137160285Y-121905819D01*
X137160285Y-121905819D02*
X136779333Y-121905819D01*
X136779333Y-121905819D02*
X136779333Y-120905819D01*
X136779333Y-120905819D02*
X137112666Y-120905819D01*
X137112666Y-120905819D02*
X137207904Y-120953438D01*
X137207904Y-120953438D02*
X137255523Y-121001057D01*
X137255523Y-121001057D02*
X137303142Y-121096295D01*
X137303142Y-121096295D02*
X137303142Y-121191533D01*
X137303142Y-121191533D02*
X137255523Y-121286771D01*
X137255523Y-121286771D02*
X137207904Y-121334390D01*
X137207904Y-121334390D02*
X137112666Y-121382009D01*
X137112666Y-121382009D02*
X136779333Y-121382009D01*
X138207904Y-121239152D02*
X138207904Y-121905819D01*
X137779333Y-121239152D02*
X137779333Y-121762961D01*
X137779333Y-121762961D02*
X137826952Y-121858200D01*
X137826952Y-121858200D02*
X137922190Y-121905819D01*
X137922190Y-121905819D02*
X138065047Y-121905819D01*
X138065047Y-121905819D02*
X138160285Y-121858200D01*
X138160285Y-121858200D02*
X138207904Y-121810580D01*
X138541238Y-121239152D02*
X138922190Y-121239152D01*
X138684095Y-120905819D02*
X138684095Y-121762961D01*
X138684095Y-121762961D02*
X138731714Y-121858200D01*
X138731714Y-121858200D02*
X138826952Y-121905819D01*
X138826952Y-121905819D02*
X138922190Y-121905819D01*
X139112667Y-121239152D02*
X139493619Y-121239152D01*
X139255524Y-120905819D02*
X139255524Y-121762961D01*
X139255524Y-121762961D02*
X139303143Y-121858200D01*
X139303143Y-121858200D02*
X139398381Y-121905819D01*
X139398381Y-121905819D02*
X139493619Y-121905819D01*
X139969810Y-121905819D02*
X139874572Y-121858200D01*
X139874572Y-121858200D02*
X139826953Y-121810580D01*
X139826953Y-121810580D02*
X139779334Y-121715342D01*
X139779334Y-121715342D02*
X139779334Y-121429628D01*
X139779334Y-121429628D02*
X139826953Y-121334390D01*
X139826953Y-121334390D02*
X139874572Y-121286771D01*
X139874572Y-121286771D02*
X139969810Y-121239152D01*
X139969810Y-121239152D02*
X140112667Y-121239152D01*
X140112667Y-121239152D02*
X140207905Y-121286771D01*
X140207905Y-121286771D02*
X140255524Y-121334390D01*
X140255524Y-121334390D02*
X140303143Y-121429628D01*
X140303143Y-121429628D02*
X140303143Y-121715342D01*
X140303143Y-121715342D02*
X140255524Y-121810580D01*
X140255524Y-121810580D02*
X140207905Y-121858200D01*
X140207905Y-121858200D02*
X140112667Y-121905819D01*
X140112667Y-121905819D02*
X139969810Y-121905819D01*
X140731715Y-121239152D02*
X140731715Y-121905819D01*
X140731715Y-121334390D02*
X140779334Y-121286771D01*
X140779334Y-121286771D02*
X140874572Y-121239152D01*
X140874572Y-121239152D02*
X141017429Y-121239152D01*
X141017429Y-121239152D02*
X141112667Y-121286771D01*
X141112667Y-121286771D02*
X141160286Y-121382009D01*
X141160286Y-121382009D02*
X141160286Y-121905819D01*
X142065048Y-121239152D02*
X142065048Y-121905819D01*
X141826953Y-120858200D02*
X141588858Y-121572485D01*
X141588858Y-121572485D02*
X142207905Y-121572485D01*
X128984666Y-121557009D02*
X129127523Y-121604628D01*
X129127523Y-121604628D02*
X129175142Y-121652247D01*
X129175142Y-121652247D02*
X129222761Y-121747485D01*
X129222761Y-121747485D02*
X129222761Y-121890342D01*
X129222761Y-121890342D02*
X129175142Y-121985580D01*
X129175142Y-121985580D02*
X129127523Y-122033200D01*
X129127523Y-122033200D02*
X129032285Y-122080819D01*
X129032285Y-122080819D02*
X128651333Y-122080819D01*
X128651333Y-122080819D02*
X128651333Y-121080819D01*
X128651333Y-121080819D02*
X128984666Y-121080819D01*
X128984666Y-121080819D02*
X129079904Y-121128438D01*
X129079904Y-121128438D02*
X129127523Y-121176057D01*
X129127523Y-121176057D02*
X129175142Y-121271295D01*
X129175142Y-121271295D02*
X129175142Y-121366533D01*
X129175142Y-121366533D02*
X129127523Y-121461771D01*
X129127523Y-121461771D02*
X129079904Y-121509390D01*
X129079904Y-121509390D02*
X128984666Y-121557009D01*
X128984666Y-121557009D02*
X128651333Y-121557009D01*
X130079904Y-121414152D02*
X130079904Y-122080819D01*
X129651333Y-121414152D02*
X129651333Y-121937961D01*
X129651333Y-121937961D02*
X129698952Y-122033200D01*
X129698952Y-122033200D02*
X129794190Y-122080819D01*
X129794190Y-122080819D02*
X129937047Y-122080819D01*
X129937047Y-122080819D02*
X130032285Y-122033200D01*
X130032285Y-122033200D02*
X130079904Y-121985580D01*
X130413238Y-121414152D02*
X130794190Y-121414152D01*
X130556095Y-121080819D02*
X130556095Y-121937961D01*
X130556095Y-121937961D02*
X130603714Y-122033200D01*
X130603714Y-122033200D02*
X130698952Y-122080819D01*
X130698952Y-122080819D02*
X130794190Y-122080819D01*
X130984667Y-121414152D02*
X131365619Y-121414152D01*
X131127524Y-121080819D02*
X131127524Y-121937961D01*
X131127524Y-121937961D02*
X131175143Y-122033200D01*
X131175143Y-122033200D02*
X131270381Y-122080819D01*
X131270381Y-122080819D02*
X131365619Y-122080819D01*
X131841810Y-122080819D02*
X131746572Y-122033200D01*
X131746572Y-122033200D02*
X131698953Y-121985580D01*
X131698953Y-121985580D02*
X131651334Y-121890342D01*
X131651334Y-121890342D02*
X131651334Y-121604628D01*
X131651334Y-121604628D02*
X131698953Y-121509390D01*
X131698953Y-121509390D02*
X131746572Y-121461771D01*
X131746572Y-121461771D02*
X131841810Y-121414152D01*
X131841810Y-121414152D02*
X131984667Y-121414152D01*
X131984667Y-121414152D02*
X132079905Y-121461771D01*
X132079905Y-121461771D02*
X132127524Y-121509390D01*
X132127524Y-121509390D02*
X132175143Y-121604628D01*
X132175143Y-121604628D02*
X132175143Y-121890342D01*
X132175143Y-121890342D02*
X132127524Y-121985580D01*
X132127524Y-121985580D02*
X132079905Y-122033200D01*
X132079905Y-122033200D02*
X131984667Y-122080819D01*
X131984667Y-122080819D02*
X131841810Y-122080819D01*
X132603715Y-121414152D02*
X132603715Y-122080819D01*
X132603715Y-121509390D02*
X132651334Y-121461771D01*
X132651334Y-121461771D02*
X132746572Y-121414152D01*
X132746572Y-121414152D02*
X132889429Y-121414152D01*
X132889429Y-121414152D02*
X132984667Y-121461771D01*
X132984667Y-121461771D02*
X133032286Y-121557009D01*
X133032286Y-121557009D02*
X133032286Y-122080819D01*
X133413239Y-121080819D02*
X134032286Y-121080819D01*
X134032286Y-121080819D02*
X133698953Y-121461771D01*
X133698953Y-121461771D02*
X133841810Y-121461771D01*
X133841810Y-121461771D02*
X133937048Y-121509390D01*
X133937048Y-121509390D02*
X133984667Y-121557009D01*
X133984667Y-121557009D02*
X134032286Y-121652247D01*
X134032286Y-121652247D02*
X134032286Y-121890342D01*
X134032286Y-121890342D02*
X133984667Y-121985580D01*
X133984667Y-121985580D02*
X133937048Y-122033200D01*
X133937048Y-122033200D02*
X133841810Y-122080819D01*
X133841810Y-122080819D02*
X133556096Y-122080819D01*
X133556096Y-122080819D02*
X133460858Y-122033200D01*
X133460858Y-122033200D02*
X133413239Y-121985580D01*
X133048666Y-128669009D02*
X133191523Y-128716628D01*
X133191523Y-128716628D02*
X133239142Y-128764247D01*
X133239142Y-128764247D02*
X133286761Y-128859485D01*
X133286761Y-128859485D02*
X133286761Y-129002342D01*
X133286761Y-129002342D02*
X133239142Y-129097580D01*
X133239142Y-129097580D02*
X133191523Y-129145200D01*
X133191523Y-129145200D02*
X133096285Y-129192819D01*
X133096285Y-129192819D02*
X132715333Y-129192819D01*
X132715333Y-129192819D02*
X132715333Y-128192819D01*
X132715333Y-128192819D02*
X133048666Y-128192819D01*
X133048666Y-128192819D02*
X133143904Y-128240438D01*
X133143904Y-128240438D02*
X133191523Y-128288057D01*
X133191523Y-128288057D02*
X133239142Y-128383295D01*
X133239142Y-128383295D02*
X133239142Y-128478533D01*
X133239142Y-128478533D02*
X133191523Y-128573771D01*
X133191523Y-128573771D02*
X133143904Y-128621390D01*
X133143904Y-128621390D02*
X133048666Y-128669009D01*
X133048666Y-128669009D02*
X132715333Y-128669009D01*
X134143904Y-128526152D02*
X134143904Y-129192819D01*
X133715333Y-128526152D02*
X133715333Y-129049961D01*
X133715333Y-129049961D02*
X133762952Y-129145200D01*
X133762952Y-129145200D02*
X133858190Y-129192819D01*
X133858190Y-129192819D02*
X134001047Y-129192819D01*
X134001047Y-129192819D02*
X134096285Y-129145200D01*
X134096285Y-129145200D02*
X134143904Y-129097580D01*
X134477238Y-128526152D02*
X134858190Y-128526152D01*
X134620095Y-128192819D02*
X134620095Y-129049961D01*
X134620095Y-129049961D02*
X134667714Y-129145200D01*
X134667714Y-129145200D02*
X134762952Y-129192819D01*
X134762952Y-129192819D02*
X134858190Y-129192819D01*
X135048667Y-128526152D02*
X135429619Y-128526152D01*
X135191524Y-128192819D02*
X135191524Y-129049961D01*
X135191524Y-129049961D02*
X135239143Y-129145200D01*
X135239143Y-129145200D02*
X135334381Y-129192819D01*
X135334381Y-129192819D02*
X135429619Y-129192819D01*
X135905810Y-129192819D02*
X135810572Y-129145200D01*
X135810572Y-129145200D02*
X135762953Y-129097580D01*
X135762953Y-129097580D02*
X135715334Y-129002342D01*
X135715334Y-129002342D02*
X135715334Y-128716628D01*
X135715334Y-128716628D02*
X135762953Y-128621390D01*
X135762953Y-128621390D02*
X135810572Y-128573771D01*
X135810572Y-128573771D02*
X135905810Y-128526152D01*
X135905810Y-128526152D02*
X136048667Y-128526152D01*
X136048667Y-128526152D02*
X136143905Y-128573771D01*
X136143905Y-128573771D02*
X136191524Y-128621390D01*
X136191524Y-128621390D02*
X136239143Y-128716628D01*
X136239143Y-128716628D02*
X136239143Y-129002342D01*
X136239143Y-129002342D02*
X136191524Y-129097580D01*
X136191524Y-129097580D02*
X136143905Y-129145200D01*
X136143905Y-129145200D02*
X136048667Y-129192819D01*
X136048667Y-129192819D02*
X135905810Y-129192819D01*
X136667715Y-128526152D02*
X136667715Y-129192819D01*
X136667715Y-128621390D02*
X136715334Y-128573771D01*
X136715334Y-128573771D02*
X136810572Y-128526152D01*
X136810572Y-128526152D02*
X136953429Y-128526152D01*
X136953429Y-128526152D02*
X137048667Y-128573771D01*
X137048667Y-128573771D02*
X137096286Y-128669009D01*
X137096286Y-128669009D02*
X137096286Y-129192819D01*
X138096286Y-129192819D02*
X137524858Y-129192819D01*
X137810572Y-129192819D02*
X137810572Y-128192819D01*
X137810572Y-128192819D02*
X137715334Y-128335676D01*
X137715334Y-128335676D02*
X137620096Y-128430914D01*
X137620096Y-128430914D02*
X137524858Y-128478533D01*
D12*
%TO.C,Q2*%
X119308000Y-123168000D02*
X119308000Y-126768000D01*
X123758000Y-124968000D02*
G75*
G03*
X119319522Y-123129522I-2600000J0D01*
G01*
X119319522Y-126806478D02*
G75*
G03*
X123758000Y-124968000I1838478J1838478D01*
G01*
%TO.C,J3*%
X160722000Y-70044000D02*
X162052000Y-70044000D01*
X160722000Y-71374000D02*
X160722000Y-70044000D01*
X160722000Y-72644000D02*
X160722000Y-75244000D01*
X160722000Y-72644000D02*
X163382000Y-72644000D01*
X160722000Y-75244000D02*
X163382000Y-75244000D01*
X163382000Y-72644000D02*
X163382000Y-75244000D01*
%TO.C,Microcontroller1*%
X116456000Y-102238000D02*
X119126000Y-102238000D01*
X121666000Y-102238000D02*
X159896000Y-102238000D01*
X159896000Y-102238000D02*
X159896000Y-97158000D01*
X119126000Y-99568000D02*
X119126000Y-102238000D01*
X121666000Y-99568000D02*
X121666000Y-102238000D01*
X121666000Y-99568000D02*
X119126000Y-99568000D01*
X121666000Y-99568000D02*
X157226000Y-99568000D01*
X157226000Y-99568000D02*
X157226000Y-102238000D01*
X152016000Y-97158000D02*
X152016000Y-89278000D01*
X162436000Y-97158000D02*
X152016000Y-97158000D01*
X152016000Y-89278000D02*
X162436000Y-89278000D01*
X162436000Y-89278000D02*
X162436000Y-97158000D01*
X119126000Y-86868000D02*
X157226000Y-86868000D01*
X119126000Y-86868000D02*
X119126000Y-84198000D01*
X157226000Y-86868000D02*
X157226000Y-84198000D01*
X116456000Y-84198000D02*
X116456000Y-102238000D01*
X159896000Y-84198000D02*
X159896000Y-89278000D01*
X159896000Y-84198000D02*
X116456000Y-84198000D01*
%TO.C,J1*%
X115764000Y-70044000D02*
X117094000Y-70044000D01*
X115764000Y-71374000D02*
X115764000Y-70044000D01*
X115764000Y-72644000D02*
X115764000Y-75244000D01*
X115764000Y-72644000D02*
X118424000Y-72644000D01*
X115764000Y-75244000D02*
X118424000Y-75244000D01*
X118424000Y-72644000D02*
X118424000Y-75244000D01*
%TO.C,Q1*%
X121644000Y-68906000D02*
X125244000Y-68906000D01*
X123444000Y-64456000D02*
G75*
G03*
X121605522Y-68894478I0J-2600000D01*
G01*
X125282478Y-68894478D02*
G75*
G03*
X123444000Y-64456000I-1838478J1838478D01*
G01*
%TO.C,J6*%
X118424000Y-119948000D02*
X117094000Y-119948000D01*
X118424000Y-118618000D02*
X118424000Y-119948000D01*
X118424000Y-117348000D02*
X118424000Y-114748000D01*
X118424000Y-117348000D02*
X115764000Y-117348000D01*
X118424000Y-114748000D02*
X115764000Y-114748000D01*
X115764000Y-117348000D02*
X115764000Y-114748000D01*
%TO.C,Q5*%
X137740000Y-116354000D02*
X137740000Y-112754000D01*
X133290000Y-114554000D02*
G75*
G03*
X137728478Y-116392478I2600000J0D01*
G01*
X137728478Y-112715522D02*
G75*
G03*
X133290000Y-114554000I-1838478J-1838478D01*
G01*
%TO.C,Q3*%
X153902000Y-69160000D02*
X157502000Y-69160000D01*
X155702000Y-64710000D02*
G75*
G03*
X153863522Y-69148478I0J-2600000D01*
G01*
X157540478Y-69148478D02*
G75*
G03*
X155702000Y-64710000I-1838478J1838478D01*
G01*
%TO.C,U3*%
X125516000Y-107481000D02*
X125516000Y-102840000D01*
X125516000Y-107481000D02*
X115276000Y-107481000D01*
X125516000Y-105971000D02*
X115276000Y-105971000D01*
X125516000Y-102840000D02*
X115276000Y-102840000D01*
X122246000Y-107481000D02*
X122246000Y-105971000D01*
X118545000Y-107481000D02*
X118545000Y-105971000D01*
X115276000Y-107481000D02*
X115276000Y-102840000D01*
D11*
%TO.C,U2*%
X162560000Y-117172000D02*
X138684000Y-117172000D01*
X138684000Y-117172000D02*
X138684000Y-105234000D01*
X138684000Y-105234000D02*
X162560000Y-105234000D01*
X162560000Y-105234000D02*
X162560000Y-117172000D01*
D12*
%TO.C,J4*%
X160828000Y-122368000D02*
X162158000Y-122368000D01*
X160828000Y-123698000D02*
X160828000Y-122368000D01*
X160828000Y-124968000D02*
X160828000Y-127568000D01*
X160828000Y-124968000D02*
X163488000Y-124968000D01*
X160828000Y-127568000D02*
X163488000Y-127568000D01*
X163488000Y-124968000D02*
X163488000Y-127568000D01*
%TO.C,J2*%
X115616000Y-122368000D02*
X116946000Y-122368000D01*
X115616000Y-123698000D02*
X115616000Y-122368000D01*
X115616000Y-124968000D02*
X115616000Y-127568000D01*
X115616000Y-124968000D02*
X118276000Y-124968000D01*
X115616000Y-127568000D02*
X118276000Y-127568000D01*
X118276000Y-124968000D02*
X118276000Y-127568000D01*
%TO.C,Q4*%
X155630000Y-123168000D02*
X155630000Y-126768000D01*
X160080000Y-124968000D02*
G75*
G03*
X155641522Y-123129522I-2600000J0D01*
G01*
X155641522Y-126806478D02*
G75*
G03*
X160080000Y-124968000I1838478J1838478D01*
G01*
%TD*%
M02*
