%TF.GenerationSoftware,KiCad,Pcbnew,7.0.7*%
%TF.CreationDate,2025-03-26T10:17:06+05:30*%
%TF.ProjectId,VibAndHeat_Version1,56696241-6e64-4486-9561-745f56657273,rev?*%
%TF.SameCoordinates,Original*%
%TF.FileFunction,AssemblyDrawing,Bot*%
%FSLAX46Y46*%
G04 Gerber Fmt 4.6, Leading zero omitted, Abs format (unit mm)*
G04 Created by KiCad (PCBNEW 7.0.7) date 2025-03-26 10:17:06*
%MOMM*%
%LPD*%
G01*
G04 APERTURE LIST*
%ADD10C,0.100000*%
%ADD11C,0.127000*%
%ADD12C,0.200000*%
G04 APERTURE END LIST*
D10*
%TO.C,U1*%
X126238000Y-105918000D02*
X133223000Y-105918000D01*
X133223000Y-105918000D02*
X133858000Y-105283000D01*
X133858000Y-105283000D02*
X133858000Y-103378000D01*
X126238000Y-103378000D02*
X126238000Y-105918000D01*
X133858000Y-103378000D02*
X126238000Y-103378000D01*
D11*
%TO.C,Button5*%
X144574000Y-124626000D02*
X144574000Y-118626000D01*
X150574000Y-124626000D02*
X144574000Y-124626000D01*
X144574000Y-118626000D02*
X150574000Y-118626000D01*
X150574000Y-118626000D02*
X150574000Y-124626000D01*
D12*
X147674000Y-125426000D02*
G75*
G03*
X147674000Y-125426000I-100000J0D01*
G01*
D10*
%TO.C,J7*%
X156972000Y-81788000D02*
X156972000Y-71628000D01*
X156972000Y-71628000D02*
X155067000Y-71628000D01*
X155067000Y-71628000D02*
X154432000Y-72263000D01*
X154432000Y-81788000D02*
X156972000Y-81788000D01*
X154432000Y-72263000D02*
X154432000Y-81788000D01*
D11*
%TO.C,Button2*%
X140510000Y-131738000D02*
X140510000Y-125738000D01*
X146510000Y-131738000D02*
X140510000Y-131738000D01*
X140510000Y-125738000D02*
X146510000Y-125738000D01*
X146510000Y-125738000D02*
X146510000Y-131738000D01*
D12*
X143610000Y-132538000D02*
G75*
G03*
X143610000Y-132538000I-100000J0D01*
G01*
D11*
%TO.C,Button4*%
X136446000Y-124626000D02*
X136446000Y-118626000D01*
X142446000Y-124626000D02*
X136446000Y-124626000D01*
X136446000Y-118626000D02*
X142446000Y-118626000D01*
X142446000Y-118626000D02*
X142446000Y-124626000D01*
D12*
X139546000Y-125426000D02*
G75*
G03*
X139546000Y-125426000I-100000J0D01*
G01*
D11*
%TO.C,Button3*%
X128318000Y-124626000D02*
X128318000Y-118626000D01*
X134318000Y-124626000D02*
X128318000Y-124626000D01*
X128318000Y-118626000D02*
X134318000Y-118626000D01*
X134318000Y-118626000D02*
X134318000Y-124626000D01*
D12*
X131418000Y-125426000D02*
G75*
G03*
X131418000Y-125426000I-100000J0D01*
G01*
D11*
%TO.C,Button1*%
X132382000Y-131738000D02*
X132382000Y-125738000D01*
X138382000Y-131738000D02*
X132382000Y-131738000D01*
X132382000Y-125738000D02*
X138382000Y-125738000D01*
X138382000Y-125738000D02*
X138382000Y-131738000D01*
D12*
X135482000Y-132538000D02*
G75*
G03*
X135482000Y-132538000I-100000J0D01*
G01*
D10*
%TO.C,SW1*%
X132448000Y-117582000D02*
X132448000Y-109382000D01*
X132448000Y-109382000D02*
X131448000Y-108382000D01*
X131448000Y-108382000D02*
X122648000Y-108382000D01*
X122648000Y-117582000D02*
X132448000Y-117582000D01*
X122648000Y-108382000D02*
X122648000Y-117582000D01*
%TO.C,J8*%
X129799000Y-68326000D02*
X146944000Y-68326000D01*
X146944000Y-68326000D02*
X147579000Y-67691000D01*
X147579000Y-67691000D02*
X147579000Y-65786000D01*
X129799000Y-65786000D02*
X129799000Y-68326000D01*
X147579000Y-65786000D02*
X129799000Y-65786000D01*
%TO.C,J5*%
X135128000Y-103383000D02*
X135128000Y-107828000D01*
X135128000Y-107828000D02*
X135763000Y-108463000D01*
X135763000Y-108463000D02*
X137668000Y-108463000D01*
X137668000Y-103383000D02*
X135128000Y-103383000D01*
X137668000Y-108463000D02*
X137668000Y-103383000D01*
%TD*%
M02*
