%TF.GenerationSoftware,KiCad,Pcbnew,7.0.7*%
%TF.CreationDate,2025-03-26T10:17:06+05:30*%
%TF.ProjectId,VibAndHeat_Version1,56696241-6e64-4486-9561-745f56657273,rev?*%
%TF.SameCoordinates,Original*%
%TF.FileFunction,Copper,L2,Bot*%
%TF.FilePolarity,Positive*%
%FSLAX46Y46*%
G04 Gerber Fmt 4.6, Leading zero omitted, Abs format (unit mm)*
G04 Created by KiCad (PCBNEW 7.0.7) date 2025-03-26 10:17:06*
%MOMM*%
%LPD*%
G01*
G04 APERTURE LIST*
%TA.AperFunction,ComponentPad*%
%ADD10R,1.500000X1.050000*%
%TD*%
%TA.AperFunction,ComponentPad*%
%ADD11O,1.500000X1.050000*%
%TD*%
%TA.AperFunction,ComponentPad*%
%ADD12R,1.700000X1.700000*%
%TD*%
%TA.AperFunction,ComponentPad*%
%ADD13O,1.700000X1.700000*%
%TD*%
%TA.AperFunction,ComponentPad*%
%ADD14R,1.600000X1.600000*%
%TD*%
%TA.AperFunction,ComponentPad*%
%ADD15O,1.600000X1.600000*%
%TD*%
%TA.AperFunction,ComponentPad*%
%ADD16R,1.050000X1.500000*%
%TD*%
%TA.AperFunction,ComponentPad*%
%ADD17O,1.050000X1.500000*%
%TD*%
%TA.AperFunction,ComponentPad*%
%ADD18R,1.905000X2.000000*%
%TD*%
%TA.AperFunction,ComponentPad*%
%ADD19O,1.905000X2.000000*%
%TD*%
%TA.AperFunction,ComponentPad*%
%ADD20C,1.524000*%
%TD*%
%TA.AperFunction,ComponentPad*%
%ADD21C,1.508000*%
%TD*%
%TA.AperFunction,ComponentPad*%
%ADD22R,1.800000X1.800000*%
%TD*%
%TA.AperFunction,ComponentPad*%
%ADD23C,1.800000*%
%TD*%
%TA.AperFunction,Conductor*%
%ADD24C,0.250000*%
%TD*%
G04 APERTURE END LIST*
D10*
%TO.P,Q2,1,E*%
%TO.N,Net-(J2-Pin_1)*%
X121158000Y-123698000D03*
D11*
%TO.P,Q2,2,B*%
%TO.N,VT-Motor*%
X121158000Y-124968000D03*
%TO.P,Q2,3,C*%
%TO.N,GND*%
X121158000Y-126238000D03*
%TD*%
D12*
%TO.P,J3,1,Pin_1*%
%TO.N,Net-(J3-Pin_1)*%
X162052000Y-71374000D03*
D13*
%TO.P,J3,2,Pin_2*%
%TO.N,Input_5v*%
X162052000Y-73914000D03*
%TD*%
D14*
%TO.P,Microcontroller1,1,D1/TX*%
%TO.N,unconnected-(Microcontroller1-D1{slash}TX-Pad1)*%
X120396000Y-100838000D03*
D15*
%TO.P,Microcontroller1,2,D0/RX*%
%TO.N,unconnected-(Microcontroller1-D0{slash}RX-Pad2)*%
X122936000Y-100838000D03*
%TO.P,Microcontroller1,3,~{RESET}*%
%TO.N,unconnected-(Microcontroller1-~{RESET}-Pad3)*%
X125476000Y-100838000D03*
%TO.P,Microcontroller1,4,GND*%
%TO.N,GND*%
X128016000Y-100838000D03*
%TO.P,Microcontroller1,5,D2*%
%TO.N,VT-Motor*%
X130556000Y-100838000D03*
%TO.P,Microcontroller1,6,D3*%
%TO.N,HT-Heater*%
X133096000Y-100838000D03*
%TO.P,Microcontroller1,7,D4*%
%TO.N,HT-Sensor*%
X135636000Y-100838000D03*
%TO.P,Microcontroller1,8,D5*%
%TO.N,TT-Enable*%
X138176000Y-100838000D03*
%TO.P,Microcontroller1,9,D6*%
%TO.N,TT-Input1*%
X140716000Y-100838000D03*
%TO.P,Microcontroller1,10,D7*%
%TO.N,TT-Input2*%
X143256000Y-100838000D03*
%TO.P,Microcontroller1,11,D8*%
%TO.N,SW-Start*%
X145796000Y-100838000D03*
%TO.P,Microcontroller1,12,D9*%
%TO.N,SW-Reset*%
X148336000Y-100838000D03*
%TO.P,Microcontroller1,13,D10*%
%TO.N,SW-Vibration*%
X150876000Y-100838000D03*
%TO.P,Microcontroller1,14,D11*%
%TO.N,SW-Heat*%
X153416000Y-100838000D03*
%TO.P,Microcontroller1,15,D12*%
%TO.N,SW-Tens*%
X155956000Y-100838000D03*
%TO.P,Microcontroller1,16,D13*%
%TO.N,unconnected-(Microcontroller1-D13-Pad16)*%
X155956000Y-85598000D03*
%TO.P,Microcontroller1,17,3V3*%
%TO.N,Output-3v3*%
X153416000Y-85598000D03*
%TO.P,Microcontroller1,18,AREF*%
%TO.N,unconnected-(Microcontroller1-AREF-Pad18)*%
X150876000Y-85598000D03*
%TO.P,Microcontroller1,19,A0*%
%TO.N,unconnected-(Microcontroller1-A0-Pad19)*%
X148336000Y-85598000D03*
%TO.P,Microcontroller1,20,A1*%
%TO.N,unconnected-(Microcontroller1-A1-Pad20)*%
X145796000Y-85598000D03*
%TO.P,Microcontroller1,21,A2*%
%TO.N,unconnected-(Microcontroller1-A2-Pad21)*%
X143256000Y-85598000D03*
%TO.P,Microcontroller1,22,A3*%
%TO.N,unconnected-(Microcontroller1-A3-Pad22)*%
X140716000Y-85598000D03*
%TO.P,Microcontroller1,23,A4*%
%TO.N,SDA_Display*%
X138176000Y-85598000D03*
%TO.P,Microcontroller1,24,A5*%
%TO.N,SCL_Display*%
X135636000Y-85598000D03*
%TO.P,Microcontroller1,25,A6*%
%TO.N,unconnected-(Microcontroller1-A6-Pad25)*%
X133096000Y-85598000D03*
%TO.P,Microcontroller1,26,A7*%
%TO.N,unconnected-(Microcontroller1-A7-Pad26)*%
X130556000Y-85598000D03*
%TO.P,Microcontroller1,27,+5V*%
%TO.N,unconnected-(Microcontroller1-+5V-Pad27)*%
X128016000Y-85598000D03*
%TO.P,Microcontroller1,28,~{RESET}*%
%TO.N,unconnected-(Microcontroller1-~{RESET}-Pad28)*%
X125476000Y-85598000D03*
%TO.P,Microcontroller1,29,GND*%
%TO.N,GND*%
X122936000Y-85598000D03*
%TO.P,Microcontroller1,30,VIN*%
%TO.N,Input_7v4*%
X120396000Y-85598000D03*
%TD*%
D12*
%TO.P,J1,1,Pin_1*%
%TO.N,Net-(J1-Pin_1)*%
X117094000Y-71374000D03*
D13*
%TO.P,J1,2,Pin_2*%
%TO.N,Input_5v*%
X117094000Y-73914000D03*
%TD*%
D16*
%TO.P,Q1,1,E*%
%TO.N,Net-(J1-Pin_1)*%
X122174000Y-67056000D03*
D17*
%TO.P,Q1,2,B*%
%TO.N,VT-Motor*%
X123444000Y-67056000D03*
%TO.P,Q1,3,C*%
%TO.N,GND*%
X124714000Y-67056000D03*
%TD*%
D12*
%TO.P,J6,1,Pin_1*%
%TO.N,GND*%
X117094000Y-118618000D03*
D13*
%TO.P,J6,2,Pin_2*%
%TO.N,Net-(J6-Pin_2)*%
X117094000Y-116078000D03*
%TD*%
D10*
%TO.P,Q5,1,E*%
%TO.N,Net-(J5-Pin_1)*%
X135890000Y-115824000D03*
D11*
%TO.P,Q5,2,B*%
%TO.N,HT-Heater*%
X135890000Y-114554000D03*
%TO.P,Q5,3,C*%
%TO.N,Net-(Q5-C)*%
X135890000Y-113284000D03*
%TD*%
D16*
%TO.P,Q3,1,E*%
%TO.N,Net-(J3-Pin_1)*%
X154432000Y-67310000D03*
D17*
%TO.P,Q3,2,B*%
%TO.N,VT-Motor*%
X155702000Y-67310000D03*
%TO.P,Q3,3,C*%
%TO.N,GND*%
X156972000Y-67310000D03*
%TD*%
D18*
%TO.P,U3,1,IN*%
%TO.N,Input_7v4*%
X122936000Y-104211000D03*
D19*
%TO.P,U3,2,GND*%
%TO.N,GND*%
X120396000Y-104211000D03*
%TO.P,U3,3,OUT*%
%TO.N,Input_5v*%
X117856000Y-104211000D03*
%TD*%
D20*
%TO.P,U2,1,VIN*%
%TO.N,Input_5v*%
X161544000Y-114124000D03*
%TO.P,U2,2,GND1*%
%TO.N,GND*%
X161544000Y-108282000D03*
%TO.P,U2,3,VOUT+*%
%TO.N,Net-(J5-Pin_2)*%
X139700000Y-114886000D03*
%TO.P,U2,4,GND2*%
%TO.N,Net-(Q5-C)*%
X139700000Y-111203000D03*
%TO.P,U2,5,VOUT-*%
%TO.N,unconnected-(U2-VOUT--Pad5)*%
X139700000Y-107520000D03*
%TD*%
D12*
%TO.P,J4,1,Pin_1*%
%TO.N,Net-(J4-Pin_1)*%
X162158000Y-123698000D03*
D13*
%TO.P,J4,2,Pin_2*%
%TO.N,Input_5v*%
X162158000Y-126238000D03*
%TD*%
D12*
%TO.P,J2,1,Pin_1*%
%TO.N,Net-(J2-Pin_1)*%
X116946000Y-123698000D03*
D13*
%TO.P,J2,2,Pin_2*%
%TO.N,Input_5v*%
X116946000Y-126238000D03*
%TD*%
D10*
%TO.P,Q4,1,E*%
%TO.N,Net-(J4-Pin_1)*%
X157480000Y-123698000D03*
D11*
%TO.P,Q4,2,B*%
%TO.N,VT-Motor*%
X157480000Y-124968000D03*
%TO.P,Q4,3,C*%
%TO.N,GND*%
X157480000Y-126238000D03*
%TD*%
D12*
%TO.P,U1,1,VCC*%
%TO.N,Input_5v*%
X132588000Y-104648000D03*
D13*
%TO.P,U1,2,IO*%
%TO.N,HT-Sensor*%
X130048000Y-104648000D03*
%TO.P,U1,3,GND*%
%TO.N,GND*%
X127508000Y-104648000D03*
%TD*%
D21*
%TO.P,Button5,1*%
%TO.N,SW-Tens*%
X147574000Y-124126000D03*
%TO.P,Button5,2*%
%TO.N,GND*%
X147574000Y-119126000D03*
%TD*%
D12*
%TO.P,J7,1,Pin_1*%
%TO.N,SDA_Display*%
X155702000Y-72898000D03*
D13*
%TO.P,J7,2,Pin_2*%
%TO.N,SCL_Display*%
X155702000Y-75438000D03*
%TO.P,J7,3,Pin_3*%
%TO.N,Output-3v3*%
X155702000Y-77978000D03*
%TO.P,J7,4,Pin_4*%
%TO.N,GND*%
X155702000Y-80518000D03*
%TD*%
D21*
%TO.P,Button2,1*%
%TO.N,SW-Reset*%
X143510000Y-131238000D03*
%TO.P,Button2,2*%
%TO.N,GND*%
X143510000Y-126238000D03*
%TD*%
%TO.P,Button4,1*%
%TO.N,SW-Heat*%
X139446000Y-124126000D03*
%TO.P,Button4,2*%
%TO.N,GND*%
X139446000Y-119126000D03*
%TD*%
%TO.P,Button3,1*%
%TO.N,SW-Vibration*%
X131318000Y-124126000D03*
%TO.P,Button3,2*%
%TO.N,GND*%
X131318000Y-119126000D03*
%TD*%
%TO.P,Button1,1*%
%TO.N,SW-Start*%
X135382000Y-131238000D03*
%TO.P,Button1,2*%
%TO.N,GND*%
X135382000Y-126238000D03*
%TD*%
D22*
%TO.P,SW1,1,A*%
%TO.N,unconnected-(SW1-A-Pad1)*%
X130048000Y-109982000D03*
D23*
%TO.P,SW1,2,B*%
%TO.N,Net-(J6-Pin_2)*%
X127548000Y-109982000D03*
%TO.P,SW1,3,C*%
%TO.N,Input_7v4*%
X125048000Y-109982000D03*
%TO.P,SW1,4,A*%
%TO.N,unconnected-(SW1-A-Pad4)*%
X130048000Y-115982000D03*
%TO.P,SW1,5,B*%
%TO.N,unconnected-(SW1-B-Pad5)*%
X127548000Y-115982000D03*
%TO.P,SW1,6,C*%
%TO.N,unconnected-(SW1-C-Pad6)*%
X125048000Y-115982000D03*
%TD*%
D12*
%TO.P,J8,1,Pin_1*%
%TO.N,Input_7v4*%
X146309000Y-67056000D03*
D13*
%TO.P,J8,2,Pin_2*%
%TO.N,Input_5v*%
X143769000Y-67056000D03*
%TO.P,J8,3,Pin_3*%
%TO.N,Output-3v3*%
X141229000Y-67056000D03*
%TO.P,J8,4,Pin_4*%
%TO.N,GND*%
X138689000Y-67056000D03*
%TO.P,J8,5,Pin_5*%
%TO.N,TT-Input2*%
X136149000Y-67056000D03*
%TO.P,J8,6,Pin_6*%
%TO.N,TT-Input1*%
X133609000Y-67056000D03*
%TO.P,J8,7,Pin_7*%
%TO.N,TT-Enable*%
X131069000Y-67056000D03*
%TD*%
D12*
%TO.P,J5,1,Pin_1*%
%TO.N,Net-(J5-Pin_1)*%
X136398000Y-107193000D03*
D13*
%TO.P,J5,2,Pin_2*%
%TO.N,Net-(J5-Pin_2)*%
X136398000Y-104653000D03*
%TD*%
D24*
%TO.N,GND*%
X122936000Y-92710000D02*
X122936000Y-85598000D01*
X117602000Y-119126000D02*
X117094000Y-118618000D01*
X135382000Y-126238000D02*
X143510000Y-126238000D01*
X149606000Y-119126000D02*
X147574000Y-119126000D01*
X157480000Y-126238000D02*
X153924000Y-126238000D01*
X131318000Y-119126000D02*
X139446000Y-119126000D01*
X151638000Y-123952000D02*
X151638000Y-119126000D01*
X127508000Y-103886000D02*
X127508000Y-104648000D01*
X128016000Y-100838000D02*
X128016000Y-97790000D01*
X159766000Y-80518000D02*
X155702000Y-80518000D01*
X128016000Y-97790000D02*
X122936000Y-92710000D01*
X131318000Y-119126000D02*
X132080000Y-118364000D01*
X124206000Y-126238000D02*
X125222000Y-125222000D01*
X121158000Y-126238000D02*
X124206000Y-126238000D01*
X161544000Y-110236000D02*
X152654000Y-119126000D01*
X128016000Y-104140000D02*
X127508000Y-104648000D01*
X135382000Y-126238000D02*
X124206000Y-126238000D01*
X129032000Y-119126000D02*
X129286000Y-119126000D01*
X120396000Y-105664000D02*
X121666000Y-106934000D01*
X155702000Y-80518000D02*
X159512000Y-76708000D01*
X124714000Y-83820000D02*
X122936000Y-85598000D01*
X161544000Y-108282000D02*
X161544000Y-110236000D01*
X132080000Y-118364000D02*
X132080000Y-109220000D01*
X163068000Y-106758000D02*
X163068000Y-83820000D01*
X121666000Y-106934000D02*
X125222000Y-106934000D01*
X125222000Y-125222000D02*
X125222000Y-122936000D01*
X128016000Y-100838000D02*
X128016000Y-104140000D01*
X163068000Y-83820000D02*
X159766000Y-80518000D01*
X152654000Y-119126000D02*
X149606000Y-119126000D01*
X151638000Y-119126000D02*
X149606000Y-119126000D01*
X125222000Y-122936000D02*
X129032000Y-119126000D01*
X120396000Y-104211000D02*
X120396000Y-105664000D01*
X161544000Y-108282000D02*
X163068000Y-106758000D01*
X159512000Y-76708000D02*
X159512000Y-72136000D01*
X156972000Y-69596000D02*
X156972000Y-67310000D01*
X153924000Y-126238000D02*
X151638000Y-123952000D01*
X143510000Y-126238000D02*
X157480000Y-126238000D01*
X124714000Y-67056000D02*
X124714000Y-83820000D01*
X131318000Y-119126000D02*
X117602000Y-119126000D01*
X132080000Y-109220000D02*
X127508000Y-104648000D01*
X125222000Y-106934000D02*
X127508000Y-104648000D01*
X147574000Y-119126000D02*
X139446000Y-119126000D01*
X159512000Y-72136000D02*
X156972000Y-69596000D01*
%TO.N,Input_7v4*%
X120396000Y-92710000D02*
X120396000Y-85598000D01*
X122936000Y-104211000D02*
X124206000Y-102941000D01*
X124206000Y-96520000D02*
X120396000Y-92710000D01*
X124206000Y-102941000D02*
X124206000Y-96520000D01*
%TO.N,Net-(J5-Pin_1)*%
X134112000Y-115062000D02*
X134874000Y-115824000D01*
X136398000Y-107193000D02*
X134112000Y-109479000D01*
X134112000Y-109479000D02*
X134112000Y-115062000D01*
X134874000Y-115824000D02*
X135890000Y-115824000D01*
%TO.N,HT-Sensor*%
X134366000Y-107188000D02*
X134366000Y-102108000D01*
X130048000Y-105918000D02*
X131318000Y-107188000D01*
X131318000Y-107188000D02*
X134366000Y-107188000D01*
X130048000Y-104648000D02*
X130048000Y-105918000D01*
X134366000Y-102108000D02*
X135636000Y-100838000D01*
%TO.N,TT-Enable*%
X131826000Y-67813000D02*
X131069000Y-67056000D01*
X138176000Y-100838000D02*
X131826000Y-94488000D01*
X131826000Y-94488000D02*
X131826000Y-67813000D01*
%TO.N,TT-Input1*%
X134366000Y-67813000D02*
X133609000Y-67056000D01*
X134366000Y-94488000D02*
X134366000Y-67813000D01*
X140716000Y-100838000D02*
X134366000Y-94488000D01*
%TO.N,TT-Input2*%
X136906000Y-67813000D02*
X136149000Y-67056000D01*
X143256000Y-100838000D02*
X136906000Y-94488000D01*
X136906000Y-94488000D02*
X136906000Y-67813000D01*
%TO.N,Output-3v3*%
X155702000Y-77978000D02*
X154686000Y-77978000D01*
X153416000Y-80264000D02*
X153416000Y-85598000D01*
X141229000Y-67061000D02*
X153416000Y-79248000D01*
X153416000Y-79248000D02*
X153416000Y-80264000D01*
X141229000Y-67056000D02*
X141229000Y-67061000D01*
X154686000Y-77978000D02*
X153416000Y-79248000D01*
%TO.N,Net-(Q5-C)*%
X137619000Y-113284000D02*
X139700000Y-111203000D01*
X135890000Y-113284000D02*
X137619000Y-113284000D01*
%TO.N,Input_5v*%
X118872000Y-73914000D02*
X120396000Y-72390000D01*
X120396000Y-72390000D02*
X120396000Y-66294000D01*
X143769000Y-67051000D02*
X146050000Y-64770000D01*
X158750000Y-70612000D02*
X162052000Y-73914000D01*
X120396000Y-66294000D02*
X121920000Y-64770000D01*
X158750000Y-66294000D02*
X158750000Y-70612000D01*
X157226000Y-64770000D02*
X158750000Y-66294000D01*
X143769000Y-67056000D02*
X143769000Y-67051000D01*
X121920000Y-64770000D02*
X141483000Y-64770000D01*
X146050000Y-64770000D02*
X157226000Y-64770000D01*
X141483000Y-64770000D02*
X143769000Y-67056000D01*
X117094000Y-73914000D02*
X118872000Y-73914000D01*
%TD*%
M02*
