%TF.GenerationSoftware,KiCad,Pcbnew,7.0.7*%
%TF.CreationDate,2025-03-26T10:17:06+05:30*%
%TF.ProjectId,VibAndHeat_Version1,56696241-6e64-4486-9561-745f56657273,rev?*%
%TF.SameCoordinates,Original*%
%TF.FileFunction,Other,User*%
%FSLAX46Y46*%
G04 Gerber Fmt 4.6, Leading zero omitted, Abs format (unit mm)*
G04 Created by KiCad (PCBNEW 7.0.7) date 2025-03-26 10:17:06*
%MOMM*%
%LPD*%
G01*
G04 APERTURE LIST*
%ADD10C,0.050000*%
G04 APERTURE END LIST*
D10*
%TO.C,Q2*%
X123888000Y-122238000D02*
X119148000Y-122238000D01*
X123888000Y-122238000D02*
X123888000Y-127698000D01*
X119148000Y-127698000D02*
X119148000Y-122238000D01*
X119148000Y-127698000D02*
X123888000Y-127698000D01*
%TO.C,J3*%
X160252000Y-69574000D02*
X160252000Y-75724000D01*
X160252000Y-75724000D02*
X163852000Y-75724000D01*
X163852000Y-69574000D02*
X160252000Y-69574000D01*
X163852000Y-75724000D02*
X163852000Y-69574000D01*
%TO.C,Microcontroller1*%
X116336000Y-102368000D02*
X162556000Y-102368000D01*
X116336000Y-102368000D02*
X116336000Y-84088000D01*
X162556000Y-84088000D02*
X162556000Y-102368000D01*
X162556000Y-84088000D02*
X116336000Y-84088000D01*
%TO.C,J1*%
X115294000Y-69574000D02*
X115294000Y-75724000D01*
X115294000Y-75724000D02*
X118894000Y-75724000D01*
X118894000Y-69574000D02*
X115294000Y-69574000D01*
X118894000Y-75724000D02*
X118894000Y-69574000D01*
%TO.C,Q1*%
X120714000Y-64326000D02*
X120714000Y-69066000D01*
X120714000Y-64326000D02*
X126174000Y-64326000D01*
X126174000Y-69066000D02*
X120714000Y-69066000D01*
X126174000Y-69066000D02*
X126174000Y-64326000D01*
%TO.C,J6*%
X118894000Y-120418000D02*
X118894000Y-114268000D01*
X118894000Y-114268000D02*
X115294000Y-114268000D01*
X115294000Y-120418000D02*
X118894000Y-120418000D01*
X115294000Y-114268000D02*
X115294000Y-120418000D01*
%TO.C,Q5*%
X133160000Y-117284000D02*
X137900000Y-117284000D01*
X133160000Y-117284000D02*
X133160000Y-111824000D01*
X137900000Y-111824000D02*
X137900000Y-117284000D01*
X137900000Y-111824000D02*
X133160000Y-111824000D01*
%TO.C,Q3*%
X152972000Y-64580000D02*
X152972000Y-69320000D01*
X152972000Y-64580000D02*
X158432000Y-64580000D01*
X158432000Y-69320000D02*
X152972000Y-69320000D01*
X158432000Y-69320000D02*
X158432000Y-64580000D01*
%TO.C,U3*%
X125646000Y-107611000D02*
X125646000Y-102701000D01*
X125646000Y-102701000D02*
X115146000Y-102701000D01*
X115146000Y-107611000D02*
X125646000Y-107611000D01*
X115146000Y-102701000D02*
X115146000Y-107611000D01*
%TO.C,U2*%
X162687000Y-117299000D02*
X138557000Y-117299000D01*
X138557000Y-117299000D02*
X138557000Y-105107000D01*
X138557000Y-105107000D02*
X162687000Y-105107000D01*
X162687000Y-105107000D02*
X162687000Y-117299000D01*
%TO.C,J4*%
X160358000Y-121898000D02*
X160358000Y-128048000D01*
X160358000Y-128048000D02*
X163958000Y-128048000D01*
X163958000Y-121898000D02*
X160358000Y-121898000D01*
X163958000Y-128048000D02*
X163958000Y-121898000D01*
%TO.C,J2*%
X115146000Y-121898000D02*
X115146000Y-128048000D01*
X115146000Y-128048000D02*
X118746000Y-128048000D01*
X118746000Y-121898000D02*
X115146000Y-121898000D01*
X118746000Y-128048000D02*
X118746000Y-121898000D01*
%TO.C,Q4*%
X160210000Y-122238000D02*
X155470000Y-122238000D01*
X160210000Y-122238000D02*
X160210000Y-127698000D01*
X155470000Y-127698000D02*
X155470000Y-122238000D01*
X155470000Y-127698000D02*
X160210000Y-127698000D01*
%TD*%
M02*
