M48
; DRILL file {KiCad 7.0.7} date Wed Mar 26 10:17:00 2025
; FORMAT={-:-/ absolute / inch / decimal}
; #@! TF.CreationDate,2025-03-26T10:17:00+05:30
; #@! TF.GenerationSoftware,Kicad,Pcbnew,7.0.7
; #@! TF.FileFunction,Plated,1,2,PTH
FMAT,2
INCH
; #@! TA.AperFunction,Plated,PTH,ComponentDrill
T1C0.0295
; #@! TA.AperFunction,Plated,PTH,ComponentDrill
T2C0.0300
; #@! TA.AperFunction,Plated,PTH,ComponentDrill
T3C0.0354
; #@! TA.AperFunction,Plated,PTH,ComponentDrill
T4C0.0394
; #@! TA.AperFunction,Plated,PTH,ComponentDrill
T5C0.0433
%
G90
G05
T1
X4.77Y-4.87
X4.77Y-4.92
X4.77Y-4.97
X4.81Y-2.64
X4.86Y-2.64
X4.91Y-2.64
X5.35Y-4.46
X5.35Y-4.51
X5.35Y-4.56
X6.08Y-2.65
X6.13Y-2.65
X6.18Y-2.65
X6.2Y-4.87
X6.2Y-4.92
X6.2Y-4.97
T2
X5.5Y-4.2331
X5.5Y-4.3781
X5.5Y-4.5231
X6.36Y-4.2631
X6.36Y-4.4931
T3
X4.9231Y-4.33
X4.9231Y-4.5662
X5.0216Y-4.33
X5.0216Y-4.5662
X5.12Y-4.33
X5.12Y-4.5662
T4
X4.6042Y-4.87
X4.6042Y-4.97
X4.61Y-2.81
X4.61Y-2.91
X4.61Y-4.57
X4.61Y-4.67
X4.74Y-3.37
X4.74Y-3.97
X4.84Y-3.37
X4.84Y-3.97
X4.94Y-3.37
X4.94Y-3.97
X5.02Y-4.12
X5.04Y-3.37
X5.04Y-3.97
X5.12Y-4.12
X5.14Y-3.37
X5.14Y-3.97
X5.1602Y-2.64
X5.17Y-4.69
X5.17Y-4.8869
X5.22Y-4.12
X5.24Y-3.37
X5.24Y-3.97
X5.2602Y-2.64
X5.33Y-4.97
X5.33Y-5.1669
X5.34Y-3.37
X5.34Y-3.97
X5.3602Y-2.64
X5.37Y-4.1202
X5.37Y-4.2202
X5.44Y-3.37
X5.44Y-3.97
X5.4602Y-2.64
X5.49Y-4.69
X5.49Y-4.8869
X5.54Y-3.37
X5.54Y-3.97
X5.5602Y-2.64
X5.64Y-3.37
X5.64Y-3.97
X5.65Y-4.97
X5.65Y-5.1669
X5.6602Y-2.64
X5.74Y-3.37
X5.74Y-3.97
X5.7602Y-2.64
X5.81Y-4.69
X5.81Y-4.8869
X5.84Y-3.37
X5.84Y-3.97
X5.94Y-3.37
X5.94Y-3.97
X6.04Y-3.37
X6.04Y-3.97
X6.13Y-2.87
X6.13Y-2.97
X6.13Y-3.07
X6.13Y-3.17
X6.14Y-3.37
X6.14Y-3.97
X6.38Y-2.81
X6.38Y-2.91
X6.3842Y-4.87
X6.3842Y-4.97
T5
X4.64Y-4.1028
X4.74Y-4.1028
X4.84Y-4.1028
T0
M30
